<?xml version="1.0" standalone="no"?>
<!DOCTYPE svg PUBLIC "-//W3C//DTD SVG 1.1//EN" "http://www.w3.org/Graphics/SVG/1.1/DTD/svg11.dtd" >
<svg xmlns="http://www.w3.org/2000/svg">
<metadata>Generated by IcoMoon</metadata>
<defs>
<font id="InfiSpIcons" horiz-adv-x="1024">
<font-face units-per-em="1024" ascent="960" descent="-64" />
<missing-glyph horiz-adv-x="1024" />
<glyph unicode="&#x20;" horiz-adv-x="512" d="" />
<glyph unicode="&#xe900;" glyph-name="Sp_01_Expand" d="M114.453 596.125v128c0 33.948 13.478 66.506 37.465 90.51s56.518 37.49 90.442 37.49h127.906v64h-127.906c-50.884 0-99.684-20.229-135.665-56.236s-56.195-84.842-56.195-135.764v-128h63.953zM689.997 852.125h127.91c33.92 0 66.458-13.485 90.445-37.49s37.459-56.562 37.459-90.51v-128h63.955v128c0 50.922-20.211 99.757-56.192 135.764s-84.781 56.236-135.667 56.236h-127.91v-64zM370.266 20.128h-127.906c-33.923 0-66.454 13.485-90.442 37.485-23.987 24.006-37.465 56.563-37.465 90.515v128h-63.953v-128c0-50.925 20.214-99.763 56.195-135.77s84.78-56.23 135.665-56.23h127.906v64zM946.061 276.128v-128c0-33.952-13.472-66.509-37.459-90.515-23.987-24-56.525-37.485-90.445-37.485h-127.904v-64h127.904c50.886 0 99.686 20.224 135.667 56.23s56.192 84.845 56.192 135.77v128h-63.955z" />
<glyph unicode="&#xe901;" glyph-name="Sp_02_Search" d="M432.201 850.286c-178.104 0-322.487-144.383-322.487-322.487s144.383-322.487 322.487-322.487c178.104 0 322.487 144.383 322.487 322.487s-144.383 322.487-322.487 322.487zM36.571 527.799c0 218.5 177.129 395.63 395.63 395.63s395.63-177.129 395.63-395.63c0-218.5-177.129-395.63-395.63-395.63s-395.63 177.129-395.63 395.63zM661.854 298.146c14.282 14.282 37.438 14.282 51.72 0l257.463-257.464c14.285-14.285 14.285-37.435 0-51.719s-37.435-14.285-51.719 0l-257.464 257.463c-14.282 14.282-14.282 37.438 0 51.72z" />
<glyph unicode="&#xe902;" glyph-name="Sp_03_CloseIcon" d="M291.84 227.84c9.386-9.385 21.334-14.080 35.84-14.080s26.454 4.695 35.84 14.080l148.48 148.48 149.76-149.76c9.385-9.385 21.13-13.86 35.226-13.414 14.065 0.41 25.789 5.309 35.174 14.694s14.080 21.335 14.080 35.84c0 14.505-4.695 26.455-14.080 35.84l-148.48 148.48 149.76 149.76c9.385 9.386 13.86 21.129 13.414 35.226-0.41 14.063-5.309 25.788-14.694 35.174s-21.335 14.080-35.84 14.080c-14.505 0-26.455-4.694-35.84-14.080l-148.48-148.48-149.76 149.76c-9.386 9.386-21.111 13.875-35.174 13.466-14.097-0.444-25.839-5.359-35.226-14.746s-14.080-21.334-14.080-35.84c0-14.506 4.694-26.454 14.080-35.84l148.48-148.48-149.76-149.76c-9.386-9.385-13.858-21.11-13.414-35.174 0.41-14.095 5.308-25.841 14.694-35.226zM512-64c-70.826 0-137.386 13.45-199.68 40.346-62.294 26.865-116.48 63.334-162.56 109.414s-82.551 100.265-109.414 162.56c-26.897 62.295-40.346 128.855-40.346 199.68s13.449 137.386 40.346 199.68c26.863 62.294 63.334 116.48 109.414 162.56s100.266 82.569 162.56 109.466c62.294 26.863 128.854 40.294 199.68 40.294s137.385-13.431 199.68-40.294c62.295-26.897 116.48-63.386 162.56-109.466s82.55-100.266 109.414-162.56c26.895-62.294 40.346-128.854 40.346-199.68s-13.45-137.385-40.346-199.68c-26.865-62.295-63.334-116.48-109.414-162.56s-100.265-82.55-162.56-109.414c-62.295-26.895-128.855-40.346-199.68-40.346zM512 38.4c113.495 0 210.14 39.885 289.946 119.654 79.77 79.805 119.654 176.451 119.654 289.946s-39.885 210.142-119.654 289.946c-79.805 79.77-176.451 119.654-289.946 119.654s-210.125-39.885-289.894-119.654c-79.804-79.804-119.706-176.452-119.706-289.946s39.902-210.14 119.706-289.946c79.77-79.77 176.401-119.654 289.894-119.654z" />
<glyph unicode="&#xe903;" glyph-name="Sp_04_Edit" horiz-adv-x="960" d="M747.725 954.099c-33.498-5.082-61.914-18.020-90.79-41.353-9.242-7.393-147.164-144.159-307.032-304.028l-290.167-290.861-3.465-16.173c-48.515-225.248-57.525-269.6-56.139-277.229 2.079-10.624 13.168-23.328 23.796-26.797 4.389-1.389 12.475-2.080 17.789-1.389 6.931 0.928 227.097 47.827 273.995 58.221 6.238 1.619 583.567 576.637 602.741 600.664 64.454 80.628 51.75 198.681-27.955 261.289-39.040 30.495-94.253 45.050-142.771 37.657zM799.245 879.247c56.141-11.782 94.72-67.921 85.248-124.060-5.312-32.113-13.632-44.588-63.533-95.413l-44.358-45.281-78.547 78.779-78.547 78.548 46.438 46.205c40.198 40.198 48.282 47.129 61.453 52.904 25.408 11.551 45.51 13.862 71.846 8.317zM640.301 478.189c-45.744-45.743-145.085-144.39-220.63-219.245l-137.69-135.84-97.724-21.024c-53.828-11.552-98.185-20.794-98.647-20.326-0.231 0.23 8.779 44.819 20.33 98.643l20.792 98.189 219.704 220.164 219.935 219.935 157.097-157.097-83.168-83.4z" />
<glyph unicode="&#xe904;" glyph-name="Sp_05_Info" horiz-adv-x="737" d="M350.204 486.846v-184.32h36.864v184.32h-36.864zM368.636 634.304c-20.359 0-36.864-16.505-36.864-36.864s16.505-36.864 36.864-36.864c20.36 0 36.864 16.504 36.864 36.864s-16.504 36.864-36.864 36.864zM700.412 449.982c0 183.236-148.541 331.778-331.776 331.778s-331.776-148.541-331.776-331.778c0-183.235 148.541-331.776 331.776-331.776s331.776 148.541 331.776 331.776zM663.548 449.982c0-162.873-132.035-294.912-294.912-294.912-162.875 0-294.912 132.039-294.912 294.912 0 162.877 132.037 294.914 294.912 294.914 162.877 0 294.912-132.037 294.912-294.914z" />
<glyph unicode="&#xe905;" glyph-name="Sp_06_Plus" d="M511.1 889.633c-243.893 0-441.608-197.715-441.608-441.608v-0.004c0-243.895 197.715-441.609 441.608-441.609h0.004c243.895 0 441.609 197.713 441.609 441.609v0.004c0 243.893-197.713 441.608-441.609 441.608h-0.004zM18.292 448.026c0 272.17 220.638 492.808 492.808 492.808h0.004c272.171 0 492.809-220.638 492.809-492.808v-0.004c0-272.171-220.638-492.809-492.809-492.809h-0.004c-272.17 0-492.808 220.638-492.808 492.809v0.004zM478.562 415.501v-195.247h65.084v195.247h195.247v65.084h-195.247v195.249h-65.084v-195.249h-195.249v-65.084h195.249z" />
<glyph unicode="&#xe906;" glyph-name="Sp_07_ThinCloseIcon" d="M1024 448c0 282.77-229.231 512-512 512s-512-229.23-512-512c0-282.769 229.23-512 512-512s512 229.231 512 512zM981.333 448c0-259.204-210.129-469.333-469.333-469.333-259.206 0-469.333 210.129-469.333 469.333 0 259.206 210.128 469.333 469.333 469.333s469.333-210.128 469.333-469.333zM696.081 609.539l-138.061-138.060 138.061-138.065-46.020-46.020-138.061 138.065-138.063-138.065-46.020 46.025 138.063 138.061-138.062 138.059 46.021 46.020 138.061-138.059 138.061 138.060 46.020-46.020z" />
<glyph unicode="&#xe907;" glyph-name="Sp_08_Cancel" d="M55.526 937.77c-13.144-5.219-23.195-13.916-29.766-25.706l-5.605-10.244v-910.351l5.605-10.244c6.765-11.985 16.816-20.681 30.153-25.706 9.471-3.478 20.295-3.675 320.858-3.675 305.202 0 311.193 0 321.244 3.868 5.604 2.127 13.533 6.376 17.396 9.665 8.7 7.148 18.944 27.057 18.944 36.915v7.152l13.143-4.447c23.194-7.924 34.985-9.665 64.169-9.472 23.776 0.193 30.929 0.969 46.584 5.218 35.178 9.279 63.98 25.513 88.525 49.869 18.172 18.168 28.995 33.438 39.818 56.245 24.741 52.185 24.162 117.705-1.351 168.732-21.65 42.91-62.625 80.211-105.535 95.677-26.096 9.468-41.173 11.981-69.006 11.981-26.092 0-43.103-2.513-64.169-10.051-5.994-2.127-11.406-3.864-11.599-3.864-0.386 0-0.579 79.439-0.579 176.463v176.273l-5.025 10.63c-4.061 9.084-19.33 25.127-98.966 104.758-63.011 62.816-97.028 95.481-102.829 98.573l-8.696 4.445-227.114 0.387c-217.062 0.387-227.5 0.193-236.198-3.092zM498.542 821.029v-81.758l5.411-10.631c3.478-6.765 8.117-12.37 13.529-16.236l8.507-5.798 169.704-1.16v-358.342l-12.371-10.244c-26.092-21.26-51.799-61.464-60.885-94.708-17.975-66.292-0.579-136.649 46.001-186.514 6.38-6.573 14.883-14.497 19.33-17.782l7.924-5.797-0.193-15.462c0-16.045-1.351-19.909-8.889-23.776-3.096-1.737-81.376-2.32-310.808-2.32h-306.748l-11.211 11.213v889.863l11.211 11.21h429.486v-81.758zM604.463 744.683c-34.406-0.193-63.397 0-64.752 0.58-1.934 0.58-2.513 15.269-2.513 65.135v64.363l129.504-129.498-62.24-0.58zM849.554 340.338c43.488-11.016 80.215-40.972 100.51-82.141 12.757-26.096 15.269-37.498 15.269-70.55-0.193-26.478-0.386-28.991-6.38-46.387-9.082-26.478-19.33-42.52-39.818-62.815-19.909-19.716-41.169-32.28-66.875-39.625-72.483-20.102-149.413 14.69-182.658 82.723-10.437 21.264-14.883 40.204-15.076 65.138-0.193 28.026 4.061 46.58 16.427 72.48 8.893 18.361 11.599 22.032 29.381 39.621 21.071 20.874 38.077 31.508 63.011 39.432 26.868 8.696 57.407 9.468 86.209 2.123zM148.692 671.303c-5.412-1.933-11.404-8.698-12.564-14.303-1.546-7.151 3.479-17.975 9.858-20.874 3.479-1.546 44.263-2.126 144.966-2.126h140.325l5.608 5.605c5.99 5.992 7.538 16.043 3.671 23.58-5.218 9.664-3.285 9.471-151.151 9.277-75.769 0-139.167-0.58-140.713-1.159zM142.513 552.101c-5.799-3.285-10.051-13.722-8.311-20.874 0.773-2.706 3.479-6.959 6.185-9.472l4.832-4.443 178.985-0.583c132.016-0.386 180.53 0.193 184.591 1.741 12.371 5.218 15.076 21.067 5.411 30.925l-5.604 5.604h-180.532c-153.663-0.193-181.111-0.579-185.556-2.899zM587.268 551.995c-14.304-7.731-10.051-31.311 6.183-34.788 7.152-1.548 17.975 3.478 20.878 9.854 8.117 18.172-9.472 34.406-27.061 24.934zM142.494 435.204c-5.219-4.64-6.379-6.955-6.379-13.722s1.16-9.086 6.379-13.722l6.378-5.608 460.219 0.969 4.64 5.411c5.025 5.797 6.183 16.041 2.706 22.808-5.411 9.858 4.057 9.468-240.451 9.468h-227.306l-6.185-5.604zM142.494 319.358c-5.219-4.64-6.379-6.959-6.379-13.722 0-6.766 1.16-9.086 6.379-13.726l6.185-5.604h173.186c123.705 0 174.346 0.583 177.245 2.127 9.858 5.025 14.112 17.589 9.086 27.061-5.218 9.661-0.579 9.468-186.331 9.468h-173.186l-6.185-5.604zM142.501 203.552c-8.505-7.538-8.891-18.944-0.966-26.675l5.219-5.411 173.572-0.579c127.958-0.386 174.731 0.193 178.792 1.737 11.599 4.832 14.69 21.65 5.411 30.929l-5.604 5.604h-350.238l-6.185-5.604zM746.748 259.592c-6.766-4.061-11.406-14.69-9.279-20.681 0.776-1.934 11.406-13.919 23.776-26.285l22.229-22.808-23.776-24.162-23.966-24.159 1.158-8.117c1.548-11.016 8.31-17.010 19.137-17.010 7.538 0 9.082 1.162 30.539 22.229 12.371 12.178 23.194 22.225 24.162 22.225 0.965 0 11.788-10.047 24.159-22.225 24.162-23.773 27.061-25.32 38.66-19.33 7.148 3.675 9.661 8.314 9.661 17.396 0 6.38-2.123 9.279-22.615 30.153l-22.615 23.001 22.615 23.001c21.65 21.839 22.615 23.194 22.615 30.925 0 11.016-7.924 19.519-18.554 19.519-6.573 0-9.086-1.93-30.539-23.194l-23.584-23.194-20.102 20.488c-26.864 27.061-31.697 29.574-43.681 22.229z" />
<glyph unicode="&#xe908;" glyph-name="Sp_09_NotificationBell" horiz-adv-x="945" d="M457.118 942.629c-43.93-7.64-75.762-47.753-75.762-95.718 0-7.216-0.424-7.641-12.096-11.248-19.311-5.943-57.298-25.468-78.095-40.537-38.411-27.378-73.214-67.066-94.010-106.966-23.981-45.843-26.315-56.030-55.812-233.669-14.006-84.681-26.314-156.841-27.375-160.449-5.093-15.069-14.643-26.108-39.684-44.997-30.983-23.556-39.047-32.047-46.687-48.175-5.305-11.248-5.942-15.069-5.942-33.957 0-19.314 0.637-22.496 6.579-35.021 11.459-24.194 33.954-41.807 60.056-46.69 6.791-1.272 55.388-2.123 119.264-2.123h108.017l1.273-5.73c5.306-24.832 13.582-43.93 27.375-63.244 25.678-36.293 63.877-58.577 110.564-64.945 31.409-4.033 70.455 4.246 99.742 21.65 16.549 9.763 44.564 37.99 54.327 54.969 7.215 12.308 16.128 35.868 19.523 51.57l1.272 5.73h108.016c63.878 0 112.475 0.851 119.264 2.123 26.313 4.884 48.597 22.284 60.058 46.69 5.939 12.524 6.577 15.707 6.577 35.021 0 18.889-0.638 22.709-5.943 33.957-7.637 16.128-15.703 24.619-46.687 48.175-25.041 18.889-34.592 29.928-39.684 44.997-1.059 3.608-13.58 75.768-27.376 160.449-29.282 177.639-31.831 188.039-55.599 233.457-34.166 65.368-103.558 125.431-169.133 146.654-15.069 4.881-15.281 4.881-15.281 12.31 0 23.134-8.7 48.602-22.28 65.156-18.676 22.921-54.54 35.868-84.46 30.562zM496.801 891.693c10.61-7.216 18.46-19.313 19.736-30.137l1.059-9.126h-89.978l1.059 9.338c1.276 12.097 10.614 25.043 22.709 31.623 12.946 6.791 33.741 6.155 45.414-1.698zM523.54 803.403c54.54-11.248 100.376-35.655 138.149-73.433 30.346-30.138 54.114-69.825 66.422-110.362 3.186-10.187 16.553-85.32 32.047-177.854 25.253-153.655 26.738-160.87 33.741-175.305 10.185-20.161 20.161-30.984 50.294-53.906 26.104-19.952 32.681-27.38 35.017-39.901 2.97-15.281-5.943-32.26-20.586-39.901-8.913-4.458-763.12-4.458-772.033 0-8.913 4.671-18.887 17.191-20.584 25.679-3.396 19.102 3.183 29.928 31.407 51.149 12.096 8.917 25.466 19.74 30.134 23.985 11.46 10.61 23.556 29.924 28.649 45.418 2.334 7.215 15.492 80.435 28.861 162.781 13.581 82.349 25.89 155.357 27.588 162.361 14.006 61.124 56.024 122.035 108.865 157.69 35.652 24.195 78.943 40.112 121.175 44.994 20.795 2.335 60.692 0.637 80.853-3.396zM582.109 77.347c-3.395-14.643-16.975-37.778-29.708-50.298-44.564-44.568-115.019-44.568-159.585 0-12.733 12.52-26.314 35.655-29.71 50.298l-1.273 5.73h221.552l-1.276-5.73z" />
<glyph unicode="&#xe909;" glyph-name="Sp_10_Upload" horiz-adv-x="1092" d="M518.659 955.531c-6.564-3.16-47.401-42.54-124.457-119.597-100.638-101.123-114.737-116.437-116.195-124.216-2.431-13.126 0.486-24.794 7.779-33.789 12.154-14.342 30.142-17.988 46.429-9.723 4.862 2.674 43.511 39.38 85.567 81.433l76.571 76.815 1.215-295.103c1.215-293.403 1.215-295.349 6.318-301.909 9.482-12.885 17.261-16.773 32.573-16.773 15.316 0 23.095 3.888 32.573 16.773 5.106 6.56 5.106 8.021 5.833 302.394l0.488 295.591 82.162-81.676c54.938-54.937 84.105-82.405 88.726-83.621 10.694-2.431 27.225 0.243 35.246 5.834 13.612 9.966 19.446 33.789 11.667 48.616-5.345 10.21-235.063 238.222-242.838 240.896-9.967 3.889-18.476 3.16-29.658-1.945zM22.542 332.070c-9.237-4.13-17.259-13.855-20.662-25.521-1.702-6.079-2.188-35.977-1.702-91.402 0.972-81.674 1.215-82.889 7.779-104.523 16.773-55.18 52.263-97.236 102.338-121.542 43.512-21.149 6.077-19.449 424.181-19.449 418.103 0 380.669-1.7 424.182 19.449 51.289 24.794 88.726 70.735 103.796 126.403 4.618 17.746 5.349 26.74 6.076 103.311 0.973 83.62 0.973 83.862-4.618 94.56-7.291 14.097-15.8 20.176-30.628 21.634-15.312 1.457-29.17-5.833-36.707-18.961-4.861-8.752-5.103-12.397-5.103-84.108 0-84.105-1.703-97.963-15.070-123.242-9.967-18.961-30.874-39.868-48.131-48.374-29.901-14.828-9.482-14.1-393.796-14.1-384.072 0-362.924-0.727-393.31 14.1-18.474 8.752-39.38 29.897-48.86 48.858-13.127 25.767-14.828 39.137-14.828 122.757 0 71.711-0.243 75.356-5.105 84.108-9.48 16.773-31.601 23.822-49.832 16.043z" />
<glyph unicode="&#xe90a;" glyph-name="Sp_11_FlightStart" horiz-adv-x="964" d="M250.345 13.529c-0.692-2.187-0.876-4.5-0.537-6.764s1.19-4.427 2.492-6.325c1.344-1.801 3.13-3.235 5.19-4.168s4.329-1.343 6.592-1.175h70.584c6.268-0.090 12.454 1.41 17.96 4.361 5.506 2.946 10.148 7.24 13.478 12.469l218.431 348.95c3.097 5.434 7.691 9.898 13.252 12.875s11.868 4.349 18.186 3.955h245.742c12.836-0.051 25.552 2.495 37.352 7.481 36.671 13.678 56.977 32.966 60.922 57.864 1.265 3.556 1.928 7.293 1.952 11.060-0.090 4.427-0.747 8.824-1.952 13.090-0.072 1.591-0.404 3.16-0.976 4.648-0.819 2.238-1.801 4.417-2.933 6.519-3.295 9.649-9.463 18.101-17.703 24.257-7.813 6.59-16.396 12.24-25.57 16.83l-13.74 5.343c-12.089 3.69-24.696 5.493-37.352 5.343h-245.742c-6.319-0.393-12.625 0.978-18.186 3.955s-10.156 7.441-13.252 12.876l-218.214 349.807c-3.329 5.227-7.971 9.521-13.477 12.469s-11.692 4.45-17.96 4.362h-70.584c-2.262 0.163-4.53-0.242-6.591-1.176s-3.847-2.368-5.191-4.167c-1.302-1.898-2.153-4.060-2.491-6.326s-0.155-4.578 0.537-6.764l117.93-345.48c1.34-1.978 1.972-4.339 1.794-6.71s-1.152-4.616-2.772-6.38c-1.596-1.759-3.567-3.151-5.773-4.074s-4.591-1.356-6.986-1.269h-190.957c-6.377-0.321-12.738 0.87-18.549 3.474s-10.901 6.543-14.842 11.487l-35.401 46.698c-3.941 4.944-9.031 8.883-14.842 11.486s-12.173 3.795-18.549 3.474h-47.183c-2.263 0.163-4.531-0.242-6.591-1.176s-3.847-2.368-5.191-4.166c-1.305-1.897-2.159-4.059-2.498-6.325s-0.153-4.579 0.543-6.765l35.401-115.783c3.942-12.165 3.942-25.236 0-37.401l-35.401-115.785c-0.696-2.187-0.881-4.5-0.543-6.764s1.192-4.427 2.498-6.325c1.344-1.801 3.13-3.235 5.191-4.168s4.328-1.337 6.591-1.175h47.183c6.377-0.319 12.738 0.873 18.549 3.476s10.901 6.542 14.842 11.487l35.401 46.696c3.941 4.944 9.031 8.883 14.842 11.487s12.173 3.795 18.549 3.474h190.74c2.561 0.302 5.157-0.028 7.555-0.961s4.523-2.439 6.181-4.382c1.292-1.946 1.98-4.221 1.98-6.545s-0.688-4.599-1.98-6.545l-117.929-346.707z" />
<glyph unicode="&#xe90b;" glyph-name="Sp_12_EditFill" d="M913.28 613.524l-238.123 235.66 78.441 78.553c21.478 21.509 47.869 32.263 79.171 32.263 31.265 0 57.633-10.754 79.112-32.263l78.447-78.553c21.478-21.508 32.683-47.468 33.613-77.88 0.939-30.374-9.335-56.315-30.814-77.824l-79.846-79.956zM56.030-64c-15.875 0-29.173 5.385-39.893 16.162-10.758 10.735-16.137 24.047-16.137 39.945v158.513c0 7.481 1.401 14.719 4.202 21.714 2.801 7.032 7.004 13.355 12.607 18.965l577.105 577.929 238.126-238.466-577.105-577.925c-5.603-5.615-11.897-9.822-18.883-12.629-7.022-2.807-14.269-4.207-21.74-4.207h-158.283z" />
<glyph unicode="&#xe90c;" glyph-name="Sp_13_Calender" horiz-adv-x="960" d="M153.6 774.375c-31.812 0-57.6-25.788-57.6-57.6v-627.201c0-31.808 25.788-57.6 57.6-57.6h627.2c31.814 0 57.6 25.792 57.6 57.6v627.201c0 31.812-25.786 57.6-57.6 57.6h-627.2zM32 716.775c0 67.158 54.442 121.6 121.6 121.6h627.2c67.155 0 121.6-54.442 121.6-121.6v-627.201c0-67.155-54.445-121.6-121.6-121.6h-627.2c-67.158 0-121.6 54.445-121.6 121.6v627.201zM646.374 928c17.677 0 32-14.327 32-32v-179.2c0-17.673-14.323-32-32-32-17.672 0-31.999 14.327-31.999 32v179.2c0 17.673 14.327 32 31.999 32zM288 928c17.673 0 32-14.327 32-32v-179.2c0-17.673-14.327-32-32-32s-32 14.327-32 32v179.2c0 17.673 14.327 32 32 32zM32 448c0 17.673 14.327 32 32 32h806.4c17.67 0 32-14.327 32-32s-14.33-32-32-32h-806.4c-17.673 0-32 14.327-32 32z" />
<glyph unicode="&#xe90d;" glyph-name="Sp_14_Light" d="M544 896h-64v-160h64v160zM806.19 787.409l-112.191-112.187 45.249-45.251 112.191 112.187-45.249 45.25zM960 480h-160v-64h160v64zM739.248 266.030l-45.249-45.249 112.191-112.191 45.249 45.249-112.191 112.191zM544 160h-64v-160h64v160zM284.798 266.075l-112.187-112.185 45.251-45.249 112.187 112.185-45.251 45.249zM224 480h-160v-64h160v64zM217.862 787.362l-45.251-45.251 112.187-112.187 45.251 45.25-112.187 112.187zM512 576c25.316 0 50.063-7.507 71.111-21.572s37.456-34.056 47.144-57.445 12.225-49.126 7.287-73.955c-4.938-24.83-17.129-47.636-35.032-65.539s-40.709-30.094-65.539-35.032c-24.829-4.938-50.566-2.401-73.955 7.287s-43.379 26.095-57.445 47.144c-14.065 21.048-21.572 45.795-21.572 71.111 0.038 33.936 13.536 66.471 37.532 90.468s56.532 37.494 90.468 37.532zM512 640c-37.974 0-75.095-11.261-106.67-32.358s-56.183-51.083-70.715-86.167c-14.532-35.083-18.334-73.688-10.926-110.933 7.409-37.243 25.694-71.456 52.547-98.308s61.063-45.136 98.307-52.548c37.245-7.407 75.849-3.601 110.935 10.928 35.083 14.535 65.070 39.14 86.164 70.719 21.1 31.573 32.358 68.693 32.358 106.667 0 50.922-20.23 99.758-56.235 135.765s-84.844 56.235-135.765 56.235z" />
<glyph unicode="&#xe90e;" glyph-name="Sp_15_Dark" horiz-adv-x="896" d="M354.909 864.941c-17.122-77.085-19.452-157.002-6.852-235.050s39.874-152.652 80.218-219.42c40.344-66.769 92.944-124.353 154.705-169.371 61.762-45.011 131.432-76.55 204.924-92.749-38.637-42.15-84.915-75.686-136.077-98.618-51.165-22.931-106.177-34.784-161.77-34.867-5.172 0-10.39-0.198-15.604 0-96.781 3.61-189.306 42.854-261.505 110.918s-119.509 160.64-133.715 261.66c-14.206 101.018 5.59 204.093 55.95 291.321s128.103 153.1 219.725 186.175zM410.091 960c-2.186-0.004-4.368-0.209-6.521-0.614-118.925-22.275-225.828-90.168-300.118-190.6s-110.711-226.301-102.25-353.361c8.462-127.059 61.208-246.323 148.080-334.822s201.724-139.968 322.433-144.499c6.129-0.237 12.258 0 18.334 0 78.387-0.038 155.634 19.821 225.202 57.907 69.568 38.080 129.421 93.274 174.496 160.902 3.654 5.824 5.786 12.57 6.182 19.539 0.397 6.976-0.954 13.939-3.917 20.186-2.97 6.246-7.443 11.558-12.979 15.398-5.53 3.846-11.923 6.080-18.541 6.49-74.611 6.899-146.726 31.802-210.758 72.781-64.029 40.982-118.268 96.938-158.52 163.548s-65.443 142.088-73.621 220.602c-8.178 78.513 0.874 157.958 26.455 232.194 2.176 5.939 2.975 12.341 2.331 18.672s-2.714 12.408-6.036 17.725c-3.322 5.317-7.8 9.72-13.062 12.843s-11.155 4.875-17.19 5.11z" />
<glyph unicode="&#xe90f;" glyph-name="Sp_16_TableExpand" d="M967.53 959.151l-331.779-6.376c-11.603-0.223-22.643-5.046-30.69-13.409s-12.442-19.579-12.22-31.182c0.223-11.603 5.046-22.642 13.409-30.689s19.579-12.443 31.182-12.22l288.032 5.536 5.536-287.897c0.218-11.604 5.045-22.643 13.408-30.69s19.579-12.443 31.177-12.22c11.605 0.223 22.644 5.046 30.693 13.409s12.445 19.579 12.22 31.182l-6.376 331.918c-0.3 11.555-5.147 22.524-13.503 30.513s-19.531 12.348-31.089 12.126zM998.735 946.921c-4.137 3.988-9.018 7.119-14.363 9.217s-11.059 3.121-16.8 3.011c-5.741-0.11-11.407-1.352-16.671-3.654s-10.022-5.619-14.001-9.762l-379.63-394.647c-4.019-4.132-7.181-9.015-9.307-14.374s-3.172-11.086-3.079-16.85c0.094-5.764 1.324-11.451 3.622-16.738s5.621-10.066 9.772-14.065c4.151-3.999 9.051-7.137 14.42-9.237s11.099-3.119 16.863-2.997c5.763 0.122 11.444 1.381 16.719 3.705s10.039 5.667 14.018 9.838l379.632 394.647c3.987 4.141 7.12 9.026 9.223 14.38 2.096 5.353 3.12 11.070 3.011 16.819s-1.352 11.418-3.659 16.687c-2.301 5.269-5.618 10.034-9.769 14.019zM380.572 30.365l-288.061-3.7-3.703 288.197c-0.149 11.605-4.902 22.674-13.213 30.774s-19.499 12.567-31.104 12.418c-11.605-0.149-22.676-4.902-30.777-13.213s-12.567-19.499-12.418-31.104l4.269-332.224c0.149-11.605 4.902-22.678 13.213-30.775 8.311-8.103 19.501-12.568 31.106-12.418l331.816 4.26c11.605 0.15 22.674 4.902 30.775 13.216 8.1 8.308 12.567 19.497 12.418 31.102s-4.902 22.671-13.213 30.775c-8.311 8.096-19.499 12.568-31.104 12.418l-0.003 0.273zM462.045 405.95c-4.11 4.014-8.972 7.18-14.306 9.313s-11.037 3.192-16.781 3.118c-5.744-0.074-11.418-1.279-16.695-3.549s-10.056-5.559-14.062-9.677l-382.132-392.219c-7.645-8.39-11.732-19.422-11.395-30.768s5.068-22.118 13.197-30.044c8.129-7.919 19.017-12.377 30.368-12.418 11.351-0.048 22.276 4.321 30.467 12.179l382.066 392.219c8.098 8.301 12.571 19.479 12.435 31.075s-4.869 22.662-13.161 30.771z" />
<glyph unicode="&#xe910;" glyph-name="Sp_17_TableCollapse" horiz-adv-x="1084" d="M110.1 282.010h262.596v-254.313c0-10.24 4.202-20.058 11.683-27.299s17.625-11.312 28.204-11.312c10.579 0 20.725 4.072 28.206 11.312s11.683 17.059 11.683 27.299v293.165c0 10.24-4.203 20.064-11.683 27.305s-17.627 11.308-28.206 11.308h-302.482c-10.579 0-20.723-4.068-28.204-11.308s-11.683-17.065-11.683-27.305c0-10.24 4.203-20.058 11.683-27.299s17.625-11.306 28.204-11.306v-0.247zM651.782 552.228c3.698-3.588 8.096-6.433 12.933-8.375s10.023-2.941 15.258-2.941c5.234 0 10.421 0.999 15.258 2.941s9.234 4.787 12.933 8.375l352.882 341.717c3.741 3.577 6.704 7.831 8.734 12.522 2.036 4.691 3.090 9.726 3.102 14.813 0.018 5.086-1.006 10.125-3.006 14.827-2.006 4.703-4.945 8.975-8.662 12.574-3.71 3.599-8.12 6.45-12.981 8.393-4.855 1.943-10.059 2.94-15.312 2.93-5.259-0.010-10.457-1.024-15.306-2.985-4.843-1.961-9.246-4.829-12.945-8.441l-352.888-341.717c-3.71-3.586-6.65-7.842-8.656-12.53s-3.042-9.713-3.042-14.787c0-5.074 1.036-10.096 3.042-14.783s4.945-8.947 8.656-12.533zM679.984 540.897h302.484c10.577 0 20.721 4.068 28.202 11.309s11.686 17.061 11.686 27.302c0 10.24-4.204 20.060-11.686 27.301s-17.625 11.309-28.202 11.309h-262.596v254.074c0 10.24-4.204 20.060-11.686 27.301s-17.625 11.309-28.202 11.309c-10.577 0-20.721-4.068-28.202-11.309s-11.686-17.061-11.686-27.301v-292.923c0.066-10.198 4.301-19.958 11.77-27.147 7.475-7.189 17.583-11.225 28.118-11.224zM31.515-48.447c3.699-3.584 8.093-6.433 12.93-8.379 4.837-1.94 10.022-2.939 15.258-2.939s10.421 1 15.258 2.939c4.837 1.946 9.231 4.795 12.931 8.379l352.885 341.715c7.067 7.319 10.92 17.004 10.747 27.022-0.173 10.011-4.36 19.57-11.677 26.654-7.316 7.078-17.188 11.135-27.534 11.303s-20.354-3.563-27.911-10.406l-352.825-341.715c-7.479-7.228-11.686-17.041-11.698-27.275s4.173-20.046 11.635-27.299zM651.842 552.228c3.698-3.588 8.096-6.433 12.933-8.375s10.017-2.941 15.258-2.941c5.234 0 10.421 0.999 15.258 2.941s9.228 4.787 12.926 8.375l352.888 341.717c3.735 3.577 6.704 7.831 8.734 12.522s3.084 9.726 3.102 14.813c0.018 5.086-1.006 10.125-3.006 14.827-2.006 4.703-4.951 8.975-8.662 12.574s-8.126 6.45-12.981 8.393c-4.855 1.943-10.059 2.94-15.312 2.93-5.259-0.010-10.457-1.024-15.306-2.985s-9.246-4.829-12.945-8.441l-352.888-341.717c-3.71-3.586-6.65-7.842-8.656-12.53-2.012-4.687-3.042-9.713-3.042-14.787s1.030-10.096 3.042-14.783c2.006-4.688 4.945-8.947 8.656-12.533z" />
<glyph unicode="&#xe911;" glyph-name="Sp_18_InfoBold" d="M488.107 825.645c-222.685 0-399.36-171.149-399.36-377.644s176.675-377.646 399.36-377.646c222.686 0 399.36 171.151 399.36 377.646s-176.674 377.644-399.36 377.644zM0 448.001c0 259.652 220.657 466.39 488.107 466.39 267.448 0 488.107-206.738 488.107-466.39 0-259.654-220.658-466.392-488.107-466.392s-488.107 206.739-488.107 466.392zM488.107 661.191c24.507 0 44.373-19.866 44.373-44.373v-168.806c0-24.506-19.866-44.373-44.373-44.373s-44.373 19.867-44.373 44.373v168.806c0 24.507 19.867 44.373 44.373 44.373zM488.107 323.592c-24.506 0-44.373-19.866-44.373-44.373s19.867-44.374 44.373-44.374h0.478c24.507 0 44.373 19.866 44.373 44.374 0 24.507-19.866 44.373-44.373 44.373h-0.478z" />
<glyph unicode="&#xe912;" glyph-name="Sp_19_RespMenu" horiz-adv-x="1707" d="M0 960h1706.667v-189.629h-1706.667v189.629zM0 580.75h1706.667v-189.629h-1706.667v189.629zM0 201.479h1706.667v-189.629h-1706.667v189.629z" />
<glyph unicode="&#xe913;" glyph-name="Sp_20_Tick" horiz-adv-x="1408" d="M1321.702 922.75c50.125-49.853 50.342-130.898 0.486-181.019l-758.615-762.666c-24.024-24.152-56.685-37.732-90.751-37.732s-66.726 13.58-90.751 37.732l-344.823 346.666c-49.854 50.121-49.638 131.165 0.483 181.019s131.165 49.638 181.019-0.483l254.072-255.43 667.859 671.43c49.853 50.12 130.904 50.336 181.020 0.483z" />
<glyph unicode="&#xe914;" glyph-name="Sp_21_Garbage" d="M386.2 957.8c-15.4-3-36.4-14.4-48-26-19.4-19.4-28-44.2-28.2-80.2v-15.6h-60.4c-68.2 0-83.2-1.6-101.2-10-16.2-7.6-35.6-26.8-43-42.6-16.8-35.6-9.6-76.8 18-104.2 9.6-9.6 32.2-23.2 38.4-23.2 1.6 0 2.2-84.4 2.6-308.4l0.6-308.6 5.4-16c7.6-22.2 18.4-39.2 33.6-53.8 15.8-14.8 32.4-24 53.2-29.2 15-3.8 23-4 254.8-4s239.8 0.2 254.8 4c48.6 12.4 83.6 52.8 91.2 105.4 1.2 8.4 2 127.8 2 312v298.2l7.6 2.6c28.6 9.2 53.4 39.8 58.6 71.8 5.4 33.8-11.4 71.6-40.4 90.2-21.8 13.8-25.2 14.4-102 15.4l-69.2 0.8-1.2 23.4c-1.4 25.8-5.6 40.8-15.4 56.4-13.4 20.8-37.6 37.2-61.8 41.8-13.2 2.4-237.2 2.4-250-0.2zM639 907.6c18-9.8 25.2-23.6 26.6-51l1-20.6h-309l0.6 21.6c0.8 19 1.4 22.4 6.4 30.8 3 5.2 8.2 11.4 11.6 13.8 13.8 9.8 13.2 9.8 138.8 9.2 105.6-0.4 118.6-0.8 124-3.8zM855 782.6c10.2-5.4 16-11.6 20.2-21.6 7.6-18.4 1.2-40.6-15-52l-8.6-6-335.2-0.6c-234.2-0.4-337.6 0-342.8 1.6-20 5.8-32.8 28.8-27.6 49.8 3.8 15.8 16.4 28.2 33 32.4 3.4 0.8 155 1.2 337 1.2l331-0.4 8-4.4zM811.6 359c0.4-200.6-0.2-298.4-1.6-308-4.2-27.6-18.6-48-41.6-59.4l-13.4-6.6-237.8-0.6c-258-0.6-251.2-0.8-268.6 10.2-16.4 10.4-30 30.6-34.4 51-1.6 7.6-2.2 95.8-2.2 309.6v298.8l599-1 0.6-294zM354.4 582.2c-3.2-3.4-6.4-8.8-7.2-12.4-0.6-3.4-1.2-108.4-1.2-233.2 0-241.8-0.2-234.4 9.4-243.2 6.2-5.4 16.8-6.4 25.2-2.4 14.2 6.8 13.4-9.4 13.4 248 0 251 0.6 238.2-10.8 245.8-2.8 1.8-9 3.2-14 3.2-7.2 0-10-1.2-14.8-5.8zM497.6 583.4c-2.8-2.4-6.2-6.4-7.4-8.8-1.6-3-2.2-72.2-2.2-235.6 0-257.4-0.8-241.2 13.4-248 8.4-4 19-3 25.2 2.4 9.6 8.8 9.4 1.4 9.4 243.2 0 124.8-0.6 229.8-1.2 233.2-0.8 3.6-4 9-7.2 12.4-7.6 7.6-21.8 8.2-30 1.2zM636.8 581.2l-6.8-6.8v-234.2c0-201.4 0.4-235.2 3-240 3-6.2 13.8-12.2 21.6-12.2 7.4 0 18 8.2 20.8 16 3.2 9.2 3.6 455.2 0.6 466.4-3 10.8-12.2 17.6-23.4 17.6-7.6 0-10-1-15.8-6.8z" />
<glyph unicode="&#xe915;" glyph-name="Sp_22_Reset" horiz-adv-x="956" d="M83.872 919.497c-6.96-3.84-12.96-9.6-17.76-17.28l-7.2-11.52-0.72-138c-0.72-156.48-0.72-156.24 16.080-171.6 5.28-4.8 13.68-9.6 18.719-11.040 12.96-3.6 276.961-3.6 289.92 0 14.64 4.080 28.8 19.68 32.16 35.52 4.080 19.2-1.44 40.56-13.2 50.88-14.399 12.72-16.080 12.96-102.719 14.161l-81.121 1.199 14.161 12.481c50.64 43.92 111.12 73.44 177.12 86.4 32.64 6.24 93.12 5.76 125.28-1.2 126.72-27.36 233.763-120.72 272.88-238.080 12.718-38.4 16.8-65.040 16.8-111.6 0-35.76-0.717-47.28-5.277-66.72-17.524-78.72-49.2-137.040-103.444-191.517-66.718-66.724-138.719-98.406-230.879-102.243-124.56-5.038-234.24 46.797-308.64 146.159-19.44 25.921-23.040 29.28-35.040 34.318-18.24 7.68-38.4 2.881-54.72-13.196-20.4-19.681-21.12-43.438-1.68-71.284 91.44-130.799 246.96-208.316 403.92-201.598 44.4 2.164 72.96 6.963 108.96 18.964 123.362 41.035 228.001 132 282.239 244.797 60.239 125.759 59.761 278.88-1.679 401.28-52.559 104.88-139.203 185.52-244.080 227.040-121.2 48-266.16 39.6-379.44-22.32-30.96-16.8-64.56-40.32-84.48-59.040l-9.12-8.4v63.36c0 36.48-1.2 67.44-2.4 72.48-5.76 20.4-24.48 32.88-49.44 33.12-10.8 0-17.52-1.44-25.2-5.52z" />
<glyph unicode="&#xe916;" glyph-name="Sp_23_Refresh" d="M981.333 832c23.562 0 42.667-19.102 42.667-42.667v-256c0-23.564-19.105-42.667-42.667-42.667h-256c-23.562 0-42.667 19.102-42.667 42.667s19.105 42.667 42.667 42.667h213.333v213.333c0 23.564 19.105 42.667 42.667 42.667zM0 362.667c0 23.562 19.103 42.667 42.667 42.667h256c23.564 0 42.667-19.105 42.667-42.667s-19.102-42.667-42.667-42.667h-213.333v-213.333c0-23.562-19.102-42.667-42.667-42.667s-42.667 19.105-42.667 42.667v256zM606.608 775.797c-55.389 16.022-113.937 17.75-170.171 5.026v0c-56.237-12.724-108.335-39.487-151.432-77.792s-75.787-86.902-95.022-141.258c-7.861-22.214-32.242-33.85-54.456-25.989s-33.85 32.242-25.989 54.456c24.043 67.945 64.907 128.691 118.777 176.573v0c53.871 47.88 118.992 81.334 189.289 97.24v0c70.298 15.906 143.475 13.744 212.712-6.282 69.018-19.963 131.872-57.029 182.735-107.756l197.5-185.58c17.174-16.136 18.013-43.138 1.877-60.311-16.14-17.172-43.14-18.013-60.314-1.876l-197.973 186.027c-0.322 0.305-0.644 0.616-0.961 0.931-40.76 40.781-91.185 70.572-146.573 86.593zM11.573 391.89c16.136 17.169 43.138 18.013 60.31 1.877l197.973-186.027c0.325-0.307 0.646-0.619 0.961-0.931 40.76-40.784 91.187-70.573 146.575-86.596 55.389-16.018 113.936-17.749 170.168-5.027 56.237 12.727 108.339 39.492 151.435 77.795s75.786 86.903 95.017 141.258c7.86 22.211 32.241 33.851 54.457 25.99 22.211-7.86 33.851-32.241 25.99-54.457-24.040-67.94-64.902-128.692-118.774-176.572s-118.994-81.335-189.294-97.241v0c-70.295-15.901-143.475-13.741-212.709 6.285-69.016 19.958-131.87 57.022-182.736 107.754l-197.498 185.578c-17.172 16.14-18.013 43.14-1.876 60.314z" />
<glyph unicode="&#xe917;" glyph-name="Sp_24_OpenEye" horiz-adv-x="1331" d="M118.741 447.996c6.062 10.477 14.098 23.826 24.054 39.242 25.572 39.595 63.441 92.249 112.605 144.691 99.34 105.962 238.23 204.337 410.205 204.337s310.864-98.375 410.209-204.337c49.162-52.442 87.030-105.096 112.599-144.691 9.953-15.415 17.992-28.765 24.054-39.242-6.062-10.476-14.1-23.825-24.054-39.241-25.569-39.595-63.437-92.249-112.599-144.691-99.345-105.962-238.235-204.337-410.209-204.337-171.976 0-310.865 98.375-410.205 204.337-49.164 52.442-87.033 105.096-112.605 144.691-9.955 15.415-17.992 28.765-24.054 39.241zM1275.74 447.996c49.613 24.806 49.603 24.825 49.592 24.845l-0.092 0.178-0.184 0.379-0.635 1.232c-0.522 1.029-1.27 2.469-2.243 4.293-1.925 3.646-4.731 8.831-8.387 15.333-7.311 12.999-18.074 31.31-32.184 53.166-28.17 43.606-70.031 101.887-124.867 160.379-108.667 115.905-274.842 239.399-491.136 239.399s-382.474-123.494-491.136-239.399c-54.836-58.492-96.701-116.773-124.863-160.379-14.116-21.856-24.879-40.167-32.191-53.166-3.658-6.502-6.458-11.687-8.388-15.333-0.965-1.824-1.713-3.263-2.242-4.293l-0.629-1.232-0.256-0.508c-0.010-0.020-0.044-0.088 49.567-24.894l-49.611 24.806c-7.808-15.616-7.808-33.996 0-49.612l49.611 24.805c-49.611-24.805-49.621-24.785-49.611-24.805l0.109-0.217 0.191-0.379 0.629-1.232c0.529-1.029 1.277-2.469 2.242-4.293 1.93-3.646 4.73-8.831 8.388-15.334 7.312-12.998 18.076-31.309 32.191-53.165 28.162-43.606 70.027-101.887 124.863-160.379 108.662-115.905 274.842-239.399 491.136-239.399s382.469 123.494 491.136 239.399c54.835 58.492 96.696 116.773 124.867 160.379 14.111 21.856 24.873 40.167 32.184 53.165 3.656 6.503 6.461 11.688 8.387 15.334 0.973 1.824 1.72 3.263 2.243 4.293l0.635 1.232 0.184 0.379 0.072 0.129c0.010 0.020 0.041 0.088-49.572 24.893zM1275.74 447.996l49.613-24.805c7.813 15.616 7.793 34.035-0.020 49.651l-49.592-24.845zM665.562 559.465c-61.267 0-110.934-49.666-110.934-110.934s49.667-110.934 110.934-110.934 110.934 49.667 110.934 110.934c0 61.268-49.667 110.934-110.934 110.934zM443.694 448.531c0 122.535 99.333 221.869 221.868 221.869s221.868-99.334 221.868-221.869c0-122.534-99.333-221.868-221.868-221.868s-221.868 99.334-221.868 221.868z" />
<glyph unicode="&#xe918;" glyph-name="Sp_25_Trip" horiz-adv-x="910" d="M390.133 32.614c4.466-6.167 11.199-10.303 18.718-11.509 7.518-1.2 15.205 0.631 21.371 5.097s10.305 11.201 11.507 18.716c1.202 7.521-0.631 15.206-5.098 21.373l-64.172 89.099c78.253-23.108 162.371-15.536 235.239 21.174 54.397 31.733 96.358 81.050 118.983 139.822 35.493 0.256 69.638 13.659 95.824 37.626s42.559 56.786 45.955 92.12c3.391 35.334-6.434 70.673-27.58 99.185-21.146 28.513-52.11 48.175-86.909 55.18-34.799 7.010-70.958 0.873-101.495-17.229-30.532-18.1-53.276-46.879-63.829-80.771-10.547-33.893-8.158-70.494 6.707-102.728 14.865-32.235 41.153-57.812 73.785-71.795-18.404-42.615-49.937-78.239-90.010-101.672-64.991-30.868-139.486-35.083-207.544-11.73l120.718 61.85c6.773 3.47 11.89 9.483 14.227 16.725 2.337 7.236 1.703 15.11-1.764 21.879-3.467 6.775-9.482 11.89-16.722 14.228s-15.112 1.701-21.884-1.764l-180.948-92.678c-3.796-1.815-7.144-4.443-9.801-7.703-2.657-3.265-4.558-7.071-5.567-11.156s-1.098-8.34-0.263-12.464c0.835-4.119 2.574-8.004 5.092-11.378l115.46-159.499zM640.239 471.061c2.372 16.847 9.682 32.613 21.009 45.305s26.163 21.74 42.638 25.999c16.469 4.26 33.832 3.539 49.892-2.070 16.065-5.609 30.1-15.854 40.34-29.441s16.219-29.904 17.18-46.889c0.967-16.985-3.129-33.874-11.759-48.532-8.636-14.658-21.424-26.427-36.75-33.817-15.32-7.39-32.489-10.075-49.34-7.703-22.545 3.226-42.889 15.252-56.593 33.446-13.699 18.192-19.632 41.071-16.509 63.629l-0.108 0.072zM513.783 872.483c-4.466 6.166-11.199 10.305-18.717 11.507s-15.205-0.631-21.372-5.098c-6.166-4.466-10.305-11.199-11.507-18.716s0.631-15.205 5.098-21.371l64.172-89.101c-78.253 23.111-162.371 15.541-235.24-21.169-54.394-31.737-96.357-81.051-118.98-139.822-35.497-0.257-69.638-13.664-95.825-37.628s-42.56-56.786-45.955-92.121c-3.394-35.334 6.431-70.675 27.577-99.187s52.11-48.174 86.91-55.177c34.799-7.009 70.96-0.876 101.496 17.226s53.276 46.882 63.828 80.773c10.551 33.893 8.162 70.494-6.704 102.728s-41.153 57.813-73.783 71.794c18.399 42.617 49.934 78.239 90.006 101.671 64.993 30.873 139.487 35.084 207.545 11.734l-120.717-61.852c-6.773-3.466-11.89-9.481-14.227-16.721s-1.703-15.112 1.764-21.884c3.467-6.772 9.482-11.89 16.722-14.227s15.112-1.703 21.884 1.764l180.949 92.681c3.794 1.812 7.14 4.442 9.802 7.702 2.657 3.261 4.557 7.070 5.564 11.154s1.098 8.34 0.262 12.462c-0.836 4.123-2.571 8.009-5.092 11.378l-115.459 159.501zM263.675 434.038c-2.368-16.847-9.678-32.613-21.006-45.305s-26.166-21.743-42.636-25.998c-16.471-4.261-33.835-3.538-49.897 2.071-16.061 5.604-30.099 15.849-40.337 29.438-10.239 13.587-16.218 29.904-17.183 46.89-0.965 16.984 3.129 33.874 11.763 48.532s21.422 26.427 36.746 33.818c15.323 7.391 32.493 10.072 49.34 7.704 22.544-3.229 42.892-15.255 56.592-33.448s19.637-41.070 16.512-63.629l0.105-0.072z" />
<glyph unicode="&#xe919;" glyph-name="Sp_26_Filter" horiz-adv-x="801" d="M41.941 642.303c-2.215-4.003-3.318-8.525-3.192-13.098s1.473-9.028 3.904-12.903l252.171-401.988v-128.178c0.040-4.563 1.299-9.033 3.647-12.947s5.701-7.128 9.709-9.314l170.74-93.941c3.887-2.146 8.268-3.246 12.707-3.188s8.789 1.269 12.617 3.513c3.829 2.244 7.012 5.449 9.229 9.292 2.217 3.847 3.401 8.205 3.424 12.644v222.119l251.993 401.854c2.435 3.874 3.789 8.33 3.918 12.905s-0.971 9.099-3.188 13.104c-2.213 4.005-5.458 7.343-9.399 9.667-3.945 2.324-8.437 3.549-13.014 3.548h-135.702c-4.857 23.747-17.773 45.087-36.552 60.412s-42.273 23.695-66.515 23.695c-24.238 0-47.736-8.37-66.514-23.695-18.78-15.325-31.691-36.665-36.552-60.412h-341.037c-4.564-0.040-9.035-1.299-12.949-3.648s-7.129-5.701-9.312-9.709l-0.133 0.268zM508.483 688.294c10.574-0.008 20.912-3.117 29.736-8.941s15.743-14.108 19.906-23.827h-99.283c4.163 9.719 11.086 18.003 19.91 23.827s19.162 8.933 29.732 8.941zM700.995 604.281l-231.513-369.042c-2.56-4.083-3.918-8.802-3.918-13.624v-186.19l-119.495 65.759v120.209c0.002 4.822-1.356 9.541-3.918 13.624l-231.513 369.042 590.357 0.222zM335.062 833.295c0 20.808-6.169 41.148-17.729 58.449s-27.991 30.785-47.215 38.748c-19.224 7.963-40.377 10.046-60.785 5.987s-39.154-14.079-53.867-28.792c-14.713-14.713-24.733-33.459-28.792-53.866s-1.976-41.561 5.986-60.785c7.963-19.224 21.447-35.654 38.748-47.214s37.641-17.73 58.449-17.73c27.902 0 54.662 11.084 74.391 30.814s30.813 46.489 30.813 74.391zM175.852 833.295c0 10.681 3.167 21.122 9.101 30.004s14.369 15.803 24.237 19.89c9.868 4.088 20.727 5.157 31.203 3.073s20.098-7.227 27.651-14.78c7.553-7.553 12.697-17.176 14.781-27.652s1.014-21.334-3.073-31.203c-4.088-9.868-11.010-18.302-19.891-24.236s-19.322-9.102-30.003-9.102c-14.323 0-28.060 5.69-38.188 15.818s-15.817 23.864-15.817 38.187z" />
<glyph unicode="&#xe91a;" glyph-name="Sp_27_FutureTime" d="M935.885 483.771c-7.077 0-13.864-2.811-18.864-7.814-5.006-5.004-7.817-11.79-7.817-18.867-0.040-87.949-28.956-173.447-82.295-243.375-53.345-69.922-128.165-120.405-212.975-143.684-84.812-23.285-174.92-18.079-256.487 14.808-81.566 32.893-150.080 91.648-195.019 167.248s-63.816 163.864-53.734 251.232c10.082 87.368 48.567 169.011 109.544 232.388s141.072 104.985 227.986 118.432c86.914 13.447 175.84-2.009 253.117-43.996l-33.337-33.337c-3.715-3.731-6.246-8.479-7.27-13.645s-0.495-10.519 1.519-15.386c2.014-4.866 5.422-9.028 9.796-11.961s9.518-4.505 14.785-4.519h127.602c7.077 0 13.864 2.811 18.864 7.815 5.006 5.003 7.817 11.79 7.817 18.866v127.545c-0.017 5.267-1.587 10.411-4.523 14.785-2.93 4.375-7.094 7.783-11.958 9.797s-10.217 2.542-15.388 1.518c-5.166-1.024-9.91-3.553-13.642-7.27l-55.125-55.125c-95.431 56.257-208.106 75.775-316.9 54.895s-206.236-80.724-274.061-168.313c-67.824-87.59-101.372-196.91-94.356-307.466 7.017-110.558 54.116-214.756 132.469-293.069 63.655-63.613 144.739-106.928 233.005-124.467s179.747-8.516 262.89 25.924c83.137 34.446 154.203 92.763 204.203 167.583s76.703 162.788 76.72 252.779c0 7.056-2.793 13.826-7.777 18.826-4.978 5.001-11.736 7.824-18.79 7.855zM678.81 483.78h-144.726v144.668c0.167 3.603-0.4 7.203-1.664 10.582s-3.201 6.466-5.692 9.075c-2.491 2.609-5.485 4.685-8.802 6.104s-6.887 2.151-10.495 2.151c-3.607 0-7.177-0.732-10.494-2.151s-6.312-3.495-8.803-6.104c-2.491-2.609-4.428-5.697-5.692-9.075s-1.83-6.979-1.663-10.582v-171.349c0-7.076 2.811-13.863 7.814-18.866s11.79-7.814 18.867-7.814h171.35c3.601-0.167 7.202 0.399 10.581 1.663s6.468 3.201 9.074 5.692c2.611 2.491 4.688 5.486 6.104 8.803 1.422 3.317 2.15 6.886 2.15 10.494s-0.728 7.178-2.15 10.495c-1.417 3.317-3.493 6.311-6.104 8.802-2.606 2.491-5.695 4.428-9.074 5.692s-6.98 1.831-10.581 1.664v0.057z" />
<glyph unicode="&#xe91b;" glyph-name="Sp_28_Clock" d="M952.047 657.492c-24.542 59.041-60.493 112.658-105.804 157.774-45.306 45.117-99.074 80.846-158.218 105.138-60.974 26.204-126.658 39.677-193.024 39.595-66.179 0.144-131.68-13.334-192.427-39.595-119.164-49.318-213.92-143.86-263.509-262.912-25.781-60.983-39.065-126.518-39.065-192.725s13.284-131.744 39.065-192.725c49.553-119.214 144.295-213.955 263.509-263.508 60.746-26.266 126.247-39.74 192.427-39.595 66.366-0.077 132.049 13.397 193.024 39.595 59.171 24.405 112.946 60.245 158.251 105.463s81.247 98.923 105.772 158.046c26.112 60.897 39.578 126.466 39.578 192.725s-13.466 131.828-39.578 192.725zM872.943 246.015c-38.248-66.119-93.223-121.006-159.404-159.146-66.226-38.81-141.695-59.034-218.453-58.539-58.174-0.265-115.768 11.563-169.131 34.731-51.745 21.905-98.86 53.439-138.837 92.927-39.509 40.102-70.967 87.405-92.672 139.349-22.857 53.649-34.474 111.414-34.133 169.728-0.581 76.54 19.463 151.823 58.026 217.941 38.129 65.917 92.889 120.675 158.805 158.805 65.994 38.842 141.282 59.072 217.856 58.538 76.758 0.493 152.227-19.731 218.453-58.538 66.105-38.089 121.067-92.844 159.404-158.805 38.852-66.021 59.085-141.338 58.539-217.941 0.546-76.954-19.678-152.629-58.539-219.051h0.085zM499.937 469.33v280.832c-0.223 8.178-3.648 15.943-9.536 21.624s-13.772 8.824-21.954 8.754c-7.939-0.2-15.487-3.482-21.047-9.154s-8.692-13.284-8.735-21.225v-285.185c0.502-1.414 0.873-2.87 1.11-4.351-0.616-4.454-0.164-8.99 1.32-13.233s3.957-8.073 7.213-11.172l162.133-162.134c5.687-5.235 13.135-8.141 20.864-8.141s15.178 2.906 20.865 8.141c2.914 2.737 5.235 6.042 6.823 9.712s2.406 7.625 2.406 11.622c0 3.998-0.818 7.954-2.406 11.622s-3.909 6.974-6.823 9.711l-152.235 152.577z" />
<glyph unicode="&#xe91c;" glyph-name="Sp_29_RightArrow" horiz-adv-x="1536" d="M950.912 945.305c-9.452 9.411-22.246 14.695-35.584 14.695s-26.132-5.284-35.584-14.695c-4.571-4.534-8.198-9.927-10.674-15.87s-3.75-12.317-3.75-18.754c0-6.438 1.275-12.812 3.75-18.754s6.103-11.336 10.674-15.87l360.832-354.56h-1190.784c-6.487 0.084-12.926-1.116-18.947-3.533-6.021-2.415-11.503-5.999-16.132-10.546-4.629-4.545-8.312-9.962-10.837-15.937s-3.842-12.393-3.876-18.88c0-6.533 1.289-13.001 3.793-19.035s6.174-11.515 10.799-16.128c4.625-4.614 10.115-8.269 16.156-10.757s12.512-3.761 19.045-3.744h1190.4l-360.448-353.92c-9.239-9.283-14.426-21.847-14.426-34.944s5.187-25.661 14.426-34.944c9.452-9.411 22.246-14.694 35.584-14.694s26.132 5.284 35.584 14.694l446.336 438.528c4.71 4.451 8.474 9.818 11.034 15.771 2.573 5.955 3.891 12.37 3.891 18.853s-1.318 12.899-3.891 18.853c-2.56 5.953-6.323 11.32-11.034 15.771l-446.336 438.4z" />
<glyph unicode="&#xe91d;" glyph-name="Sp_30_CloseMark" d="M99.228-13.67c-10.198 0-25.496 5.099-35.694 15.297-20.397 20.397-20.397 50.991 0 71.388l846.457 846.457c20.397 20.397 50.991 20.397 71.388 0s25.496-56.090 5.099-76.487l-846.457-846.457c-10.198-10.198-25.496-15.297-40.793-10.198zM920.189-39.166c-10.198 0-25.496 5.099-35.694 15.297l-846.457 846.457c-20.397 20.397-20.397 50.991 0 71.388s56.090 25.496 76.487 5.099l846.457-846.457c20.397-20.397 20.397-50.991 0-71.388-10.198-20.397-20.397-20.397-40.793-20.397z" />
<glyph unicode="&#xe91e;" glyph-name="Sp_31_ParallelArrow" horiz-adv-x="1210" d="M548.963 273.307c5.357 5.247 8.412 12.406 8.49 19.905s-2.824 14.72-8.071 20.078c-5.247 5.357-12.406 8.412-19.905 8.49s-14.72-2.824-20.078-8.071l-202.566-202.938v668.393c0 7.407-2.942 14.51-8.18 19.747s-12.34 8.18-19.747 8.18c-7.406 0-14.51-2.943-19.747-8.18s-8.18-12.34-8.18-19.747v-668.393l-202.752 202.938c-5.35 5.193-12.513 8.096-19.968 8.096s-14.618-2.904-19.968-8.096c-2.66-2.601-4.773-5.706-6.216-9.136s-2.186-7.112-2.186-10.832c0-3.72 0.743-7.403 2.186-10.832s3.556-6.535 6.216-9.136l250.507-250.882c2.594-2.597 5.678-4.664 9.073-6.079 3.394-1.406 7.034-2.132 10.709-2.132s7.315 0.726 10.71 2.132c3.394 1.415 6.477 3.482 9.072 6.079l250.601 250.416zM571.128 701.238c-5.357-5.247-8.411-12.406-8.49-19.905s2.825-14.72 8.071-20.078c5.247-5.357 12.407-8.412 19.905-8.49s14.72 2.824 20.078 8.071l202.566 202.938v-668.393c0-7.407 2.943-14.51 8.18-19.747s12.341-8.18 19.747-8.18c7.407 0 14.511 2.943 19.748 8.18s8.179 12.34 8.179 19.747v668.393l202.756-202.938c5.343-5.193 12.511-8.096 19.968-8.096s14.615 2.904 19.968 8.096c2.653 2.601 4.766 5.706 6.209 9.136s2.188 7.112 2.188 10.832c0 3.72-0.745 7.403-2.188 10.832s-3.556 6.535-6.209 9.136l-250.511 250.88c-2.594 2.604-5.677 4.669-9.072 6.079s-7.034 2.135-10.71 2.135c-3.675 0-7.315-0.726-10.709-2.135s-6.477-3.475-9.073-6.079l-250.601-250.414z" />
<glyph unicode="&#xe91f;" glyph-name="Sp_32_DownIndicator" horiz-adv-x="1755" d="M1586.308 871.116c-4.93 5.011-10.825 8.99-17.32 11.706s-13.444 4.116-20.495 4.116c-7.036 0-14-1.4-20.495-4.116s-12.376-6.694-17.306-11.706l-665.458-675.996-666.766 675.996c-4.93 5.029-10.819 9.023-17.313 11.75-6.492 2.727-13.466 4.134-20.509 4.134s-14.016-1.407-20.509-4.134c-6.493-2.727-12.373-6.721-17.304-11.75-10.042-10.23-15.67-23.991-15.67-38.326s5.627-28.097 15.67-38.326l703.337-713.153c4.898-5.097 10.789-9.143 17.304-11.884s13.521-4.122 20.588-4.062c14.232 0.142 27.834 5.869 37.884 15.947l703.336 713.153c5.164 4.93 9.289 10.835 12.142 17.38s4.374 13.594 4.462 20.732c0.102 7.138-1.214 14.222-3.891 20.84s-6.656 12.635-11.688 17.701z" />
<glyph unicode="&#xe920;" glyph-name="Sp_33_Share" horiz-adv-x="788" d="M631.439 907.308c-39.78-0.125-77.895-15.982-106.023-44.11s-43.986-66.245-44.111-106.024c0.054-14.195 2.15-28.307 6.223-41.904l-243.712-140.76c-22.111 17.615-48.742 28.633-76.835 31.788s-56.506-1.68-81.973-13.952c-25.467-12.271-46.955-31.48-61.992-55.418s-23.015-51.635-23.015-79.904c0-28.269 7.977-55.966 23.015-79.904s36.525-43.147 61.992-55.418c25.467-12.271 53.881-17.108 81.973-13.952s54.725 14.173 76.835 31.789l243.397-140.76c-4.102-13.7-6.198-27.921-6.223-42.225-0.098-35.454 12.327-69.813 35.084-97.012 22.756-27.191 54.383-45.481 89.305-51.641 34.922-6.152 70.897 0.213 101.582 17.991 30.685 17.77 54.111 45.804 66.148 79.155 12.036 33.359 11.911 69.893-0.355 103.165s-35.883 61.145-66.69 78.707c-30.807 17.561-66.825 23.681-101.704 17.284s-66.379-24.904-88.948-52.255l-232.448 133.908c11.761 21.778 17.92 46.143 17.92 70.894s-6.159 49.111-17.92 70.89c70.341 44.82 161.871 89.404 232.763 133.908 16.091-19.529 36.857-34.674 60.369-44.029s49.007-12.618 74.116-9.481c25.109 3.137 49.018 12.571 69.505 27.423s36.888 34.646 47.679 57.534c10.791 22.889 15.622 48.13 14.044 73.385s-9.515 49.701-23.072 71.067c-13.557 21.367-32.295 38.963-54.472 51.149s-47.074 18.566-72.379 18.553l-0.079 0.159zM631.439 847.206c17.822 0 35.245-5.285 50.063-15.187s26.369-23.976 33.189-40.442c6.82-16.466 8.605-34.583 5.128-52.063s-12.060-33.538-24.662-46.14c-12.602-12.602-28.659-21.182-46.139-24.659s-35.598-1.695-52.064 5.126c-16.466 6.82-30.54 18.368-40.441 33.187s-15.187 32.245-15.187 50.067c-0.063 11.852 2.225 23.597 6.732 34.558s11.142 20.918 19.522 29.298c8.379 8.38 18.339 15.018 29.3 19.524s22.707 6.794 34.558 6.731zM150.946 546.861c17.822 0 35.245-5.286 50.063-15.187s26.369-23.977 33.189-40.442c6.82-16.466 8.605-34.583 5.128-52.063s-12.060-33.537-24.662-46.14c-12.602-12.602-28.659-21.187-46.139-24.663s-35.598-1.69-52.064 5.13c-16.466 6.82-30.54 18.368-40.441 33.187s-15.187 32.245-15.187 50.067c-0.063 11.845 2.223 23.583 6.724 34.539s11.13 20.909 19.501 29.289c8.372 8.379 18.322 15.017 29.274 19.528s22.689 6.807 34.534 6.755h0.079zM631.439 246.515c17.822 0 35.245-5.286 50.063-15.187s26.369-23.977 33.189-40.442c6.82-16.466 8.605-34.583 5.128-52.062s-12.060-33.54-24.662-46.143c-12.602-12.603-28.659-21.181-46.139-24.663-17.48-3.474-35.598-1.686-52.064 5.128-16.466 6.821-30.54 18.369-40.441 33.193-9.902 14.816-15.187 32.24-15.187 50.058-0.063 11.855 2.225 23.599 6.732 34.561s11.142 20.923 19.522 29.302c8.379 8.38 18.339 15.013 29.3 19.52s22.707 6.798 34.558 6.736z" />
<glyph unicode="&#xe921;" glyph-name="Sp_34_Adult" horiz-adv-x="838" d="M198.934 807.030c9.23 8.945 23.963 8.714 32.909-0.516 34.557-35.658 75.927-64.007 121.654-83.365s94.877-29.328 144.53-29.32h0.065c50.106-0.133 99.719 9.894 145.841 29.474 11.832 5.023 25.493-0.496 30.515-12.328 5.027-11.831-0.493-25.494-12.325-30.517-51.903-22.035-107.734-33.321-164.124-33.176-55.876-0.004-111.188 11.218-162.647 33.003v0c-51.47 21.789-98.036 53.699-136.933 93.835-8.945 9.23-8.714 23.963 0.516 32.909zM497.999 647.284c-0.009 0-0.019 0-0.028 0l0.061 23.273 0.005-23.273c-0.014 0-0.023 0-0.037 0zM158.344 670.302c0 143.904 116.657 260.562 260.561 260.562s260.561-116.657 260.561-260.562c0-143.903-116.657-260.562-260.561-260.562s-260.561 116.659-260.561 260.562zM418.905 884.318c-118.198 0-214.016-95.818-214.016-214.016s95.818-214.017 214.016-214.017c118.197 0 214.015 95.819 214.015 214.017s-95.818 214.016-214.015 214.016zM441.748 370.981c12.543 2.811 24.987-5.083 27.794-17.622l52.689-235.287c1.871-8.406 1.597-17.171-0.801-25.428-2.402-8.239-6.838-15.788-12.935-21.89l-53.154-53.155c-4.763-4.771-10.411-8.541-16.618-11.115-6.224-2.579-12.887-3.901-19.608-3.901s-13.384 1.322-19.608 3.901c-6.201 2.574-11.846 6.339-16.606 11.101l-53.155 53.155c-6.077 6.093-10.54 13.638-12.941 21.895-2.402 8.262-2.682 16.998-0.815 25.395 0 0.005 0 0 0 0l52.271 235.287c2.788 12.549 15.219 20.461 27.766 17.673s20.46-15.22 17.672-27.764l-52.271-235.287c-0.169-0.763-0.145-1.564 0.073-2.309 0.218-0.749 0.622-1.438 1.174-1.992 0.001 0-0.001 0.005 0 0l53.14-53.136c0.424-0.428 0.947-0.782 1.521-1.019 0.557-0.233 1.161-0.354 1.781-0.354s1.224 0.121 1.781 0.354c0.574 0.237 1.085 0.582 1.511 1.005l53.153 53.155c0 0 0 0 0 0 0.54 0.54 0.95 1.229 1.178 1.997 0.219 0.759 0.237 1.527 0.070 2.281 0 0.005 0 0 0 0l-52.684 235.264c-2.809 12.544 5.082 24.99 17.625 27.797zM171.733 289.797c71.461 53.146 158.143 81.841 247.196 81.841s175.736-28.695 247.197-81.841c71.457-53.136 123.895-127.888 149.523-213.178 3.7-12.311-3.277-25.288-15.588-28.984-12.311-3.7-25.288 3.277-28.989 15.588-22.747 75.702-69.292 142.057-132.724 189.226v0c-63.427 47.169-140.372 72.643-219.419 72.643s-155.989-25.474-219.42-72.643h-0.001c-63.431-47.169-109.973-113.524-132.726-189.226-3.699-12.311-16.677-19.288-28.987-15.588-12.309 3.696-19.289 16.677-15.589 28.984 25.633 85.29 78.066 160.042 149.527 213.178z" />
<glyph unicode="&#xe922;" glyph-name="Sp_35_Child" horiz-adv-x="910" d="M270.631 368.338c4.267 0.017 8.496-0.802 12.443-2.412s7.534-3.977 10.556-6.969c3.364-3.18 7.85-4.932 12.496-4.875s9.086 1.911 12.372 5.177c3.286 3.26 5.157 7.674 5.214 12.288s-1.706 9.062-4.91 12.407c-6.328 6.281-13.842 11.269-22.11 14.671s-17.132 5.153-26.082 5.153c-8.951 0-17.814-1.751-26.083-5.153s-15.782-8.39-22.11-14.671c-1.72-1.627-3.094-3.578-4.043-5.74s-1.452-4.489-1.481-6.849c-0.029-2.355 0.418-4.699 1.313-6.884 0.895-2.179 2.222-4.164 3.901-5.831s3.677-2.987 5.876-3.874c2.199-0.887 4.556-1.331 6.93-1.303s4.719 0.529 6.896 1.468c2.177 0.944 4.142 2.31 5.779 4.016 3.025 2.998 6.62 5.376 10.576 6.986s8.194 2.423 12.469 2.395zM591.132 383.989c-3.203-3.339-4.966-7.794-4.91-12.407s1.929-9.023 5.211-12.282c3.288-3.265 7.731-5.12 12.373-5.177 4.648-0.057 9.131 1.695 12.498 4.875 6.11 6.059 14.387 9.455 23.023 9.455 8.63 0 16.913-3.396 23.017-9.455 3.368-3.18 7.851-4.932 12.498-4.875s9.085 1.911 12.373 5.177c3.282 3.26 5.154 7.669 5.211 12.282s-1.707 9.068-4.91 12.407c-12.794 12.673-30.123 19.789-48.191 19.789-18.074 0-35.402-7.116-48.196-19.789zM585.375 259.231c-68.998-100.915-181.299-100.915-250.294 0-0.762 1.61-1.971 2.97-3.485 3.925s-3.269 1.462-5.063 1.462c-1.793 0-3.549-0.506-5.063-1.462s-2.722-2.315-3.485-3.925c-2.316-3.766-3.542-8.090-3.542-12.498s1.226-8.738 3.542-12.498c13.487-25.913 33.893-47.644 58.985-62.817 25.092-15.167 53.902-23.194 83.279-23.194s58.188 8.027 83.28 23.194c25.092 15.172 45.497 36.904 58.986 62.817 2.315 3.76 3.538 8.090 3.538 12.498s-1.223 8.732-3.538 12.498c-0.757 1.621-1.968 2.998-3.487 3.959s-3.282 1.473-5.086 1.473c-1.803 0-3.567-0.512-5.086-1.473s-2.725-2.338-3.482-3.959zM875.201 349.315c-0.023 22.932-8.129 45.134-22.915 62.753s-35.311 29.543-58.027 33.705v295.803c0.028 18.269-4.363 36.278-12.8 52.514s-20.673 30.224-35.681 40.79c-15.007 10.567-32.353 17.403-50.574 19.934s-36.79 0.686-54.141-5.384l-111.781 37.514c-84.316 28.937-175.458 31.96-261.531 8.676-111.498-30.528-175.44-95.147-185.31-186.964-8.827-11.532-15.716-24.406-20.401-38.124l-8.689-25.51c-2.213-6.523-2.155-13.595 0.164-20.081s6.765-12.011 12.625-15.688c5.86-3.677 12.793-5.294 19.689-4.589s13.353 3.687 18.336 8.471c3.5 3.347 7.383 6.274 11.57 8.722v-176.084c-23.179-4.242-44.064-16.577-58.884-34.775s-22.595-41.061-21.922-64.453c0.673-23.393 9.75-45.778 25.592-63.107s37.402-28.462 60.787-31.38c12.351-67.408 44.946-129.525 93.505-178.193 31.241-31.858 68.596-57.173 109.858-74.45s85.594-26.163 130.375-26.135c79.813 0.023 157.062 27.972 218.183 78.939s102.201 121.691 116.025 199.743c23.78 3.118 45.608 14.711 61.423 32.62 15.809 17.909 24.525 40.914 24.525 64.734zM723.143 807.273c10.985-7.108 19.996-16.847 26.203-28.319s9.404-24.31 9.307-37.332v-231.465c-27.204 4.253-51.991 18.003-69.905 38.779-17.909 20.776-27.767 47.214-27.802 74.562l-1.468 194.419c10.763 2.843 22.010 3.363 32.996 1.527 10.98-1.836 21.436-5.986 30.669-12.172zM92.36 649.008l3.447 10.176c4.485 13.196 11.723 25.304 21.241 35.533s21.101 18.351 33.994 23.834c12.893 5.483 26.805 8.204 40.829 7.986s27.844-3.371 40.557-9.253c26.482-12.103 56.177-15.446 84.716-9.537s54.414 20.758 73.817 42.362l4.392 4.97c1.55 1.74 2.741 3.765 3.503 5.962s1.081 4.52 0.938 6.839c-0.142 2.319-0.744 4.587-1.769 6.675s-2.455 3.955-4.207 5.495c-1.752 1.539-3.792 2.722-6.004 3.478s-4.552 1.073-6.888 0.931c-2.335-0.141-4.619-0.738-6.722-1.756s-3.983-2.438-5.534-4.177l-4.392-4.97c-14.306-15.913-33.378-26.847-54.409-31.194s-42.912-1.878-62.425 7.043c-17.25 7.968-35.997 12.241-55.020 12.539s-37.897-3.382-55.392-10.804c-3.211-1.36-6.328-2.907-9.445-4.689 13.602 29.847 34.35 55.936 60.435 75.994s56.715 33.475 89.221 39.082c79.186 21.424 163.038 18.646 240.61-7.972l106.018-35.732 1.371-91.348c-46.894-63.673-116.415-107.259-194.471-121.922-79.913-15.265-162.672 0.965-230.74 45.252-15.995 10.509-34.781 16.046-53.959 15.904s-37.878-5.956-53.713-16.701zM70.447 349.36c0.013 13.54 4.434 26.715 12.604 37.558s19.652 18.773 32.732 22.606v-95.85c0-8.283 0.299-16.521 0.897-24.713-13.278 3.681-24.981 11.571-33.327 22.465s-12.878 24.201-12.906 37.888v0.046zM669.685 97.075c-28.126-28.075-61.571-50.335-98.418-65.496-36.84-15.155-76.343-22.903-116.221-22.807-40.015-0.046-79.635 7.862-116.523 23.256-36.887 15.4-70.296 37.979-98.255 66.406-57.077 57.242-89.013 134.593-88.83 215.148v316.574c10.381-0.78 20.391-4.169 29.090-9.847 75.786-49.309 167.931-67.374 256.903-50.363 71.799 13.451 137.523 48.985 187.858 101.571v-47.972c0.011-36.731 13.585-72.183 38.155-99.64s58.431-45.013 95.164-49.34v-164.128c0.131-39.634-7.657-78.905-22.921-115.53-15.269-36.625-37.7-69.882-66.002-97.832zM793.554 288.961c0.421 7.083 0.705 14.069 0.705 21.288v99.135c13.13-3.848 24.65-11.829 32.814-22.738 8.164-10.917 12.538-24.166 12.459-37.763-0.085-13.591-4.608-26.795-12.902-37.609s-19.9-18.665-33.075-22.357v0.046z" />
<glyph unicode="&#xe923;" glyph-name="Sp_36_Infant" horiz-adv-x="1216" d="M1152 361.358c-0.090 29.861-10.63 58.749-29.798 81.65-19.162 22.9-45.741 38.367-75.123 43.716v18.894c0 57.651-11.354 114.738-33.414 168.001s-54.4 101.658-95.162 142.424c-40.768 40.765-89.165 73.103-142.426 95.165-53.267 22.062-110.349 33.417-168.002 33.417-57.651 0-114.738-11.355-168.001-33.417s-101.658-54.399-142.424-95.165c-40.765-40.765-73.103-89.161-95.165-142.424s-33.418-110.349-33.418-168.001v-18.894c-29.584-5.261-56.356-20.812-75.582-43.903s-29.67-52.238-29.484-82.286c0.186-30.048 10.99-59.063 30.501-81.911 19.511-22.854 46.474-38.074 76.121-42.97 1.819-43.808 14.925-86.413 38.048-123.674 23.123-37.254 55.478-67.91 93.932-88.992 95.366-44.826 200.446-65.043 305.637-58.79 105.192-6.246 210.274 13.965 305.64 58.79 38.451 21.082 70.803 51.738 93.926 88.992 23.123 37.261 36.23 79.866 38.048 123.674 29.664 5.107 56.57 20.512 75.987 43.507s30.093 52.101 30.157 82.196zM108.886 361.358c-0.013 17.958 5.827 35.43 16.637 49.77s26 24.765 43.267 29.695v-158.596c-17.223 4.902-32.385 15.277-43.201 29.549s-16.697 31.674-16.76 49.582h0.056zM1002.067 271.11c3.558-41.741-4.973-83.629-24.57-120.659-19.603-37.030-49.44-67.635-85.958-88.173-88.627-40.851-186.010-59.072-283.409-53.018-97.402-6.054-194.783 12.166-283.409 53.018-36.56 20.493-66.449 51.078-86.098 88.096-19.649 37.024-28.227 78.918-24.71 120.678v234.566c0.099 84.73 27.452 167.181 78.017 235.169s121.661 117.905 202.781 142.376c45.519 3.338 90.579-10.954 125.852-39.917 35.277-28.964 58.061-70.381 63.642-115.68-0.013-23.812-9.478-46.645-26.317-63.483s-39.671-26.304-63.484-26.319c-17.839 0.029-34.939 7.129-47.553 19.743s-19.714 29.714-19.743 47.553c0.015 13.083 5.219 25.626 14.47 34.877s21.794 14.455 34.877 14.47c5.962 0 11.679 2.368 15.895 6.584s6.584 9.933 6.584 15.894c0 5.962-2.369 11.679-6.584 15.894s-9.933 6.584-15.895 6.584c-25.055 0-49.084-9.953-66.8-27.67s-27.67-41.745-27.67-66.8c0.029-29.777 11.871-58.326 32.927-79.381s49.604-32.897 79.381-32.927c35.727 0.044 69.976 14.256 95.243 39.519 25.261 25.263 39.469 59.513 39.514 95.24-1.062 25.431-7.155 50.399-17.92 73.463-10.771 23.063-26.003 43.764-44.819 60.906-15.821 15.009-33.712 27.677-53.123 37.621 103.587-1.459 202.448-43.603 275.229-117.329s113.645-173.122 113.766-276.721l-0.115-234.175zM1047.027 282.227v158.596c17.267-4.885 32.467-15.273 43.296-29.586 10.822-14.312 16.678-31.768 16.678-49.713s-5.856-35.401-16.678-49.716c-10.829-14.31-26.029-24.698-43.296-29.581zM424.356 435.072c0-23.847-19.332-43.178-43.178-43.178s-43.178 19.331-43.178 43.178c0 23.846 19.332 43.178 43.178 43.178s43.178-19.332 43.178-43.178zM877.856 435.072c0-23.847-19.328-43.178-43.181-43.178-23.846 0-43.174 19.331-43.174 43.178s19.328 43.178 43.174 43.178c23.853 0 43.181-19.332 43.181-43.178zM607.865 198.989c32.621 0 63.911 12.947 86.996 35.987 4.218 4.218 9.933 6.586 15.891 6.586 5.965 0 11.68-2.368 15.898-6.586 4.211-4.211 6.579-9.926 6.579-15.891 0-5.958-2.368-11.674-6.579-15.891-31.533-31.45-74.253-49.107-118.785-49.107-44.533 0-87.249 17.658-118.781 49.107-4.215 4.218-6.584 9.933-6.584 15.891 0 5.965 2.369 11.68 6.584 15.891 4.215 4.218 9.932 6.586 15.892 6.586s11.679-2.368 15.894-6.586c23.088-23.040 54.375-35.987 86.995-35.987zM1122.202 443.008v0zM1152 361.358l9.811-0.020v0.049l-9.811-0.029zM1047.078 486.724h-9.811v-8.189l8.058-1.467 1.754 9.656zM1013.664 673.619v0zM918.502 816.043v0zM776.077 911.208v0zM440.074 911.208v0zM297.651 816.043v0zM202.486 673.619v0zM169.068 486.724l1.719-9.663 8.097 1.439v8.224h-9.816zM93.486 442.821v0zM64.003 360.535v0zM94.504 278.624v0zM170.625 235.654l9.807 0.41-0.331 7.974-7.878 1.306-1.598-9.69zM208.673 111.981v0zM302.604 22.989l-4.727-8.621 0.552-0.262 4.175 8.883zM608.241-35.802l0.582 9.798-0.582 0.032-0.582-0.032 0.582-9.798zM913.882 22.989l4.179-8.902 0.538 0.294-4.717 8.608zM1007.808 111.981v0zM1045.856 235.654l-1.664 9.677-7.814-1.344-0.326-7.923 9.805-0.41zM1121.843 279.162v0zM125.523 411.128v0zM108.886 361.358v-9.816h9.823l-0.008 9.823-9.815-0.007zM168.79 440.824h9.816v13.010l-12.511-3.572 2.695-9.438zM168.79 282.227l-2.688-9.44 12.504-3.565v13.005h-9.816zM125.59 311.776v0zM108.83 361.358v9.815h-9.85l0.035-9.85 9.815 0.035zM1002.067 271.11l-9.85 0.006 0.070-0.838 9.779 0.832zM891.539 62.278l4.122-8.941 0.691 0.384-4.813 8.557zM608.131 9.261l0.609 9.798-0.609 0.038-0.609-0.038 0.609-9.798zM324.721 62.278l-4.815-8.589 0.706-0.326 4.109 8.915zM213.914 271.053l9.816-0.826v0.826h-9.816zM213.914 505.619l-9.815 0.012v-0.012h9.815zM291.93 740.788v0zM494.711 883.164l-0.717 9.789-1.080-0.079-1.037-0.313 2.835-9.397zM684.205 727.567l9.818-0.006v0.605l-0.077 0.601-9.741-1.201zM657.888 664.084v0zM594.404 637.765l-0.016-9.816h0.022l-0.006 9.816zM527.108 705.061l-9.815 0.011v-0.028l9.815 0.017zM541.578 739.938v0zM576.455 754.408v9.815h-0.011l0.011-9.815zM592.35 760.991v0zM592.35 792.78v0zM509.655 771.694v0zM481.985 704.894v0zM594.293 592.586l-0.010-9.815h0.022l-0.012 9.815zM689.536 632.105v0zM729.050 727.345l9.824-0.012-0.013 0.422-9.811-0.41zM666.31 861.714l-6.752-7.123 0.141-0.132 6.611 7.256zM613.187 899.335l0.138 9.814-4.613-18.55 4.475 8.735zM1002.182 505.285l9.811-0.004v0.016l-9.811-0.012zM1047.027 440.824l2.669 9.444-12.486 3.533v-12.977h9.818zM1047.027 282.227h-9.818v-12.979l12.486 3.533-2.669 9.446zM1090.323 411.238v0zM1090.323 311.808v0zM694.861 234.976l6.931-6.944 0.006 0.006-6.938 6.938zM726.65 234.976v0zM726.65 203.194l6.931-6.95 0.006 0.013-6.938 6.938zM489.084 203.194l-6.941-6.938 0.010-0.013 6.931 6.95zM489.084 234.976v0zM520.87 234.976l-6.94-6.938 0.006-0.006 6.934 6.944zM1114.675 436.708c17.696-21.142 27.424-47.811 27.507-75.38l19.629 0.058c-0.090 32.155-11.443 63.261-32.083 87.921l-15.053-12.599zM1045.325 477.068c27.123-4.938 51.661-19.218 69.35-40.36l15.053 12.599c-20.634 24.659-49.254 41.314-80.89 47.074l-3.514-19.313zM1037.267 505.619v-18.894h19.629v18.894h-19.629zM1004.595 669.863c21.568-52.072 32.672-107.882 32.672-164.244h19.629c0 58.94-11.61 117.303-34.163 171.757l-18.138-7.512zM911.558 809.103c39.853-39.854 71.469-87.168 93.037-139.24l18.138 7.512c-22.554 54.454-55.616 103.932-97.293 145.608l-13.882-13.881zM772.32 902.139c52.070-21.569 99.386-53.183 139.238-93.037l13.882 13.881c-41.677 41.677-91.155 74.737-145.606 97.292l-7.514-18.136zM608.075 934.81c56.36 0 112.175-11.101 164.245-32.67l7.514 18.136c-54.458 22.555-112.819 34.164-171.759 34.164v-19.631zM443.83 902.139c52.072 21.569 107.882 32.67 164.244 32.67v19.631c-58.94 0-117.303-11.609-171.757-34.164l7.512-18.136zM304.591 809.103c39.854 39.854 87.168 71.468 139.24 93.037l-7.512 18.136c-54.454-22.555-103.931-55.615-145.608-97.292l13.881-13.881zM211.554 669.863c21.569 52.072 53.183 99.386 93.037 139.24l-13.881 13.881c-41.677-41.677-74.737-91.155-97.292-145.608l18.136-7.512zM178.884 505.619c0 56.362 11.101 112.172 32.67 164.244l-18.136 7.512c-22.556-54.454-34.164-112.817-34.164-171.757h19.631zM178.884 486.724v18.894h-19.631v-18.894h19.631zM101.029 436.541c17.745 21.312 42.453 35.665 69.758 40.52l-3.437 19.327c-31.864-5.666-60.699-22.415-81.407-47.287l15.086-12.561zM73.818 360.596c-0.172 27.732 9.467 54.632 27.212 75.945l-15.086 12.561c-20.708-24.872-31.956-56.264-31.756-88.627l19.63 0.122zM101.968 284.992c-18.008 21.094-27.978 47.872-28.15 75.604l-19.63-0.122c0.201-32.364 11.837-63.617 32.851-88.225l14.929 12.742zM172.223 245.344c-27.362 4.512-52.247 18.56-70.255 39.648l-14.929-12.742c21.015-24.614 50.055-41.005 81.987-46.278l3.197 19.373zM217.012 117.158c-22.232 35.821-34.832 76.781-36.581 118.906l-19.614-0.813c1.889-45.504 15.501-89.747 39.516-128.442l16.68 10.349zM307.322 31.597c-36.97 20.269-68.078 49.741-90.31 85.562l-16.68-10.349c24.014-38.701 57.618-70.534 97.553-92.429l9.436 17.216zM607.66-26.003c-103.554-6.157-206.998 13.747-300.88 57.875l-8.351-17.766c96.851-45.523 203.566-66.054 310.395-59.706l-1.164 19.597zM909.702 31.872c-93.882-44.128-197.325-64.026-300.879-57.875l-1.164-19.597c106.83-6.349 213.544 14.182 310.395 59.706l-8.352 17.766zM999.469 117.158c-22.227-35.821-53.338-65.293-90.31-85.562l9.44-17.216c39.936 21.894 73.536 53.728 97.555 92.429l-16.685 10.349zM1036.051 236.064c-1.747-42.125-14.349-83.085-36.582-118.906l16.685-10.349c24.013 38.694 37.626 82.938 39.514 128.442l-19.616 0.813zM1114.342 285.491c-17.926-21.229-42.765-35.45-70.15-40.16l3.328-19.347c31.942 5.498 60.915 22.086 81.824 46.842l-15.002 12.666zM1142.182 361.378c-0.058-27.784-9.914-54.658-27.84-75.887l15.002-12.666c20.902 24.762 32.403 56.106 32.467 88.512l-19.629 0.040zM117.685 417.037c-12.095-16.044-18.63-35.594-18.615-55.686l19.631 0.015c-0.012 15.823 5.135 31.219 14.66 43.855l-15.676 11.817zM166.095 450.262c-19.32-5.517-36.315-17.181-48.41-33.225l15.676-11.817c9.525 12.635 22.909 21.821 38.125 26.165l-5.39 18.877zM178.606 282.227v158.596h-19.631v-158.596h19.631zM117.767 305.843c12.1-15.968 29.065-27.571 48.335-33.056l5.377 18.88c-15.176 4.32-28.536 13.459-38.066 26.035l-15.646-11.859zM99.015 361.324c0.070-20.036 6.651-39.507 18.752-55.48l15.646 11.859c-9.53 12.577-14.713 27.91-14.768 43.69l-19.63-0.068zM108.886 371.173h-0.056v-19.631h0.056v19.631zM986.17 145.862c20.48 38.688 29.395 82.458 25.677 126.080l-19.558-1.664c3.398-39.866-4.749-79.872-23.469-115.238l17.35-9.178zM896.352 53.722c38.157 21.459 69.338 53.446 89.818 92.141l-17.35 9.178c-18.72-35.36-47.213-64.595-82.093-84.205l9.626-17.114zM607.521-0.531c99.026-6.157 198.028 12.358 288.127 53.894l-8.218 17.83c-87.149-40.173-182.912-58.086-278.691-52.134l-1.218-19.59zM320.612 53.363c90.102-41.536 189.104-60.051 288.127-53.894l-1.218 19.59c-95.78-5.952-191.54 11.962-278.691 52.134l-8.218-17.83zM229.953 145.773c20.532-38.682 51.764-70.643 89.969-92.058l9.599 17.126c-34.916 19.571-63.462 48.781-82.227 84.134l-17.34-9.203zM204.133 271.878c-3.676-43.642 5.288-87.418 25.82-126.106l17.34 9.203c-18.765 35.36-26.958 75.366-23.599 115.258l-19.562 1.645zM204.099 505.619v-234.566h19.631v234.566h-19.631zM284.054 746.645c-51.823-69.677-79.855-154.179-79.956-241.015l19.631-0.023c0.095 82.624 26.769 163.025 76.077 229.323l-15.752 11.715zM491.876 892.561c-83.136-25.079-155.999-76.238-207.822-145.916l15.752-11.715c49.309 66.298 118.637 114.975 197.74 138.837l-5.67 18.794zM626.792 850.832c-37.22 30.563-84.767 45.643-132.799 42.121l1.436-19.578c43.006 3.153 85.579-10.35 118.906-37.715l12.458 15.171zM693.946 728.767c-5.888 47.799-29.933 91.503-67.153 122.065l-12.458-15.171c33.326-27.365 54.856-66.497 60.129-109.295l19.482 2.401zM664.826 657.143c18.682 18.677 29.178 44.004 29.197 70.418l-19.629 0.012c-0.013-21.212-8.448-41.55-23.443-56.549l13.875-13.881zM594.411 627.949c26.413 0.017 51.74 10.516 70.415 29.194l-13.875 13.881c-15.002-14.998-35.341-23.43-56.552-23.443l0.012-19.631zM539.911 650.568c14.451-14.451 34.041-22.584 54.477-22.618l0.032 19.631c-15.241 0.026-29.851 6.091-40.628 16.868l-13.881-13.881zM517.293 705.044c0.034-20.436 8.167-40.026 22.618-54.477l13.881 13.881c-10.777 10.777-16.843 25.387-16.868 40.628l-19.631-0.033zM534.637 746.879c-11.089-11.089-17.327-26.124-17.344-41.807l19.631-0.022c0.012 10.484 4.182 20.535 11.595 27.948l-13.882 13.881zM576.444 764.223c-15.683-0.017-30.717-6.255-41.807-17.344l13.882-13.881c7.412 7.412 17.464 11.583 27.948 11.594l-0.022 19.631zM585.409 767.932c-2.374-2.374-5.596-3.709-8.954-3.709v-19.631c8.565 0 16.779 3.402 22.835 9.459l-13.881 13.881zM589.118 776.886c0-3.359-1.334-6.579-3.709-8.954l13.881-13.881c6.056 6.056 9.459 14.27 9.459 22.835h-19.631zM585.409 785.839c2.375-2.374 3.709-5.596 3.709-8.954h19.631c0 8.564-3.402 16.779-9.459 22.835l-13.881-13.882zM576.455 789.549c3.359 0 6.579-1.334 8.954-3.709l13.881 13.882c-6.056 6.056-14.27 9.459-22.835 9.459v-19.631zM516.596 764.754c15.876 15.876 37.408 24.795 59.859 24.795v19.631c-27.658 0-54.183-10.988-73.74-30.545l13.881-13.881zM491.801 704.894c0 22.452 8.919 43.984 24.795 59.86l-13.881 13.881c-19.558-19.557-30.545-46.083-30.545-73.741h19.631zM521.853 632.454c-19.217 19.217-30.025 45.273-30.052 72.45l-19.631-0.019c0.032-32.377 12.908-63.418 35.802-86.312l13.881 13.881zM594.303 602.402c-27.178 0.027-53.233 10.835-72.451 30.052l-13.881-13.881c22.893-22.894 53.935-35.77 86.312-35.802l0.020 19.631zM682.592 639.045c-23.424-23.425-55.183-36.602-88.311-36.643l0.024-19.631c38.326 0.047 75.071 15.293 102.168 42.393l-13.882 13.881zM719.238 727.357c-0.045-33.128-13.222-64.886-36.646-88.312l13.882-13.881c27.098 27.101 42.349 63.843 42.394 102.168l-19.629 0.024zM702.234 796.655c10.221-21.888 16-45.585 17.011-69.72l19.616 0.82c-1.12 26.726-7.52 52.967-18.842 77.205l-17.786-8.305zM659.699 854.458c17.862-16.269 32.314-35.915 42.534-57.804l17.786 8.305c-11.315 24.238-27.322 45.994-47.098 64.010l-13.222-14.511zM608.712 890.6c18.578-9.517 35.697-21.643 50.846-36.008l13.51 14.244c-16.506 15.652-35.162 28.864-55.406 39.235l-8.95-17.471zM895.398 788.901c-74.592 75.562-175.904 118.753-282.073 120.248l-0.276-19.629c101.012-1.423 197.409-42.518 268.378-114.41l13.971 13.791zM1011.994 505.297c-0.122 106.176-42.003 208.044-116.595 283.604l-13.971-13.791c70.976-71.893 110.822-168.815 110.938-269.837l19.629 0.023zM1011.885 271.104l0.109 234.177-19.629 0.009-0.109-234.173 19.629-0.013zM1037.21 440.824v-158.596h19.629v158.596h-19.629zM1098.15 417.159c-12.115 16.017-29.126 27.642-48.454 33.109l-5.344-18.89c15.213-4.303 28.602-13.453 38.138-26.061l15.661 11.842zM1116.819 361.524c0 20.083-6.554 39.617-18.669 55.635l-15.661-11.842c9.536-12.608 14.701-27.985 14.701-43.793h19.629zM1098.15 305.888c12.115 16.019 18.669 35.553 18.669 55.636h-19.629c0-15.808-5.165-31.185-14.701-43.79l15.661-11.846zM1049.696 272.781c19.328 5.466 36.339 17.094 48.454 33.107l-15.661 11.846c-9.536-12.608-22.925-21.76-38.138-26.067l5.344-18.886zM381.178 382.078c29.268 0 52.994 23.726 52.994 52.994h-19.631c0-18.426-14.937-33.363-33.363-33.363v-19.631zM328.184 435.072c0-29.268 23.726-52.994 52.994-52.994v19.631c-18.426 0-33.363 14.937-33.363 33.363h-19.631zM381.178 488.065c-29.268 0-52.994-23.726-52.994-52.993h19.631c0 18.426 14.937 33.363 33.363 33.363v19.631zM434.172 435.072c0 29.267-23.726 52.993-52.994 52.993v-19.631c18.426 0 33.363-14.937 33.363-33.363h19.631zM834.675 382.078c29.274 0 52.998 23.726 52.998 52.994h-19.635c0-18.426-14.931-33.363-33.363-33.363v-19.631zM781.683 435.072c0-29.268 23.725-52.994 52.992-52.994v19.631c-18.426 0-33.357 14.937-33.357 33.363h-19.635zM834.675 488.065c-29.267 0-52.992-23.726-52.992-52.993h19.635c0 18.426 14.931 33.363 33.357 33.363v19.631zM887.674 435.072c0 29.267-23.725 52.993-52.998 52.993v-19.631c18.432 0 33.363-14.937 33.363-33.363h19.635zM687.93 241.926c-21.248-21.21-50.044-33.12-80.065-33.12v-19.629c35.22 0 69.005 13.971 93.927 38.854l-13.862 13.894zM710.752 251.379c-8.563 0-16.774-3.405-22.829-9.459l13.875-13.882c2.381 2.374 5.6 3.706 8.954 3.706v19.635zM733.587 241.92c-6.054 6.054-14.266 9.459-22.835 9.459v-19.635c3.36 0 6.579-1.331 8.954-3.706l13.882 13.882zM743.046 219.085c0 8.563-3.405 16.781-9.459 22.835l-13.882-13.882c2.374-2.374 3.712-5.594 3.712-8.954h19.629zM733.587 196.256c6.054 6.054 9.459 14.266 9.459 22.829h-19.629c0-3.354-1.338-6.579-3.712-8.954l13.882-13.875zM607.865 144.269c47.13 0 92.34 18.694 125.716 51.974l-13.862 13.901c-29.696-29.613-69.92-46.24-111.853-46.24v-19.635zM482.152 196.243c33.373-33.28 78.581-51.974 125.713-51.974v19.635c-41.935 0-82.158 16.627-111.85 46.24l-13.862-13.901zM472.685 219.085c0-8.563 3.402-16.774 9.458-22.829l13.881 13.875c-2.374 2.374-3.708 5.6-3.708 8.954h-19.631zM482.143 241.92c-6.056-6.054-9.458-14.272-9.458-22.835h19.631c0 3.36 1.334 6.579 3.708 8.954l-13.881 13.882zM504.976 251.379c-8.564 0-16.778-3.405-22.833-9.459l13.881-13.882c2.375 2.374 5.595 3.706 8.952 3.706v19.635zM527.811 241.92c-6.056 6.054-14.27 9.459-22.835 9.459v-19.635c3.358 0 6.579-1.331 8.954-3.706l13.881 13.882zM607.865 208.806c-30.020 0-58.813 11.91-80.061 33.12l-13.868-13.894c24.927-24.883 58.708-38.854 93.929-38.854v19.629z" />
<glyph unicode="&#xe924;" glyph-name="Sp_37_Chat" d="M192.207 956.198c-91.12-16.567-162.185-83.055-186.6-174.175-4.578-17.439-4.578-20.055-5.45-231.288-0.436-152.375 0-218.644 1.744-231.069 6.54-45.343 28.339-90.249 61.255-126.218 24.197-26.593 67.141-52.753 103.328-63.218l17.439-5.014 2.18-156.515 5.45-9.81c3.052-5.233 9.81-12.643 14.823-16.35 8.72-5.885 11.118-6.54 26.595-6.54h16.785l276.412 184.204h138.424c137.335 0.215 157.389 1.089 185.074 7.847 88.941 22.453 159.351 100.492 172.431 191.614 1.744 12.425 2.181 78.694 1.744 231.069-0.874 211.233-0.874 213.849-5.451 231.288-11.554 43.162-31.607 77.823-62.563 108.996-31.171 30.955-65.833 51.010-108.995 62.563l-17.657 4.796-310.637 0.218c-248.946 0.436-313.689 0-326.333-2.398zM809.776 674.118c17.439-7.848 29.211-29.429 25.941-47.958-3.052-17.876-18.964-33.571-37.932-37.278-16.131-3.052-555.439-3.052-571.571 0-18.965 3.707-34.878 19.401-37.93 37.278-3.27 18.529 8.502 40.11 25.941 47.958 8.502 3.924 21.363 4.142 297.776 4.142s289.273-0.218 297.776-4.142zM710.591 490.568c18.528-5.666 32.478-24.197 32.478-43.38s-13.95-37.711-32.478-43.38c-11.773-3.485-385.409-3.485-397.181 0-11.336 3.488-23.543 13.954-28.339 24.634-10.899 23.979 1.526 52.32 26.813 61.693 10.028 3.488 386.716 3.922 398.707 0.433z" />
<glyph unicode="&#xe925;" glyph-name="Sp_38_Copy" horiz-adv-x="956" d="M395.543 919.205c-33.827-6.929-63.782-29.753-79.473-60.932-15.895-31.586 0.611-63.988 33.827-66.026 19.358-1.223 33.623 7.744 44.423 27.715 1.834 3.668 6.521 8.355 10.189 10.597 6.725 4.076 9.781 4.076 224.765 4.076 207.443 0 218.448-0.203 224.967-3.668 3.871-2.038 8.765-6.929 10.8-10.8 3.468-6.522 3.673-19.767 3.673-290.19 0-277.15 0-283.465-4.076-289.78-8.356-13.653-8.356-13.653-78.657-14.875l-63.584-1.024-8.759-6.11c-13.046-9.175-18.548-21.197-17.729-37.908 0.812-15.688 6.11-25.061 18.746-34.031l7.946-5.502 66.84-0.608c56.443-0.41 68.874 0 79.674 2.649 37.902 9.981 68.881 38.919 81.312 76.623l4.888 15.080v295.487c0 281.020-0.205 296.099-3.666 307.715-11.824 38.311-39.943 66.841-78.862 79.68-10.602 3.668-24.255 3.872-237.402 4.279-183.195 0.204-228.841-0.204-239.845-2.445zM83.115 743.243c-37.291-10.597-66.635-38.923-78.657-76.012l-4.891-14.877v-295.488c0-281.022 0.204-296.103 3.668-307.715 12.023-38.721 41.163-67.864 79.88-79.886 11.616-3.461 24.657-3.666 242.494-3.666h230.268l14.875 4.888c28.529 9.38 53.186 29.757 66.635 55.228 14.061 27.102 13.246 6.117 13.246 330.743 0 323.814 0.815 304.455-12.838 330.539-8.354 15.895-31.382 38.923-47.276 47.278-25.676 13.45-13.653 12.839-266.132 12.635-210.704 0-230.063-0.408-241.271-3.668zM551.393 656.838c3.056-1.834 7.132-5.91 8.966-8.966 3.464-5.299 3.668-21.602 3.668-291.005 0-271.643-0.204-285.706-3.668-291.003-2.038-3.263-6.521-7.543-10.189-9.578-6.317-3.871-12.023-4.076-224.562-4.076-207.444 0-218.448 0.205-224.969 3.666-3.872 2.041-8.763 6.929-10.8 10.8-3.465 6.519-3.668 19.77-3.668 289.783 0 302.824-0.408 288.356 9.781 297.526 2.242 2.038 6.725 4.483 9.781 5.502 3.26 1.019 103.518 1.63 222.932 1.427 203.776-0.408 217.633-0.612 222.728-4.076z" />
<glyph unicode="&#xe926;" glyph-name="Sp_39_Global" horiz-adv-x="964" d="M481.886 956.324c-95.2 0-188.263-28.321-267.419-81.381s-140.851-128.476-177.283-216.713c-36.432-88.236-45.964-185.328-27.391-278.999 18.573-93.673 64.416-179.713 131.733-247.243 67.317-67.536 153.084-113.525 246.455-132.156 93.371-18.637 190.153-9.071 278.107 27.479 87.956 36.545 163.129 98.437 216.022 177.851 52.887 79.408 81.119 172.77 81.119 268.276-0.145 128.025-50.905 250.766-141.143 341.293s-212.582 141.449-340.199 141.593zM481.886 71.042c-105.079-0.030-205.943 41.454-280.757 115.477v65.566c0.88 16.89 7.369 32.991 18.432 45.749 13.051 15.414 20.747 34.677 21.926 54.868 0 38.371-34.515 42.299-53.128 44.354-11.789-0.217-23.344 3.315-33.009 10.091-6.564 7.915-12.147 16.6-16.626 25.864-12.254 26.722-31.828 49.398-56.44 65.384 6.365 102.063 51.208 197.87 125.424 267.97s172.243 109.238 274.178 109.469c11.023 0 21.805-0.786 32.648-1.632-2.36-1.188-4.6-2.605-6.686-4.23-1.93-1.937-3.445-4.25-4.453-6.796s-1.487-5.272-1.408-8.010c0.079-2.738 0.714-5.431 1.867-7.915s2.799-4.704 4.837-6.526c3.335-2.847 6.308-6.095 8.855-9.668-0.422-0.967-4.156-7.252-24.636-17.706-18.675-8.456-35.355-20.78-48.944-36.162s-23.781-33.476-29.904-53.091c-1.434-7.82-0.949-15.873 1.412-23.464s6.528-14.491 12.141-20.105c1.847-1.893 4.048-3.4 6.477-4.438s5.039-1.582 7.678-1.606c24.66 1.126 48.705 8.083 70.174 20.304 21.465 12.219 45.568 19.021 70.235 19.821 78.729 0 140.41-17.706 140.41-40.246 0-8.279-2.59-10.817-3.554-11.724-9.879-9.729-43.43-9.124-72.885-8.641-7.831 0-15.782 0-24.094 0-15.643-1.288-31.336 1.698-45.419 8.641-16.971 8.529-35.86 12.485-54.815 11.481-49.035 2.26-97.102-14.216-134.505-46.107-11.865-13.057-20.491-28.738-25.18-45.769s-5.307-34.93-1.805-52.246c0.542-6.043 1.084-11.663 1.084-16.799 0-39.641 40.358-60.429 80.233-60.429 41.187 3.138 82.519-3.765 120.471-20.123 0.22-17.432 4.337-34.593 12.047-50.216 4.9-9.339 7.638-19.667 8.011-30.212 0.337-2.952 0.020-5.933-0.927-8.746s-2.503-5.373-4.554-7.511c-10.256-12.318-15.466-28.088-14.577-44.116 5.109-35.232 20.903-68.042 45.239-93.961 1.879-2.090 4.174-3.759 6.734-4.903 2.566-1.144 5.337-1.741 8.144-1.747 1.687-0.018 3.367 0.187 5 0.602 12.047 3.024 115.351 31.666 115.351 99.948-0.813 6.999 0.313 14.089 3.259 20.486s7.59 11.854 13.426 15.776c7.162 5.006 13.029 11.662 17.107 19.408 4.078 7.752 6.246 16.365 6.325 25.127 11.397 33.007 30.262 62.916 55.115 87.38 1.843 2.055 3.253 4.469 4.126 7.094s1.199 5.401 0.958 8.156c-0.241 2.756-1.048 5.433-2.373 7.862-1.319 2.429-3.126 4.559-5.301 6.256-30.913 23.968-55.928 54.729-73.126 89.918 9.716-5.156 18.643-11.688 26.504-19.398 3.385-3.341 7.439-5.921 11.896-7.567 4.451-1.647 9.21-2.322 13.944-1.981 20.528 4.298 39.298 14.7 53.85 29.852 16.637-59.716 19.251-122.489 7.632-183.389s-37.147-118.267-74.595-167.6c-37.442-49.333-85.775-89.287-141.204-116.724-55.422-27.437-116.438-41.605-178.245-41.4z" />
<glyph unicode="&#xe927;" glyph-name="Sp_40_Notification" horiz-adv-x="922" d="M871.997 121.595l-71.168 118.323c-32.819 54.728-50.161 117.335-50.176 181.146v104.091c0 76.892-30.546 150.634-84.915 205.005s-128.113 84.915-205.004 84.915c-76.892 0-150.634-30.545-205.004-84.915s-84.916-128.113-84.916-205.005v-103.835c-0.030-63.918-17.445-126.623-50.381-181.402l-71.168-118.528c-1.957-3.128-3.031-6.728-3.111-10.414-0.079-3.692 0.84-7.332 2.66-10.542s4.474-5.873 7.681-7.695c3.207-1.828 6.847-2.755 10.537-2.683h786.943c3.692-0.072 7.332 0.855 10.537 2.683 3.205 1.823 5.862 4.485 7.68 7.695 1.823 3.21 2.739 6.851 2.662 10.542-0.082 3.686-1.157 7.286-3.113 10.414l0.256 0.205zM103.998 131.835l52.326 87.040c36.781 61.128 56.249 131.108 56.32 202.445v103.835c-0.473 32.933 5.605 65.633 17.882 96.197s30.505 58.382 53.627 81.839c23.122 23.456 50.676 42.082 81.060 54.796s62.993 19.261 95.93 19.261c32.937 0 65.545-6.547 95.927-19.261 30.387-12.713 57.943-31.34 81.065-54.796s41.349-51.275 53.627-81.839c12.273-30.564 18.355-63.263 17.879-96.197v-103.835c-0.046-71.316 19.277-141.307 55.91-202.496l52.326-87.040-713.881 0.051zM460.767 960c-21.967-0.014-43.031-8.746-58.563-24.279s-24.266-36.596-24.279-58.563v-82.842c0-5.493 2.182-10.761 6.066-14.644s9.152-6.066 14.645-6.066c5.493 0 10.761 2.182 14.644 6.066s6.066 9.151 6.066 14.644v82.842c0 10.985 4.364 21.521 12.132 29.289s18.303 12.132 29.289 12.132c10.985 0 21.521-4.364 29.289-12.132s12.131-18.303 12.131-29.289v-82.842c0-5.493 2.183-10.761 6.066-14.644 3.885-3.884 9.153-6.066 14.647-6.066 5.489 0 10.757 2.182 14.643 6.066 3.881 3.884 6.067 9.151 6.067 14.644v82.842c-0.015 21.967-8.75 43.030-24.279 58.563-15.535 15.533-36.598 24.265-58.565 24.279zM550.354 121.441c-2.78 4.751-7.332 8.207-12.652 9.605-5.325 1.398-10.988 0.62-15.739-2.156s-8.207-7.327-9.605-12.652c-1.398-5.325-0.623-10.988 2.156-15.739 5.458-9.441 8.335-20.152 8.346-31.058 0.005-10.906-2.862-21.622-8.31-31.073-5.449-9.446-13.289-17.29-22.733-22.743-9.444-5.458-20.158-8.33-31.064-8.33s-21.619 2.872-31.063 8.33c-9.444 5.453-17.285 13.297-22.734 22.743-5.449 9.452-8.314 20.168-8.308 31.073s2.886 21.617 8.346 31.058c2.777 4.751 3.552 10.414 2.155 15.739s-4.852 9.876-9.605 12.652c-4.753 2.775-10.414 3.553-15.738 2.156s-9.875-4.854-12.653-9.605c-9.13-15.744-13.951-33.613-13.977-51.814-0.027-18.196 4.742-36.081 13.827-51.85s22.162-28.867 37.919-37.975c15.756-9.108 33.633-13.901 51.832-13.901s36.077 4.792 51.831 13.901c15.759 9.108 28.836 22.205 37.919 37.975 9.088 15.77 13.855 33.654 13.829 51.85-0.031 18.202-4.849 36.070-13.978 51.814z" />
<glyph unicode="&#xe928;" glyph-name="Sp_41_Upload" horiz-adv-x="1092" d="M518.659 955.531c-6.564-3.16-47.401-42.54-124.457-119.597-100.638-101.123-114.737-116.437-116.195-124.216-2.431-13.126 0.486-24.794 7.779-33.789 12.154-14.342 30.142-17.988 46.429-9.723 4.862 2.674 43.511 39.38 85.567 81.433l76.571 76.815 1.215-295.103c1.215-293.403 1.215-295.349 6.318-301.909 9.482-12.885 17.261-16.773 32.573-16.773 15.316 0 23.095 3.888 32.573 16.773 5.106 6.56 5.106 8.021 5.833 302.394l0.488 295.591 82.162-81.676c54.938-54.937 84.105-82.405 88.726-83.621 10.694-2.431 27.225 0.243 35.246 5.834 13.612 9.966 19.446 33.789 11.667 48.616-5.345 10.21-235.063 238.222-242.838 240.896-9.967 3.889-18.476 3.16-29.658-1.945zM22.542 332.070c-9.237-4.13-17.259-13.855-20.662-25.521-1.702-6.079-2.188-35.977-1.702-91.402 0.972-81.674 1.215-82.889 7.779-104.523 16.773-55.18 52.263-97.236 102.338-121.542 43.512-21.149 6.077-19.449 424.181-19.449 418.103 0 380.669-1.7 424.182 19.449 51.289 24.794 88.726 70.735 103.796 126.403 4.618 17.746 5.349 26.74 6.076 103.311 0.973 83.62 0.973 83.862-4.618 94.56-7.291 14.097-15.8 20.176-30.628 21.634-15.312 1.457-29.17-5.833-36.707-18.961-4.861-8.752-5.103-12.397-5.103-84.108 0-84.105-1.703-97.963-15.070-123.242-9.967-18.961-30.874-39.868-48.131-48.374-29.901-14.828-9.482-14.1-393.796-14.1-384.072 0-362.924-0.727-393.31 14.1-18.474 8.752-39.38 29.897-48.86 48.858-13.127 25.767-14.828 39.137-14.828 122.757 0 71.711-0.243 75.356-5.105 84.108-9.48 16.773-31.601 23.822-49.832 16.043z" />
<glyph unicode="&#xe929;" glyph-name="Sp_42_Download" horiz-adv-x="956" d="M477.867 903.112c25.136 0 45.512-20.376 45.512-45.512v-436.207l149.716 149.721c17.771 17.774 46.587 17.775 64.363 0.001s17.777-46.59 0-64.363l-225.992-226.001c-4.015-4.394-8.878-7.992-14.331-10.545-6.014-2.833-12.635-4.349-19.412-4.349-12.070 0-23.647 4.799-32.182 13.332l-227.555 227.562c-17.773 17.773-17.773 46.59 0.001 64.363s46.59 17.773 64.363-0.001l150.006-150.011v436.496c0 25.136 20.376 45.512 45.511 45.512zM68.267 356.979c25.136 0 45.512-20.376 45.512-45.512v-182.047c0-12.070 4.792-23.641 13.326-32.181 8.537-8.54 20.115-13.332 32.184-13.332h637.158c12.056 0 23.634 4.785 32.174 13.319zM828.621 97.225c8.533 8.54 13.332 20.125 13.332 32.195v182.047c0 25.136 20.378 45.512 45.513 45.512s45.513-20.376 45.513-45.512v-182.047c0-36.215-14.391-70.943-39.984-96.543-25.6-25.593-60.334-39.997-96.55-39.997h-637.158c-36.212 0-70.938 14.391-96.541 39.984-25.6 25.607-39.993 60.341-39.993 96.556v182.047c0 25.136 20.376 45.512 45.511 45.512z" />
<glyph unicode="&#xe92a;" glyph-name="Sp_43_Mail" horiz-adv-x="1365" d="M100.347 916.124c-49.175-13.155-87.387-55.125-96.783-105.866-4.698-25.057-4.698-698.464-0.313-722.583 10.649-56.375 56.692-100.85 112.757-109.623 13.155-1.877 220.19-2.819 581.016-2.191l560.654 0.935 17.538 7.209c38.216 15.346 66.089 43.22 82.063 82.063l6.888 17.224 0.942 352.364c0.628 242.739 0 358.628-2.505 372.096-4.697 28.189-17.538 52.62-37.588 72.979-19.729 19.732-35.082 28.815-61.699 35.706-26.938 6.891-1136.658 6.577-1162.968-0.313zM1252.666 866.322c2.191-2.192-89.58-84.88-280.644-253.701-156.29-137.814-285.648-250.883-287.84-251.51-3.761-0.939-568.801 495.502-571.62 502.079-0.626 1.566 3.133 4.072 8.144 5.011 16.287 3.445 1128.512 1.566 1131.96-1.879zM259.46 663.048c93.338-82.689 169.449-151.908 169.136-153.788-0.627-1.879-83.941-98.348-185.736-213.924-121.841-139.067-185.423-208.911-186.989-206.406-1.253 1.877-2.506 164.434-2.506 360.819 0 349.232 0.313 357.375 6.264 370.844l6.264 13.468 11.902-10.336c6.264-5.951 88.013-78.303 181.664-160.678zM1309.355 811.51c4.076-14.408 4.383-719.446 0.314-721.644-3.133-2.191-371.473 415.636-371.473 420.96 0 1.879 81.121 74.858 180.101 162.557 195.755 173.207 183.856 164.437 191.058 138.127zM580.505 379.591c47.922-42.284 90.519-78.303 94.904-79.869 4.698-1.879 10.336-1.879 15.347 0 4.383 1.566 51.678 41.658 105.24 88.952 53.876 47.295 98.973 86.133 100.229 86.133 1.563 0 88.016-97.096 192-215.803 206.411-235.22 193.877-218.31 168.195-226.768-15.032-5.325-1131.643-5.325-1146.991-0.307-24.117 8.137-33.827-5.018 171.016 228.017l189.808 216.741 11.589-10.022c6.264-5.638 50.741-44.79 98.662-87.073z" />
<glyph unicode="&#xe92b;" glyph-name="Sp_44_Telephone" horiz-adv-x="975" d="M173.205 935.581c-15.499-4.019-31.381-12.821-47.646-26.79-17.987-15.5-82.472-81.135-92.996-94.722-42.671-54.537-43.436-139.308-2.105-248.764 50.325-133.757 144.661-269.242 264.063-379.268 164.561-151.747 384.996-249.915 498.465-222.359 16.842 4.018 44.778 17.033 57.598 26.79 13.015 9.757 99.504 98.548 107.54 110.221 14.926 21.626 20.665 50.517 14.926 75.010-6.505 27.365-8.611 29.852-91.848 113.284-84.002 84.007-86.684 86.114-114.43 91.853-22.001 4.593-44.393 0.575-66.014-11.864-4.974-3.062-28.701-24.683-52.624-48.411l-43.432-42.867-13.97 7.27c-34.25 17.798-59.509 34.831-97.207 65.829-38.652 31.764-92.613 87.45-122.463 126.487-21.622 28.321-53.387 80.561-53.578 87.642 0 1.339 14.925 17.031 33.103 34.827 38.27 37.315 53.386 54.728 61.997 71.185 10.716 20.858 12.82 47.265 5.358 69.080-7.463 22.197-14.734 30.618-87.83 103.907-72.33 72.333-83.428 81.901-104.094 88.981-14.352 5.167-38.079 6.315-52.813 2.679zM217.598 881.809c5.358-3.062 35.974-31.957 77.114-73.29 74.436-74.63 77.306-78.074 77.114-97.784 0-17.413-4.592-23.537-54.535-73.481-25.258-25.068-47.263-48.222-48.794-51.475-2.296-4.018-2.87-9.568-2.296-18.944 0.574-11.481 2.105-15.883 13.777-39.037 26.407-52.432 61.232-98.547 118.828-157.486 57.214-58.558 114.237-102.185 172.98-132.423 20.855-10.713 24.873-12.244 34.445-12.054 6.505 0 13.39 1.341 17.413 3.447 3.633 1.911 27.36 24.108 52.619 49.176 32.529 32.339 48.411 46.69 54.535 49.371 11.479 5.164 26.405 5.164 36.932 0 11.479-5.744 146.764-140.839 152.693-152.703 3.257-6.315 4.593-12.059 4.593-20.285 0-19.71-4.018-25.068-58.363-79.604-53.765-53.965-58.743-57.598-87.445-64.107-27.746-6.124-74.245-1.146-121.315 12.824-71.758 21.241-168.199 72.138-247.608 130.697-152.889 112.518-284.155 284.545-338.689 443.565-26.024 75.586-28.894 129.74-8.994 169.925 6.124 12.821 11.864 19.327 51.665 59.704 24.493 24.876 48.029 47.457 52.047 50.327 17.222 11.864 34.826 13.204 51.282 3.636z" />
<glyph unicode="&#xe92c;" glyph-name="Sp_45_Logout" horiz-adv-x="945" d="M100.162 937.341c-25.363-7.978-41.892-23.079-53.861-48.723l-6.839-14.246v-829.717l8.549-17.376c9.974-19.377 23.368-32.768 42.462-41.598 12.824-5.986 16.529-5.986 176.117-5.986h163.293l7.125 7.404c15.959 15.959 9.689 41.889-11.969 47.868-6.84 2.001-64.121 3.135-160.443 3.135-163.293 0-157.878-0.567-165.003 16.242-2.28 5.986-3.134 111.978-2.565 410.585l0.855 402.89 15.959 13.677h150.184c96.608 0 154.173 1.14 161.013 3.134 22.513 6.268 28.213 33.052 10.544 49.008l-8.549 7.693-157.594-0.285c-121.116 0-160.158-0.855-169.277-3.704zM634.782 702.136c-6.554-6.554-8.264-10.828-8.264-20.515v-12.253l90.338-90.607 90.622-90.607h-540.604l-8.264-8.263c-6.554-6.554-8.264-10.828-8.264-20.23s1.71-13.677 8.264-20.23l8.264-8.263h540.604l-90.622-90.608-90.338-90.607v-12.252c0-17.096 11.684-28.778 28.782-28.778h12.254l116.271 115.966c63.833 63.824 117.412 119.386 119.405 123.945 7.696 18.52 7.129 19.090-117.98 144.174l-117.696 117.391h-12.254c-9.689 0-13.963-1.709-20.519-8.263z" />
<glyph unicode="&#xe92d;" glyph-name="Sp_46_Theme" d="M430.609 901.209c-178.134-23.365-323.317-157.165-361.261-332.503-11.183-52.122-12.182-116.826-2.397-168.349 21.768-114.83 89.068-214.88 187.92-279.585 55.716-36.34 136.796-63.904 188.718-64.301 17.774 0 22.167 0.596 28.957 4.391 10.585 5.596 24.164 20.372 29.556 32.154 4.194 9.186 4.393 12.18 5.392 106.641l0.999 97.455 5.592 5.391 5.392 5.596 154.37 0.994c167.352 1 156.365 0.404 179.333 11.987 20.769 10.782 37.141 29.75 43.731 51.52 11.782 37.943 16.974 104.444 12.186 150.575-21.57 199.302-178.134 356.867-376.639 379.034-24.363 2.596-77.284 2.197-101.848-0.999zM523.669 860.070c83.273-8.387 161.561-43.734 223.465-100.85 79.884-73.889 126.012-185.523 121.019-294.36-1.199-29.955-7.385-68.498-12.981-80.879-3.994-9.186-16.173-20.769-28.558-27.358l-8.584-4.596-305.545-1.994-11.383-5.596c-13.58-6.789-27.759-21.763-32.751-34.942-3.395-8.59-3.794-18.378-4.394-105.647l-0.599-96.057-5.392-5.391c-5.192-5.192-5.991-5.391-18.372-4.192-52.122 5.391-116.226 28.756-163.356 59.711-199.901 131.006-233.052 408.39-70.095 583.529 80.080 85.871 200.101 130.605 317.526 118.623zM342.729 732.578c-17.773-4.593-33.35-17.574-42.336-34.748-4.594-8.987-5.392-12.781-5.392-27.359s0.799-18.373 5.392-27.359c6.79-13.18 16.775-23.165 29.955-29.955 8.987-4.593 12.781-5.392 27.359-5.392s18.373 0.799 27.359 5.392c13.18 6.79 23.165 16.775 29.955 29.955 4.594 8.987 5.392 12.781 5.392 27.359s-0.799 18.372-5.392 27.359c-11.183 21.568-30.155 34.149-52.921 35.547-7.389 0.399-15.976 0.199-19.371-0.799zM366.693 689.243c6.19-2.796 12.98-12.781 12.98-18.772 0-1.398-1.397-5.392-3.195-8.987-3.794-8.188-14.578-13.779-22.766-11.983-7.389 1.598-15.377 9.586-16.975 16.975-1.797 7.988 3.794 18.972 11.583 22.766 7.988 3.994 10.185 3.994 18.373 0zM598.376 732.578c-17.773-4.593-33.35-17.574-42.336-34.748-4.594-8.987-5.392-12.781-5.392-27.359s0.799-18.373 5.392-27.359c6.79-13.18 16.775-23.165 29.955-29.955 8.987-4.593 12.781-5.392 27.358-5.392s18.372 0.799 27.359 5.392c13.179 6.79 23.166 16.775 29.955 29.955 4.596 8.987 5.391 12.781 5.391 27.359s-0.795 18.372-5.391 27.359c-11.18 21.568-30.154 34.149-52.917 35.547-7.391 0.399-15.979 0.199-19.373-0.799zM622.339 689.243c6.192-2.796 12.981-12.781 12.981-18.772 0-1.398-1.397-5.392-3.192-8.987-3.795-8.188-14.583-13.779-22.769-11.983-7.388 1.598-15.376 9.586-16.974 16.975-1.797 7.988 3.794 18.972 11.583 22.766 7.987 3.994 10.186 3.994 18.372 0zM237.534 562.496c-18.372-4.394-34.948-17.574-43.535-34.948-3.994-8.188-4.793-12.781-4.793-27.759 0-15.576 0.799-19.371 5.392-27.958 6.39-11.982 17.374-22.766 29.556-29.156 7.389-3.994 11.982-4.793 26.96-4.793s19.57 0.799 27.758 4.793c53.32 26.361 45.332 104.044-11.982 119.023-12.781 3.395-18.173 3.395-29.356 0.799zM266.291 514.967c9.985-9.985 6.59-28.757-5.991-34.149-12.182-4.992-26.161 1.997-29.156 14.579-5.192 20.369 20.17 34.548 35.147 19.57zM705.024 562.186c-12.18-3.395-26.16-11.783-32.949-19.77-27.558-32.751-17.372-81.079 20.769-99.851 13.583-6.59 41.339-6.59 54.32 0.2 12.18 6.39 23.166 17.174 29.557 29.156 4.59 8.587 5.391 12.381 5.391 27.958 0 14.978-0.801 19.57-4.795 27.758-13.179 26.76-45.333 42.137-72.294 34.549zM731.985 517.852c14.981-9.785 9.589-34.748-8.186-38.143-13.981-2.596-24.564 6.59-24.564 21.168 0 6.59 1.199 9.585 5.789 14.179 4.596 4.593 7.59 5.791 14.179 5.791 4.397 0 10.186-1.398 12.782-2.996z" />
<glyph unicode="&#xe92e;" glyph-name="Sp_47_DropdownArrow" horiz-adv-x="1365" d="M717.225 73.040c-7.989-9.998-18.121-18.068-29.65-23.613-11.529-5.547-24.156-8.428-36.946-8.428s-25.419 2.881-36.948 8.428c-11.529 5.545-21.661 13.616-29.65 23.613l-504.803 631.467c-10.021 12.559-16.295 27.694-18.099 43.665-1.804 15.969 0.936 32.125 7.904 46.605s17.88 26.697 31.48 35.244c13.601 8.547 29.337 13.076 45.396 13.067h1009.607c16.044-0.023 31.758-4.576 45.334-13.135 13.575-8.56 24.462-20.779 31.409-35.253 6.946-14.475 9.672-30.617 7.861-46.57-1.809-15.956-8.081-31.075-18.094-43.622l-504.803-631.467z" />
<glyph unicode="&#xe92f;" glyph-name="Sp_48_Garbage" d="M386.2 957.8c-15.4-3-36.4-14.4-48-26-19.4-19.4-28-44.2-28.2-80.2v-15.6h-60.4c-68.2 0-83.2-1.6-101.2-10-16.2-7.6-35.6-26.8-43-42.6-16.8-35.6-9.6-76.8 18-104.2 9.6-9.6 32.2-23.2 38.4-23.2 1.6 0 2.2-84.4 2.6-308.4l0.6-308.6 5.4-16c7.6-22.2 18.4-39.2 33.6-53.8 15.8-14.8 32.4-24 53.2-29.2 15-3.8 23-4 254.8-4s239.8 0.2 254.8 4c48.6 12.4 83.6 52.8 91.2 105.4 1.2 8.4 2 127.8 2 312v298.2l7.6 2.6c28.6 9.2 53.4 39.8 58.6 71.8 5.4 33.8-11.4 71.6-40.4 90.2-21.8 13.8-25.2 14.4-102 15.4l-69.2 0.8-1.2 23.4c-1.4 25.8-5.6 40.8-15.4 56.4-13.4 20.8-37.6 37.2-61.8 41.8-13.2 2.4-237.2 2.4-250-0.2zM639 907.6c18-9.8 25.2-23.6 26.6-51l1-20.6h-309l0.6 21.6c0.8 19 1.4 22.4 6.4 30.8 3 5.2 8.2 11.4 11.6 13.8 13.8 9.8 13.2 9.8 138.8 9.2 105.6-0.4 118.6-0.8 124-3.8zM855 782.6c10.2-5.4 16-11.6 20.2-21.6 7.6-18.4 1.2-40.6-15-52l-8.6-6-335.2-0.6c-234.2-0.4-337.6 0-342.8 1.6-20 5.8-32.8 28.8-27.6 49.8 3.8 15.8 16.4 28.2 33 32.4 3.4 0.8 155 1.2 337 1.2l331-0.4 8-4.4zM811.6 359c0.4-200.6-0.2-298.4-1.6-308-4.2-27.6-18.6-48-41.6-59.4l-13.4-6.6-237.8-0.6c-258-0.6-251.2-0.8-268.6 10.2-16.4 10.4-30 30.6-34.4 51-1.6 7.6-2.2 95.8-2.2 309.6v298.8l599-1 0.6-294zM354.4 582.2c-3.2-3.4-6.4-8.8-7.2-12.4-0.6-3.4-1.2-108.4-1.2-233.2 0-241.8-0.2-234.4 9.4-243.2 6.2-5.4 16.8-6.4 25.2-2.4 14.2 6.8 13.4-9.4 13.4 248 0 251 0.6 238.2-10.8 245.8-2.8 1.8-9 3.2-14 3.2-7.2 0-10-1.2-14.8-5.8zM497.6 583.4c-2.8-2.4-6.2-6.4-7.4-8.8-1.6-3-2.2-72.2-2.2-235.6 0-257.4-0.8-241.2 13.4-248 8.4-4 19-3 25.2 2.4 9.6 8.8 9.4 1.4 9.4 243.2 0 124.8-0.6 229.8-1.2 233.2-0.8 3.6-4 9-7.2 12.4-7.6 7.6-21.8 8.2-30 1.2zM636.8 581.2l-6.8-6.8v-234.2c0-201.4 0.4-235.2 3-240 3-6.2 13.8-12.2 21.6-12.2 7.4 0 18 8.2 20.8 16 3.2 9.2 3.6 455.2 0.6 466.4-3 10.8-12.2 17.6-23.4 17.6-7.6 0-10-1-15.8-6.8z" />
<glyph unicode="&#xe930;" glyph-name="Sp_49_SuccessIcon" d="M512 960c-282.766 0-512-229.234-512-512s229.234-512 512-512c282.766 0 512 229.234 512 512s-229.234 512-512 512zM813.596 578.6l-338.597-338.598c-10.728-10.728-24.741-15.982-38.754-15.982-14.009 0-28.022 5.364-38.751 15.982l-187.088 187.089c-21.347 21.346-21.347 56.048 0 77.399 21.347 21.346 56.050 21.346 77.397 0l148.442-148.445 299.953 299.842c21.35 21.347 56.052 21.347 77.399 0s21.346-56.049 0-77.397v0.109z" />
<glyph unicode="&#xe931;" glyph-name="Sp_50_User" d="M512 496c38.191 0 74.818 15.171 101.823 42.177 27.002 27.005 42.177 63.632 42.177 101.823s-15.174 74.818-42.177 101.823c-27.005 27.005-63.632 42.177-101.823 42.177s-74.818-15.171-101.823-42.177c-27.005-27.005-42.177-63.632-42.177-101.823s15.171-74.818 42.177-101.823c27.005-27.005 63.632-42.177 101.823-42.177zM176 64c0 44.122 8.691 87.814 25.576 128.582 16.886 40.762 41.635 77.805 72.836 109.005s68.241 55.951 109.006 72.836 84.458 25.576 128.582 25.576c44.124 0 87.816-8.691 128.582-25.576 40.762-16.886 77.805-41.635 109.005-72.836s55.949-68.243 72.838-109.005c16.883-40.768 25.574-84.461 25.574-128.582h-672z" />
<glyph unicode="&#xe932;" glyph-name="Sp_51_Printer" horiz-adv-x="934" d="M271.194 956.527c-14.112-4.197-25.931-12.191-39.514-26.581-13.759-14.79-24.343-36.574-27.518-56.96-1.235-7.195-1.94-43.569-1.94-90.536v-78.544h-54.155c-39.69 0-56.801-0.799-63.152-2.798-32.105-9.593-58.742-39.772-67.209-76.146-3.528-14.589-3.528-339.161 0-353.75 8.467-36.373 35.104-66.554 67.209-76.146 6.527-1.997 23.285-2.798 63.152-2.798h54.155v-78.544c0-46.965 0.706-83.342 1.94-90.537 3.175-20.384 13.759-42.171 27.518-56.958 13.76-14.589 25.402-22.383 40.22-26.781 15.7-4.599 374.148-4.599 389.848 0 15.7 4.596 26.814 12.39 41.102 28.178 14.288 16.188 23.284 34.777 26.636 55.561 1.235 7.397 1.94 42.37 1.94 90.537v78.544h54.862c53.98 0 55.037 0 68.090 4.997 30.696 11.791 53.45 38.972 61.563 73.948 3.53 14.589 3.53 339.161 0 353.75-8.466 36.374-35.102 66.552-67.208 76.146-6.352 1.999-23.462 2.798-62.976 2.798h-54.332v78.544c0 46.967-0.705 83.341-1.94 90.536-3.174 20.386-13.758 42.17-27.518 56.96-13.761 14.59-25.401 22.384-40.219 26.781-15.17 4.397-375.913 4.397-390.554-0.2zM660.161 909.36c4.939-2.998 12.701-9.993 17.11-15.589 14.113-17.787 14.113-17.987 14.996-109.323l0.705-80.543h-452.294l0.706 80.543c0.882 91.335 0.882 91.535 14.994 109.323 7.585 9.593 17.111 16.588 26.989 20.186 2.47 0.799 86.259 1.399 186.105 1.199l181.694-0.4 8.996-5.396zM843.794 655.541c13.583-5.798 26.814-20.787 31.928-36.174 3.882-11.394 3.882-12.592 3.882-171.279s0-159.886-3.882-171.279c-5.114-15.39-18.345-30.38-31.928-36.174-9.526-4.195-13.231-4.397-61.211-4.397h-51.158v75.948c0 81.742-0.175 83.739-9.171 90.735-3.53 2.798-30.344 3.198-255.431 3.198-225.088 0-251.902-0.401-255.43-3.198-8.996-6.996-9.173-8.993-9.173-90.735v-75.948h-51.157c-47.981 0-51.685 0.202-61.211 4.397-13.583 5.795-26.813 20.784-31.929 36.174-3.881 11.394-3.881 12.592-3.881 171.279s0 159.886 3.881 171.279c4.939 15.188 18.346 30.377 31.399 36.174l9.702 4.197 734.537 0.2 10.231-4.397zM692.266 196.864c-0.53-154.29-0.882-166.081-3.882-174.875-4.235-12.592-16.935-28.38-28.223-35.174l-8.996-5.397h-368.681l-8.996 5.397c-11.29 6.795-23.991 22.582-28.224 35.174-2.999 8.794-3.352 20.585-3.881 174.875l-0.529 165.283h451.94l-0.527-165.283zM322.184 272.408c-5.822-6.596-7.936-13.791-6.349-21.384 0.705-3 3.527-7.794 6.349-10.993l4.939-5.798h90.672l5.996 6.798c4.939 5.596 5.996 8.394 5.996 15.188s-1.057 9.592-5.996 15.188l-5.996 6.795h-90.672l-4.939-5.795zM321.467 186.675c-5.996-7.397-7.584-17.787-3.879-25.982 5.996-12.99 1.057-12.592 132.301-11.993l119.070 0.599 5.295 5.798c4.584 4.997 5.466 7.394 5.466 15.788 0 7.996-0.882 10.592-5.114 15.589l-5.117 5.798h-243.083l-4.939-5.596zM324.653 104.523c-10.761-7.394-12.171-23.781-2.997-34.575l4.762-5.596h243.083l5.114 5.798c4.235 4.997 5.117 7.593 5.117 15.589 0 8.394-0.882 10.791-5.469 15.788l-5.292 5.795-119.426 0.602c-114.483 0.398-119.6 0.199-124.892-3.4z" />
<glyph unicode="&#xe933;" glyph-name="Sp_52_BgArrow" horiz-adv-x="1588" d="M125.388 730.122c0 92.333 74.851 167.184 167.184 167.184h863.245l238.77-250.322c61.611-64.591 61.611-166.193 0-230.785l-238.77-250.322h-863.245c-92.333 0-167.184 74.85-167.184 167.184v397.061z" />
<glyph unicode="&#xe934;" glyph-name="Sp_53_Warning" horiz-adv-x="1097" d="M524.758 957.791c-19.889-5.029-33.834-13.259-48.922-28.804-13.488-13.716-35.892-51.208-237.523-395.718-122.533-209.404-225.863-387.261-229.749-395.489-9.144-19.2-11.202-47.323-5.029-69.954 10.059-37.032 42.521-66.75 80.927-74.064 16.916-3.204 911.685-3.204 928.596 0 38.634 7.314 70.868 36.805 80.933 74.064 5.025 18.286 3.884 50.293-2.289 64.922-7.541 18.52-455.612 781.151-465.213 792.124-19.432 21.946-43.436 33.377-73.155 34.977-9.601 0.457-22.175-0.457-28.575-2.057zM580.995 716.839c13.945-7.773 27.432-24.003 31.776-37.949 4.115-13.030 3.657-23.546-6.859-200.945-5.029-85.271-9.144-155.91-9.144-157.281s-17.603-2.286-48.007-2.286c-44.121 0-48.007 0.229-48.007 4.115 0 2.058-4.572 79.555-10.059 171.912-11.202 186.315-11.202 181.514 3.429 202.545 13.259 19.432 33.377 28.805 58.295 27.662 13.030-0.686 18.975-2.286 28.576-7.773zM578.022 240.652c15.546-6.63 32.919-25.605 38.178-41.375 8.687-26.061 0.457-58.068-19.432-76.127-14.859-13.261-27.889-18.293-48.007-18.293-29.033 0-51.893 14.636-64.467 40.923-12.116 25.834-7.773 55.552 11.202 76.581 21.718 24.234 52.579 31.093 82.526 18.291z" />
<glyph unicode="&#xe935;" glyph-name="Sp_54_RoundedPlusBg" d="M484.369 934.936c-73.697-7-128.529-22.556-190.558-54.055-73.499-37.528-139.415-96.639-187.637-168.195-20.222-30.333-45.111-81.472-57.167-117.639-9.528-29.167-17.306-62.416-21.972-95.278-3.306-22.943-3.306-99.556 0-122.499 8.167-57.361 23.333-107.529 47.056-155.557 26.639-54.446 52.889-90.999 96.055-134.36 42.972-42.778 80.111-69.419 132.418-95.084 36.554-17.889 60.083-26.638 97.22-35.971 97.223-24.502 194.833-19.834 289.724 13.804 28.971 10.305 79.138 35.388 105 52.693 58.138 38.696 111.417 93.335 149.527 153.225 14 21.97 36.557 68.636 45.696 94.498 45.693 128.722 37.72 266.778-22.363 387.53-24.11 48.61-51.137 86.915-89.054 125.999-42.001 43.556-83.223 73.5-138.251 100.722-57.554 28.389-111.221 43.75-174.999 49.583-19.834 1.75-64.751 2.139-80.694 0.583zM543.479 691.297c3.888-2.722 9.529-8.361 12.444-12.444l5.251-7.583 0.97-95.471 0.973-95.474 190.945-1.946 7.583-5.248c4.085-2.918 9.722-8.556 12.444-12.641 4.085-6.027 4.861-9.333 4.861-21.97 0-12.641-0.777-15.946-4.861-21.973-2.722-4.082-8.36-9.722-12.444-12.638l-7.583-5.251-190.945-1.943-0.973-95.474-0.97-95.471-5.251-7.583c-2.916-4.085-8.556-9.722-12.638-12.444-6.030-4.085-9.335-4.861-21.973-4.861s-15.946 0.777-21.973 4.861c-4.082 2.722-9.722 8.36-12.638 12.444l-5.251 7.583-0.973 95.471-0.97 95.474-190.945 1.943-7.584 5.251c-12.055 8.556-17.111 17.499-17.889 32.472-0.778 15.943 4.472 27.418 16.916 36.167l8.36 5.831 191.141 1.946 0.97 95.667 0.973 95.471 5.834 8.362c8.75 12.444 20.221 17.694 36.167 16.917 9.722-0.583 14.583-1.944 20.028-5.445z" />
<glyph unicode="&#xe936;" glyph-name="Sp_55_Document" horiz-adv-x="882" d="M105.611 948.663c-6.038-1.457-16.448-5.413-22.902-8.536-15.615-7.703-39.141-31.23-46.636-46.845-12.908-26.233-12.076 2.082-12.076-440.967 0-352.896 0.416-406.613 3.123-417.021 8.12-31.232 29.564-57.048 59.545-71.62 24.151-11.452 11.243-11.244 373.094-10.618l333.534 0.623 14.99 5.413c35.186 12.908 61.002 41.017 70.164 76.203 2.916 11.241 3.331 48.302 3.331 335.616v322.709l-213.404 1.249-10.411 5.621c-13.531 7.079-26.65 20.82-32.686 33.936-4.79 10.41-4.79 11.034-5.413 114.093l-0.626 103.475-251.295-0.208c-210.699 0-253.171-0.625-262.332-3.123zM670.871 483.547c9.577-5.831 13.952-13.534 13.952-24.778 0-11.867-6.457-22.275-16.657-26.439-5.831-2.5-42.889-2.916-218.817-2.916-240.054 0-222.149-1.249-231.31 16.654-7.495 14.575-3.331 29.15 10.618 37.478 6.454 3.954 12.284 4.161 221.107 4.161 208.825 0 214.653-0.208 221.107-4.161zM592.381 367.371c11.034-5.413 17.28-16.031 16.239-27.691-0.623-5.205-2.705-12.075-4.998-14.99-8.951-12.285-1.041-11.867-192.791-11.867-170.307 0-175.721 0.208-182.175 4.164-13.949 8.326-18.113 22.901-10.618 37.265 9.369 18.113-3.956 16.865 193.208 16.865 161.354 0 174.473-0.208 181.134-3.746zM635.27 249.114c9.993-7.495 13.742-13.949 13.742-24.775s-3.749-17.28-13.742-24.775c-5.621-4.375-7.495-4.375-193.417-4.998-103.268-0.415-192.793 0-198.831 0.623-19.779 2.5-32.271 19.154-27.482 36.853 2.498 8.951 10.826 17.698 19.571 20.196 3.748 1.249 88.692 1.874 200.496 1.664 192.375-0.415 194.042-0.415 199.663-4.787zM677.749 847.272c0-77.867 0.418-88.901 3.334-91.816 2.913-2.915 14.157-3.331 93.065-3.331h89.734l-10.203 10.618c-5.828 5.83-47.676 47.053-93.065 91.816l-82.864 81.198v-88.485z" />
</font>
</defs>
</svg>
