<svg
  width="15"
  height="17"
  viewBox="0 0 15 17"
  fill="none"
  xmlns="http://www.w3.org/2000/svg"
>
  <path
    d="M3.90234 2.99536C4.52709 3.64002 5.27503 4.15254 6.10172 4.50251C6.92841 4.85247 7.817 5.03273 8.71471 5.03258C9.62056 5.03498 10.5175 4.85371 11.3513 4.49972"
    stroke="#304CB2"
    strokeLinecap="round"
    strokeLinejoin="round"
  />
  <path
    d="M7.36847 9.07287C9.59773 9.07287 11.4049 7.2657 11.4049 5.03644C11.4049 2.80717 9.59773 1 7.36847 1C5.13921 1 3.33203 2.80717 3.33203 5.03644C3.33203 7.2657 5.13921 9.07287 7.36847 9.07287Z"
    stroke="#304CB2"
    strokeLinecap="round"
    strokeLinejoin="round"
  />
  <path
    d="M6.89364 10.5154L6.00448 14.5178C5.98716 14.5957 5.98976 14.6768 6.01204 14.7534C6.03432 14.8301 6.07556 14.8999 6.13196 14.9564L7.03616 15.8606C7.08028 15.9048 7.13267 15.9398 7.19034 15.9637C7.24801 15.9876 7.30983 15.9999 7.37226 15.9999C7.43469 15.9999 7.49651 15.9876 7.55418 15.9637C7.61185 15.9398 7.66425 15.9048 7.70837 15.8606L8.61257 14.9564C8.66896 14.8999 8.7102 14.8301 8.73248 14.7534C8.75476 14.6768 8.75736 14.5957 8.74004 14.5178L7.84376 10.5154"
    stroke="#304CB2"
    strokeLinecap="round"
    strokeLinejoin="round"
  />
  <path
    d="M13.7388 15.2494C13.3272 13.8802 12.4854 12.68 11.3381 11.8268C10.1908 10.9737 8.79913 10.5129 7.36938 10.5129C5.93964 10.5129 4.54795 10.9737 3.40065 11.8268C2.25336 12.68 1.41154 13.8802 1 15.2494"
    stroke="#304CB2"
    strokeLinecap="round"
    strokeLinejoin="round"
  />
</svg>