<svg
    width="22"
    height="26"
    viewBox="0 0 20 24"
    fill="none"
    xmlns="http://www.w3.org/2000/svg"
  >
    <path
      d="M14.2305 2.49895H4.23047C2.02133 2.49895 0.230469 4.28981 0.230469 6.49895V17.4989C0.230469 19.7081 2.02133 21.4989 4.23047 21.4989H14.2305C16.4396 21.4989 18.2305 19.7081 18.2305 17.4989V6.49895C18.2305 4.28981 16.4396 2.49895 14.2305 2.49895Z"
      fill="#FEC79D"
    />
    <path
      d="M14.2305 2.99895H4.23047C2.29747 2.99895 0.730469 4.56595 0.730469 6.49895V17.4989C0.730469 19.4319 2.29747 20.9989 4.23047 20.9989H14.2305C16.1635 20.9989 17.7305 19.4319 17.7305 17.4989V6.49895C17.7305 4.56595 16.1635 2.99895 14.2305 2.99895Z"
      stroke="#094394"
    />
    <path
      d="M7.70164 0.241884C6.10278 0.241884 4.80664 1.5378 4.80664 3.13638C4.80664 4.73497 6.10278 6.03088 7.70164 6.03088L16.3846 6.03088C17.9835 6.03088 19.2796 4.73497 19.2796 3.13638C19.2796 1.5378 17.9835 0.241884 16.3846 0.241884L7.70164 0.241884Z"
      fill="#FEC79D"
    />
    <path
      d="M7.70164 0.741884C6.37892 0.741884 5.30664 1.81394 5.30664 3.13638C5.30664 4.45883 6.37892 5.53088 7.70164 5.53088L16.3846 5.53088C17.7074 5.53088 18.7796 4.45883 18.7796 3.13638C18.7796 1.81394 17.7074 0.741884 16.3846 0.741884L7.70164 0.741884Z"
      stroke="#094394"
    />
    <path
      d="M7.02586 17.8019C5.427 17.8019 4.13086 19.0979 4.13086 20.6964C4.13086 22.295 5.427 23.5909 7.02586 23.5909H15.7089C17.3077 23.5909 18.6039 22.295 18.6039 20.6964C18.6039 19.0979 17.3077 17.8019 15.7089 17.8019H7.02586Z"
      fill="#FEC79D"
    />
    <path
      d="M7.02586 18.3019C5.70314 18.3019 4.63086 19.374 4.63086 20.6964C4.63086 22.0189 5.70314 23.0909 7.02586 23.0909H15.7089C17.0316 23.0909 18.1039 22.0189 18.1039 20.6964C18.1039 19.374 17.0316 18.3019 15.7089 18.3019H7.02586Z"
      stroke="#094394"
    />
    <path
      d="M19.2305 5.99895C19.2305 4.61824 18.1112 3.49895 16.7305 3.49895C15.3498 3.49895 14.2305 4.61824 14.2305 5.99895V17.9989C14.2305 19.3797 15.3498 20.4989 16.7305 20.4989C18.1112 20.4989 19.2305 19.3797 19.2305 17.9989V5.99895Z"
      fill="#FEC79D"
    />
    <path
      d="M18.7305 5.99895C18.7305 4.89438 17.835 3.99895 16.7305 3.99895C15.6259 3.99895 14.7305 4.89438 14.7305 5.99895V17.9989C14.7305 19.1035 15.6259 19.9989 16.7305 19.9989C17.835 19.9989 18.7305 19.1035 18.7305 17.9989V5.99895Z"
      stroke="#094394"
    />
  </svg>