<svg
  width="15"
  height="17"
  viewBox="0 0 15 17"
  fill="none"
  xmlns="http://www.w3.org/2000/svg"
>
  <path
    d="M14.1787 9.98555C14.1783 9.61875 14.0487 9.26365 13.8122 8.98184C13.5757 8.70004 13.2474 8.50932 12.8841 8.44275V3.7116C12.8845 3.4194 12.8143 3.13136 12.6793 2.87169C12.5444 2.61201 12.3487 2.38827 12.1086 2.21927C11.8686 2.05026 11.5912 1.94092 11.2997 1.90043C11.0083 1.85993 10.7113 1.88946 10.4338 1.98655L8.64589 1.38653C7.2973 0.923699 5.83951 0.875344 4.46282 1.24777C2.67947 1.73604 1.65674 2.76957 1.49888 4.23812C1.35769 4.42257 1.2475 4.62848 1.17257 4.84789L1.03359 5.2559C0.998196 5.36023 0.99912 5.47334 1.03621 5.57709C1.07331 5.68083 1.14442 5.7692 1.23814 5.82801C1.33186 5.88683 1.44276 5.91268 1.55305 5.90142C1.66334 5.89016 1.76662 5.84244 1.84633 5.76592C1.90231 5.71239 1.96442 5.66557 2.03139 5.62641V8.44275C1.66066 8.51061 1.3266 8.70789 1.08956 8.99896C0.852531 9.29003 0.728162 9.65568 0.738926 10.0299C0.749689 10.404 0.894876 10.762 1.14826 11.0392C1.40163 11.3163 1.74649 11.4944 2.12052 11.5411C2.31806 12.6192 2.83941 13.6127 3.61609 14.3912C4.11576 14.9007 4.71325 15.3056 5.37322 15.582C6.03319 15.8583 6.74225 16.0004 7.4585 16C8.73507 15.9996 9.97067 15.5525 10.9483 14.7374C11.9259 13.9222 12.5829 12.791 12.804 11.5426C13.1844 11.4928 13.5335 11.3073 13.7864 11.0209C14.0393 10.7345 14.1787 10.3665 14.1787 9.98555ZM11.7466 2.66082C11.9223 2.77451 12.0664 2.93027 12.1657 3.11376C12.265 3.29725 12.3161 3.50257 12.3146 3.71085V7.41297C11.8794 7.34495 11.483 7.12502 11.1965 6.79273C10.91 6.46044 10.7523 6.03757 10.7518 5.60016L10.7284 2.49056C10.9005 2.4451 11.0804 2.43677 11.256 2.46614C11.4317 2.49551 11.5989 2.56189 11.7466 2.66082ZM1.6575 5.19215L1.71264 5.02939C1.78438 4.81834 1.90014 4.62468 2.05237 4.46106C2.2046 4.29745 2.38987 4.16755 2.59609 4.07985C2.80231 3.99216 3.02483 3.94863 3.24914 3.95212C3.47344 3.95562 3.69448 4.00604 3.89783 4.10011C4.3214 4.2937 4.79636 4.34716 5.25282 4.25265C5.70929 4.15814 6.12315 3.92064 6.4335 3.5751L6.50375 3.49559C6.52855 3.46777 6.54758 3.43537 6.55977 3.40024C6.57196 3.36511 6.57705 3.32794 6.57477 3.29085C6.5725 3.25377 6.56288 3.21749 6.54648 3.18409C6.53009 3.15069 6.50722 3.12083 6.4792 3.09621C6.45118 3.07158 6.41855 3.05268 6.38317 3.04058C6.34779 3.02848 6.31036 3.02342 6.27301 3.02568C6.23566 3.02794 6.19912 3.03749 6.16549 3.05377C6.13185 3.07006 6.10178 3.09276 6.07698 3.12058L6.00674 3.20009C5.77791 3.4546 5.47287 3.62948 5.13649 3.69901C4.8001 3.76854 4.45012 3.72905 4.13803 3.58635C3.86212 3.45891 3.56228 3.39057 3.25801 3.38579C2.95375 3.38101 2.65188 3.43989 2.37205 3.5586C2.32068 3.58035 2.27083 3.6051 2.22098 3.6336C2.43853 3.15623 2.77039 2.73895 3.18761 2.41813C3.60483 2.09732 4.09474 1.88272 4.61465 1.79304C5.8812 1.45038 7.22236 1.49481 8.4631 1.92054L10.1588 2.49206L10.1807 3.95311C9.43069 4.97152 8.31873 5.66865 7.07025 5.90317C5.79208 6.14732 4.46839 5.88773 3.37967 5.1794C3.12384 5.01132 2.82337 4.92276 2.51663 4.92503C2.20988 4.9273 1.91077 5.0203 1.6575 5.19215ZM1.30702 9.9848C1.30722 9.76821 1.37794 9.55749 1.50862 9.38407C1.6393 9.21065 1.82294 9.08383 2.03214 9.02252V10.5556C2.03214 10.6881 2.03693 10.8198 2.0465 10.9508C1.83412 10.892 1.64694 10.7658 1.51344 10.5916C1.37995 10.4173 1.30746 10.2045 1.30702 9.98555V9.9848ZM10.8915 14.0199C10.4417 14.469 9.90671 14.825 9.31744 15.0675C8.72817 15.3099 8.09634 15.4339 7.4585 15.4322C6.81847 15.433 6.18477 15.3066 5.59477 15.0603C5.00476 14.814 4.47041 14.4528 4.02322 13.9982C3.1103 13.0826 2.59949 11.8455 2.60243 10.5571V5.49366C2.76846 5.50614 2.92857 5.56034 3.06771 5.65116C4.27987 6.43983 5.7537 6.72875 7.17675 6.45669C8.32515 6.24154 9.37632 5.67321 10.1815 4.83214V5.59941C10.1816 6.1869 10.3988 6.75393 10.7917 7.19309C11.1847 7.63225 11.7263 7.91303 12.3138 7.98224V10.6073C12.316 11.2413 12.1913 11.8694 11.9472 12.4552C11.703 13.041 11.3442 13.5729 10.8915 14.0199ZM12.8728 10.9508C12.8796 10.8376 12.8841 10.7258 12.8841 10.6103V9.02477C13.0941 9.08631 13.2783 9.21397 13.4089 9.3885C13.5395 9.56303 13.6094 9.77498 13.6081 9.99241C13.6069 10.2098 13.5344 10.421 13.4018 10.594C13.2692 10.767 13.0835 10.8925 12.8728 10.9516V10.9508Z"
    fill="#304CB2"
    stroke="#304CB2"
    strokeWidth="0.4"
  />
</svg>