<svg
    width="25"
    height="25"
    viewBox="0 0 25 25"
    fill="none"
    xmlns="http://www.w3.org/2000/svg"
  >
    <path
      d="M12.5 24C18.8513 24 24 18.8513 24 12.5C24 6.14873 18.8513 1 12.5 1C6.14873 1 1 6.14873 1 12.5C1 18.8513 6.14873 24 12.5 24Z"
      fill="#F2F5F8"
    />
    <path
      d="M12.5004 23.739C18.7073 23.739 23.739 18.7073 23.739 12.5004C23.739 6.29343 18.7073 1.26172 12.5004 1.26172C6.29343 1.26172 1.26172 6.29343 1.26172 12.5004C1.26172 18.7073 6.29343 23.739 12.5004 23.739Z"
      stroke="#E2E2E2"
    />
    <path
      opacity="0.04"
      d="M2.04201 13C2.01401 12.694 2.00001 12.3855 2.00001 12.0835C1.99781 10.7317 2.2788 9.39473 2.82498 8.15822C3.35741 6.95244 4.12195 5.86318 5.07503 4.95266C6.03998 4.02674 7.17279 3.29331 8.41263 2.79202C9.71077 2.26558 11.0989 1.9966 12.4998 2.00003C13.9008 1.99674 15.2891 2.26588 16.5874 2.79251C17.8273 3.29368 18.9601 4.02712 19.925 4.95315C20.8781 5.86366 21.6426 6.95292 22.175 8.15871C22.7211 9.39525 23.0021 10.7322 23 12.084C23 12.387 22.9855 12.6936 22.9575 12.9951C22.7095 10.478 21.5089 8.15036 19.6014 6.48928C17.6376 4.76788 15.1126 3.82342 12.5012 3.83303C9.88979 3.82342 7.36484 4.76788 5.40109 6.48928C3.49097 8.15079 2.28908 10.4805 2.04201 13Z"
      fill="black"
    />
    <path
      d="M18.751 15.1777C18.7385 15.0355 18.3768 11.7031 12.4893 11.7031C6.61383 11.7031 6.24061 15.035 6.22754 15.1766V15.2111C6.22754 17.4657 8.33831 17.4657 9.73504 17.4657H15.2462C16.6429 17.4657 18.7537 17.4657 18.7537 15.2111L18.751 15.1777ZM15.2462 16.7145H9.73452C7.83963 16.7145 6.98863 16.5002 6.9787 15.2331C7.00588 15.0371 7.31011 13.4077 9.92688 12.7397L9.46322 14.2556C9.44767 14.3031 9.44175 14.3532 9.44581 14.4031C9.44987 14.4529 9.46383 14.5014 9.48687 14.5457C9.50991 14.5901 9.54156 14.6294 9.57998 14.6614C9.6184 14.6934 9.66281 14.7174 9.71062 14.732C9.75842 14.7466 9.80866 14.7515 9.85839 14.7464C9.90812 14.7414 9.95634 14.7265 10.0002 14.7026C10.0441 14.6786 10.0828 14.6462 10.114 14.6072C10.1452 14.5681 10.1683 14.5232 10.182 14.4751L10.7632 12.5714C11.2976 12.4955 11.8366 12.4567 12.3764 12.4553L11.827 14.2577C11.8114 14.3052 11.8055 14.3553 11.8096 14.4051C11.8136 14.455 11.8276 14.5035 11.8506 14.5478C11.8737 14.5922 11.9053 14.6315 11.9438 14.6635C11.9822 14.6955 12.0266 14.7195 12.0744 14.7341C12.1222 14.7487 12.1724 14.7536 12.2222 14.7485C12.2719 14.7435 12.3201 14.7286 12.364 14.7046C12.4079 14.6807 12.4466 14.6483 12.4778 14.6093C12.509 14.5702 12.5321 14.5253 12.5457 14.4772L13.1532 12.4909C13.1532 12.4856 13.1532 12.4804 13.1563 12.4752C13.6682 12.4974 14.1777 12.5581 14.6806 12.6566L14.1913 14.2603C14.1757 14.3078 14.1698 14.3579 14.1739 14.4078C14.1779 14.4576 14.1919 14.5061 14.2149 14.5505C14.238 14.5948 14.2696 14.6341 14.308 14.6661C14.3465 14.6981 14.3909 14.7221 14.4387 14.7367C14.4865 14.7513 14.5367 14.7562 14.5865 14.7511C14.6362 14.7461 14.6844 14.7312 14.7283 14.7073C14.7722 14.6833 14.8109 14.6509 14.8421 14.6119C14.8733 14.5728 14.8964 14.5279 14.91 14.4799L15.4103 12.8416C17.7155 13.5572 17.979 15.0596 18.0014 15.23C17.9926 16.4997 17.1416 16.7145 15.2462 16.7145Z"
      fill="#1886D9"
    />
    <path
      d="M10.4607 10.3729H11.1559C11.9923 9.35878 10.3196 8.34469 11.1559 7.33008H10.4607C9.62592 8.34469 11.2955 9.35878 10.4607 10.3729Z"
      fill="#1886D9"
    />
    <path
      d="M12.1418 10.3729H12.8376C13.6739 9.35878 12.0012 8.34469 12.8376 7.33008H12.1418C11.3055 8.34469 12.9782 9.35878 12.1418 10.3729Z"
      fill="#1886D9"
    />
    <path
      d="M13.825 10.3729H14.5207C15.3571 9.35878 13.6844 8.34469 14.5207 7.33008H13.825C12.9902 8.34469 14.6598 9.35878 13.825 10.3729Z"
      fill="#1886D9"
    />
  </svg>