
  <svg
    width="24"
    height="24"
    viewBox="0 0 24 24"
    fill="none"
    xmlns="http://www.w3.org/2000/svg"
  >
    <path
      d="M12 23C18.0751 23 23 18.0751 23 12C23 5.92487 18.0751 1 12 1C5.92487 1 1 5.92487 1 12C1 18.0751 5.92487 23 12 23Z"
      fill="#F2F5F8"
    />
    <path
      d="M12 22.75C17.9371 22.75 22.75 17.9371 22.75 12C22.75 6.06294 17.9371 1.25 12 1.25C6.06294 1.25 1.25 6.06294 1.25 12C1.25 17.9371 6.06294 22.75 12 22.75Z"
      stroke="#E2E2E2"
    />
    <path
      opacity="0.04"
      d="M1.54201 12.5C1.51401 12.194 1.50001 11.8855 1.50001 11.5835C1.49781 10.2318 1.7788 8.89475 2.32496 7.65824C2.85738 6.45246 3.62191 5.36319 4.57496 4.45267C5.53989 3.52674 6.67268 2.79332 7.91249 2.29202C9.2106 1.76558 10.5987 1.4966 11.9995 1.50003C13.4005 1.49674 14.7888 1.76588 16.087 2.29251C17.3269 2.79369 18.4597 3.52713 19.4246 4.45316C20.3776 5.36367 21.1422 6.45294 21.6746 7.65872C22.2206 8.89527 22.5016 10.2323 22.4995 11.584C22.4995 11.887 22.485 12.1936 22.457 12.4951C22.2091 9.97798 21.0084 7.65037 19.101 5.98929C17.1373 4.26789 14.6124 3.32343 12.001 3.33304C9.38962 3.32343 6.86472 4.26789 4.90101 5.98929C2.99094 7.65081 1.78908 9.98051 1.54201 12.5Z"
      fill="black"
    />
    <path
      d="M14.54 8.70661H13.6095V6.84511H13.9195C14.0017 6.84511 14.0807 6.81242 14.1388 6.75424C14.197 6.69606 14.2297 6.61714 14.2297 6.53486C14.2297 6.45258 14.197 6.37366 14.1388 6.31548C14.0807 6.2573 14.0017 6.22461 13.9195 6.22461H10.1965C10.1142 6.22461 10.0353 6.2573 9.97708 6.31548C9.9189 6.37366 9.88621 6.45258 9.88621 6.53486C9.88621 6.61714 9.9189 6.69606 9.97708 6.75424C10.0353 6.81242 10.1142 6.84511 10.1965 6.84511H10.5065V8.70661H9.57596C9.24683 8.70661 8.93117 8.83736 8.69844 9.07009C8.46571 9.30282 8.33496 9.61848 8.33496 9.94761V16.7746C8.33496 17.1037 8.46571 17.4194 8.69844 17.6521C8.93117 17.8849 9.24683 18.0156 9.57596 18.0156V18.3256C9.57596 18.4079 9.60865 18.4868 9.66683 18.545C9.72502 18.6032 9.80393 18.6359 9.88621 18.6359C9.96849 18.6359 10.0474 18.6032 10.1056 18.545C10.1638 18.4868 10.1965 18.4079 10.1965 18.3256V18.0156H13.9195V18.3256C13.9195 18.4079 13.9521 18.4868 14.0103 18.545C14.0685 18.6032 14.1474 18.6359 14.2297 18.6359C14.312 18.6359 14.3909 18.6032 14.4491 18.545C14.5073 18.4868 14.54 18.4079 14.54 18.3256V18.0156C14.8691 18.0156 15.1847 17.8849 15.4175 17.6521C15.6502 17.4194 15.781 17.1037 15.781 16.7746V9.94761C15.781 9.61848 15.6502 9.30282 15.4175 9.07009C15.1847 8.83736 14.8691 8.70661 14.54 8.70661ZM11.1275 6.84511H12.989V8.70661H11.1275V6.84511ZM13.299 17.3951H10.817V15.5321C10.8172 15.3676 10.8827 15.21 10.999 15.0936C11.1153 14.9773 11.273 14.9119 11.4375 14.9116H12.6785C12.843 14.9117 13.0007 14.9772 13.1171 15.0935C13.2334 15.2098 13.2988 15.3676 13.299 15.5321V17.3951ZM15.1605 16.7746C15.1602 16.9391 15.0947 17.0968 14.9784 17.2131C14.8621 17.3294 14.7044 17.3948 14.54 17.3951H13.9195V15.5321C13.9195 15.203 13.7887 14.8873 13.556 14.6546C13.3232 14.4219 13.0076 14.2911 12.6785 14.2911H11.435C11.1058 14.2911 10.7902 14.4219 10.5574 14.6546C10.3247 14.8873 10.194 15.203 10.194 15.5321V17.3936H9.57346C9.40893 17.3935 9.25118 17.3281 9.13485 17.2117C9.01851 17.0954 8.95309 16.9376 8.95296 16.7731V9.94761C8.9527 9.86572 8.96863 9.78459 8.99984 9.70889C9.03106 9.63318 9.07694 9.5644 9.13484 9.50649C9.19275 9.44859 9.26153 9.40271 9.33723 9.37149C9.41294 9.34028 9.49407 9.32435 9.57596 9.32461H14.54C14.7045 9.32474 14.8622 9.39016 14.9786 9.5065C15.0949 9.62283 15.1603 9.78058 15.1605 9.94511V16.7746Z"
      fill="#1886D9"
    />
  </svg>