<svg
  width="60"
  height="22"
  viewBox="0 0 60 22"
  fill="none"
  xmlns="http://www.w3.org/2000/svg"
>
  <path
    d="M0 10.5938L10.458 0H59.4978V21.623H9.04492L0 10.5938Z"
    fill="#1886D9"
  />
  <path
    d="M12.9099 13.6028C14.2906 13.6028 15.4099 12.4835 15.4099 11.1028C15.4099 9.72213 14.2906 8.60284 12.9099 8.60284C11.5292 8.60284 10.4099 9.72213 10.4099 11.1028C10.4099 12.4835 11.5292 13.6028 12.9099 13.6028Z"
    fill="white"
  />
  <path
    d="M21.6829 6.29481H24.4909C25.4442 6.29481 26.2762 6.49415 26.9869 6.89281C27.6976 7.28281 28.2436 7.82881 28.6249 8.53081C29.0062 9.23281 29.1969 10.0388 29.1969 10.9488C29.1969 11.8588 29.0062 12.6648 28.6249 13.3668C28.2436 14.0688 27.6976 14.6191 26.9869 15.0178C26.2762 15.4078 25.4442 15.6028 24.4909 15.6028H21.6829V6.29481ZM24.4909 14.5498C25.5916 14.5498 26.4626 14.2335 27.1039 13.6008C27.7539 12.9681 28.0789 12.0841 28.0789 10.9488C28.0789 9.81348 27.7539 8.92948 27.1039 8.29681C26.4626 7.66415 25.5916 7.34781 24.4909 7.34781H22.7749V14.5498H24.4909ZM33.3631 15.8108C32.7304 15.8108 32.1628 15.6591 31.6601 15.3558C31.1574 15.0525 30.7631 14.6365 30.4771 14.1078C30.1998 13.5705 30.0611 12.9681 30.0611 12.3008C30.0611 11.6595 30.1911 11.0701 30.4511 10.5328C30.7198 9.99548 31.0968 9.56648 31.5821 9.24581C32.0674 8.92515 32.6308 8.76481 33.2721 8.76481C33.9221 8.76481 34.4854 8.91215 34.9621 9.20681C35.4388 9.49281 35.8028 9.89148 36.0541 10.4028C36.3141 10.9141 36.4441 11.4991 36.4441 12.1578C36.4441 12.2878 36.4311 12.4005 36.4051 12.4958H31.1661C31.1921 12.9985 31.3134 13.4231 31.5301 13.7698C31.7468 14.1165 32.0198 14.3765 32.3491 14.5498C32.6871 14.7231 33.0381 14.8098 33.4021 14.8098C34.2514 14.8098 34.9058 14.4111 35.3651 13.6138L36.3011 14.0688C36.0151 14.6061 35.6251 15.0308 35.1311 15.3428C34.6458 15.6548 34.0564 15.8108 33.3631 15.8108ZM35.2741 11.5858C35.2568 11.3085 35.1788 11.0311 35.0401 10.7538C34.9014 10.4765 34.6804 10.2425 34.3771 10.0518C34.0824 9.86115 33.7098 9.76581 33.2591 9.76581C32.7391 9.76581 32.2971 9.93481 31.9331 10.2728C31.5778 10.6021 31.3438 11.0398 31.2311 11.5858H35.2741ZM39.9198 15.8108C39.4344 15.8108 39.0011 15.7155 38.6198 15.5248C38.2384 15.3341 37.9438 15.0741 37.7358 14.7448C37.5278 14.4068 37.4238 14.0255 37.4238 13.6008C37.4238 12.8988 37.6881 12.3528 38.2168 11.9628C38.7454 11.5641 39.4128 11.3648 40.2188 11.3648C40.6174 11.3648 40.9858 11.4081 41.3238 11.4948C41.6704 11.5815 41.9348 11.6811 42.1168 11.7938V11.3908C42.1168 10.8968 41.9434 10.5025 41.5968 10.2078C41.2501 9.90448 40.8124 9.75281 40.2838 9.75281C39.9111 9.75281 39.5688 9.83515 39.2568 9.99981C38.9448 10.1558 38.6978 10.3768 38.5158 10.6628L37.6838 10.0388C37.9438 9.64015 38.2991 9.32815 38.7498 9.10281C39.2091 8.87748 39.7161 8.76481 40.2708 8.76481C41.1721 8.76481 41.8784 9.00315 42.3898 9.47981C42.9098 9.94781 43.1698 10.5891 43.1698 11.4038V15.6028H42.1168V14.6538H42.0648C41.8741 14.9745 41.5881 15.2475 41.2068 15.4728C40.8254 15.6981 40.3964 15.8108 39.9198 15.8108ZM40.0238 14.8358C40.3964 14.8358 40.7431 14.7405 41.0638 14.5498C41.3844 14.3591 41.6401 14.1035 41.8308 13.7828C42.0214 13.4621 42.1168 13.1111 42.1168 12.7298C41.9088 12.5911 41.6531 12.4785 41.3498 12.3918C41.0464 12.3051 40.7258 12.2618 40.3878 12.2618C39.7811 12.2618 39.3218 12.3875 39.0098 12.6388C38.7064 12.8901 38.5548 13.2151 38.5548 13.6138C38.5548 13.9778 38.6934 14.2725 38.9708 14.4978C39.2481 14.7231 39.5991 14.8358 40.0238 14.8358ZM44.707 6.29481H45.812V15.6028H44.707V6.29481Z"
    fill="white"
  />
</svg>