<svg
      width="22"
      height="22"
      viewBox="0 0 22 22"
      fill="none"
      xmlns="http://www.w3.org/2000/svg"
    >
      <g clipPath="url(#clip0_468_195)">
        <path
          d="M18.3605 6.20039L13.7371 1.57695C13.6082 1.44805 13.4342 1.375 13.2516 1.375H4.125C3.74473 1.375 3.4375 1.68223 3.4375 2.0625V19.9375C3.4375 20.3178 3.74473 20.625 4.125 20.625H17.875C18.2553 20.625 18.5625 20.3178 18.5625 19.9375V6.68809C18.5625 6.50547 18.4895 6.3293 18.3605 6.20039ZM16.977 7.00391H12.9336V2.96055L16.977 7.00391ZM17.0156 19.0781H4.98438V11V2.92188H11.4727V7.5625C11.4727 7.80182 11.5677 8.03133 11.7369 8.20055C11.9062 8.36978 12.1357 8.46484 12.375 8.46484H17.0156V19.0781ZM10.8281 13.2773H6.875C6.78047 13.2773 6.70313 13.3547 6.70313 13.4492V14.4805C6.70313 14.575 6.78047 14.6523 6.875 14.6523H10.8281C10.9227 14.6523 11 14.575 11 14.4805V13.4492C11 13.3547 10.9227 13.2773 10.8281 13.2773ZM6.70313 10.5273V11.5586C6.70313 11.6531 6.78047 11.7305 6.875 11.7305H15.125C15.2195 11.7305 15.2969 11.6531 15.2969 11.5586V10.5273C15.2969 10.4328 15.2195 10.3555 15.125 10.3555H6.875C6.78047 10.3555 6.70313 10.4328 6.70313 10.5273Z"
          fill="var(--t-common-primary)"
        />
        <ellipse cx="14.5" cy="16.5" rx="5.5" ry="4.5" fill="white" />
        <path
          d="M8.0863 17.2579C9.50315 20.2425 11.6449 21.7446 14.5159 21.7446C17.3885 21.7446 19.5287 20.2425 20.9455 17.2564C21.0606 17.0143 21.0606 16.7333 20.9455 16.4867M8.0863 17.2579L8.53842 17.0444C8.53837 17.0442 8.53831 17.0441 8.53825 17.044M8.0863 17.2579C8.02947 17.1375 8 17.0061 8 16.873C8 16.7399 8.02947 16.6085 8.0863 16.4882M8.0863 17.2579L8.53799 17.0435C8.53808 17.0436 8.53817 17.0438 8.53825 17.044M8.53825 17.044C9.21919 18.4782 10.0586 19.5234 11.0422 20.2106C12.0216 20.8949 13.1726 21.2446 14.5159 21.2446C15.86 21.2446 17.011 20.8949 17.9902 20.2105C18.9736 19.523 19.8128 18.4774 20.4938 17.0421L20.494 17.0417C20.5437 16.937 20.5456 16.8128 20.493 16.6993M8.53825 17.044C8.51306 16.9905 8.5 16.9321 8.5 16.873C8.5 16.8139 8.51307 16.7555 8.53827 16.702M20.493 16.6993C20.4933 16.6999 20.4936 16.7005 20.4939 16.7011L20.9455 16.4867M20.493 16.6993C19.8122 15.2657 18.973 14.221 17.9897 13.534C17.0102 12.8496 15.8592 12.5 14.5159 12.5C13.1718 12.5 12.0209 12.8496 11.0417 13.5341C10.0583 14.2214 9.21926 15.2669 8.53827 16.702M20.493 16.6993C20.4928 16.6989 20.4926 16.6985 20.4924 16.6981L20.9455 16.4867M20.9455 16.4867C19.5287 13.502 17.387 12 14.5159 12C11.6434 12 9.50315 13.502 8.0863 16.4882M8.0863 16.4882L8.53803 16.7025C8.53811 16.7023 8.53819 16.7022 8.53827 16.702M8.0863 16.4882L8.53842 16.7017C8.53837 16.7018 8.53832 16.7019 8.53827 16.702M8.64503 16.6546L8.53971 16.8723L8.64503 17.09C9.29359 18.4307 10.0953 19.4562 11.0821 20.1454C12.074 20.8382 13.2207 21.1685 14.5159 21.1685C15.8118 21.1685 16.9589 20.8382 17.9509 20.1454C18.9378 19.4562 19.7391 18.4306 20.3869 17.0898L20.4921 16.8722L20.3868 16.6546C19.7383 15.3138 18.9366 14.2884 17.9498 13.5991C16.9578 12.9064 15.8111 12.5761 14.5159 12.5761C13.2207 12.5761 12.074 12.9064 11.0821 13.5991C10.0953 14.2884 9.29359 15.3138 8.64503 16.6546Z"
          fill="#F5F5F5"
          stroke="var(--t-accessibility-gradient)"
        />
        <circle
          cx="14.5"
          cy="16.5"
          r="2"
          fill="#F5F5F5"
          stroke="var(--t-accessibility-gradient)"
        />
      </g>
      <defs>
        <linearGradient
          id="paint0_linear_468_195"
          x1="8.21191"
          y1="16.6333"
          x2="20.7119"
          y2="16.6333"
          gradientUnits="userSpaceOnUse"
        >
          <stop offset="0.313074" stopColor="#FD8121" />
          <stop offset="1" stopColor="#EB0029" />
        </linearGradient>
        <linearGradient
          id="paint1_linear_468_195"
          x1="12.0813"
          y1="16.3774"
          x2="16.8772"
          y2="16.3774"
          gradientUnits="userSpaceOnUse"
        >
          <stop offset="0.313074" stopColor="#FD8121" />
          <stop offset="1" stopColor="#EB0029" />
        </linearGradient>
        <clipPath id="clip0_468_195">
          <rect width="22" height="22" fill="white" />
        </clipPath>
      </defs>
    </svg>