<svg
    width="44"
    height="139"
    viewBox="0 0 44 139"
    fill="none"
    xmlns="http://www.w3.org/2000/svg"
  >
    <path
      d="M0.910156 74.0262H12.4902L21.4482 103.526L11.6161 103.741L0.910156 74.0262Z"
      fill="#D6D5D5"
    />
    <path
      d="M0.691406 65.2862H12.2664L21.2204 35.8202L11.3934 35.6022L0.691406 65.2862Z"
      fill="#D6D5D5"
    />
    <path
      d="M14.623 29.7092L24.669 29.9272L29.91 25.1272L27.51 8.32123C27.51 8.32123 20.37 11.0992 14.623 29.7092Z"
      fill="#D6D5D5"
    />
    <path
      d="M31.2207 5.91827L32.9677 22.7242C32.9677 22.7242 41.6677 11.2903 42.7947 5.48126C43.9217 -0.327738 41.1817 -1.81773 31.2207 5.91827Z"
      fill="#D6D5D5"
    />
    <path
      d="M14.8477 109.64L24.8987 109.422L30.1427 114.229L27.7386 131.053C27.7386 131.053 20.5977 128.27 14.8477 109.64Z"
      fill="#D6D5D5"
    />
    <path
      d="M31.4551 133.456L33.2031 116.632C33.2031 116.632 41.9031 128.078 43.0351 133.893C44.1671 139.708 41.4211 141.199 31.4551 133.456Z"
      fill="#D6D5D5"
    />
  </svg>