<svg
    width="24"
    height="26"
    viewBox="0 0 22 24"
    fill="none"
    xmlns="http://www.w3.org/2000/svg"
  >
    <path
      d="M14.002 2.499H4.00195C1.79281 2.499 0.00195312 4.28986 0.00195312 6.499V17.499C0.00195312 19.7081 1.79281 21.499 4.00195 21.499H14.002C16.2111 21.499 18.002 19.7081 18.002 17.499V6.499C18.002 4.28986 16.2111 2.499 14.002 2.499Z"
      fill="white"
    />
    <path
      d="M14.002 2.999H4.00195C2.06896 2.999 0.501953 4.566 0.501953 6.499V17.499C0.501953 19.432 2.06896 20.999 4.00195 20.999H14.002C15.9349 20.999 17.502 19.432 17.502 17.499V6.499C17.502 4.566 15.9349 2.999 14.002 2.999Z"
      stroke="#094394"
    />
    <path
      d="M7.15477 0.296937C5.5559 0.296937 4.25977 1.59285 4.25977 3.19144C4.25977 4.79003 5.5559 6.08594 7.15477 6.08594L15.8378 6.08594C17.4366 6.08594 18.7328 4.79003 18.7328 3.19144C18.7328 1.59285 17.4366 0.296937 15.8378 0.296937L7.15477 0.296937Z"
      fill="white"
    />
    <path
      d="M7.15477 0.796937C5.83204 0.796937 4.75977 1.86899 4.75977 3.19144C4.75977 4.51388 5.83204 5.58594 7.15477 5.58594L15.8378 5.58594C17.1605 5.58594 18.2328 4.51388 18.2328 3.19144C18.2328 1.86899 17.1605 0.796937 15.8378 0.796937L7.15477 0.796937Z"
      stroke="#094394"
    />
    <path
      d="M6.47898 17.857C4.88012 17.857 3.58398 19.1529 3.58398 20.7515C3.58398 22.3501 4.88012 23.646 6.47898 23.646H15.162C16.7608 23.646 18.057 22.3501 18.057 20.7515C18.057 19.1529 16.7608 17.857 15.162 17.857H6.47898Z"
      fill="white"
    />
    <path
      d="M6.47898 18.357C5.15626 18.357 4.08398 19.4291 4.08398 20.7515C4.08398 22.0739 5.15626 23.146 6.47898 23.146H15.162C16.4847 23.146 17.557 22.0739 17.557 20.7515C17.557 19.4291 16.4847 18.357 15.162 18.357H6.47898Z"
      stroke="#094394"
    />
    <path
      d="M21.002 6.999C21.002 5.066 19.4349 3.499 17.502 3.499C15.569 3.499 14.002 5.066 14.002 6.999V16.999C14.002 18.932 15.569 20.499 17.502 20.499C19.4349 20.499 21.002 18.932 21.002 16.999V6.999Z"
      fill="white"
    />
    <path
      d="M20.502 6.999C20.502 5.34215 19.1588 3.999 17.502 3.999C15.8451 3.999 14.502 5.34215 14.502 6.999V16.999C14.502 18.6559 15.8451 19.999 17.502 19.999C19.1588 19.999 20.502 18.6559 20.502 16.999V6.999Z"
      stroke="#094394"
    />
  </svg>