<svg
      width="26"
      height="26"
      viewBox="0 0 26 26"
      fill="none"
      xmlns="http://www.w3.org/2000/svg"
    >
      <path
        d="M35.9977 8.66827H-11V-0.23709C-10.9977 -0.339698 -10.9749 -0.440863 -10.9328 -0.534774C-10.8906 -0.628685 -10.83 -0.713495 -10.7545 -0.78435C-10.6789 -0.855205 -10.5899 -0.910709 -10.4925 -0.947673C-10.395 -0.984637 -10.2911 -1.00233 -10.1867 -0.999754H35.1867C35.2911 -1.00233 35.395 -0.984637 35.4925 -0.947673C35.5899 -0.910709 35.6789 -0.855205 35.7545 -0.78435C35.83 -0.713495 35.8906 -0.628685 35.9328 -0.534774C35.9749 -0.440863 35.9977 -0.339698 36 -0.23709V8.66827H35.9977Z"
        fill="#FAB446"
      />
      <path
        d="M35.1867 28H-10.1867C-10.2911 28.0026 -10.395 27.9849 -10.4925 27.948C-10.5899 27.911 -10.6789 27.8555 -10.7545 27.7846C-10.83 27.7138 -10.8906 27.629 -10.9328 27.5351C-10.9749 27.4412 -10.9977 27.34 -11 27.2374V18.332H35.9977V27.2374C35.9954 27.3398 35.9726 27.4408 35.9307 27.5345C35.8887 27.6283 35.8283 27.713 35.753 27.7838C35.6777 27.8546 35.5889 27.9102 35.4917 27.9473C35.3946 27.9844 35.2909 28.0023 35.1867 28Z"
        fill="#73AF00"
      />
      <path d="M35.9977 8.66797H-11V18.3326H35.9977V8.66797Z" fill="#F5F5F5" />
      <path
        d="M12.4978 17.6035C11.6784 17.5702 10.887 17.3008 10.2222 16.829C9.55728 16.3572 9.04824 15.7037 8.75833 14.9498C8.46842 14.1959 8.41045 13.3749 8.59161 12.5889C8.77277 11.8029 9.18508 11.0866 9.77726 10.5291C10.3694 9.97154 11.1153 9.59736 11.9222 9.4531C12.7291 9.30884 13.5613 9.40087 14.3154 9.71773C15.0695 10.0346 15.7121 10.5623 16.1634 11.2352C16.6146 11.9081 16.8547 12.6966 16.8535 13.5025C16.8276 14.6134 16.3546 15.6688 15.5381 16.4376C14.7216 17.2063 13.6283 17.6256 12.4978 17.6035ZM12.4978 10.163C11.8319 10.1907 11.189 10.4101 10.649 10.794C10.1089 11.1778 9.69554 11.709 9.46021 12.3218C9.22487 12.9345 9.17794 13.6017 9.32526 14.2405C9.47258 14.8792 9.80765 15.4613 10.2888 15.9145C10.77 16.3676 11.3761 16.6719 12.0318 16.7894C12.6874 16.9069 13.3638 16.8324 13.9768 16.5753C14.5897 16.3183 15.1123 15.8899 15.4796 15.3433C15.8469 14.7968 16.0427 14.1563 16.0426 13.5014C16.0215 12.5972 15.6366 11.7381 14.9722 11.1124C14.3077 10.4866 13.4179 10.1452 12.4978 10.163Z"
        fill="#41479B"
      />
      <path
        d="M12.4996 13.9665C12.7724 13.9665 12.9934 13.7584 12.9934 13.5018C12.9934 13.2452 12.7724 13.0371 12.4996 13.0371C12.2269 13.0371 12.0059 13.2452 12.0059 13.5018C12.0059 13.7584 12.2269 13.9665 12.4996 13.9665Z"
        fill="#41479B"
      />
      <path
        d="M12.4991 13.5718L11.2443 13.686L8.54883 13.5718V13.4325L11.2443 13.3184L12.4991 13.4325V13.5718Z"
        fill="#41479B"
      />
      <path
        d="M12.498 13.5718L13.7528 13.686L16.4483 13.5718V13.4325L13.7528 13.3184L12.498 13.4325V13.5718Z"
        fill="#41479B"
      />
      <path
        d="M12.4255 13.501L12.2988 12.3193L12.4255 9.78125H12.5742L12.7008 12.3193L12.5742 13.501H12.4255Z"
        fill="#41479B"
      />
      <path
        d="M12.4255 13.5L12.2988 14.6817L12.4255 17.2197H12.5742L12.7008 14.6817L12.5742 13.5H12.4255Z"
        fill="#41479B"
      />
      <path
        d="M12.4408 13.551L11.4637 12.7997L9.65234 10.9205L9.75691 10.8223L11.753 12.5348L12.55 13.4551L12.4408 13.551Z"
        fill="#41479B"
      />
      <path
        d="M12.4473 13.55L13.2443 14.4702L15.2404 16.1828L15.3449 16.0846L13.5289 14.2054L12.5518 13.4541L12.4473 13.55Z"
        fill="#41479B"
      />
      <path
        d="M12.4473 13.4463L13.2443 12.526L15.2404 10.8135L15.3449 10.9117L13.5289 12.7909L12.5518 13.5422L12.4473 13.4463Z"
        fill="#41479B"
      />
      <path
        d="M12.4408 13.4521L11.4637 14.2034L9.65234 16.0826L9.75691 16.1809L11.753 14.4683L12.55 13.5481L12.4408 13.4521Z"
        fill="#41479B"
      />
      <path
        d="M12.5266 13.5665L11.4159 14.1294L8.87724 14.9902L8.82031 14.8612L11.2602 13.78L12.4673 13.4375L12.5266 13.5665Z"
        fill="#41479B"
      />
      <path
        d="M12.5261 13.5664L13.7332 13.2239L16.1731 12.1427L16.1161 12.0137L13.5775 12.8745L12.4668 13.4374L12.5261 13.5664Z"
        fill="#41479B"
      />
      <path
        d="M12.4295 13.5283L11.8323 12.4825L10.918 10.0917L11.0551 10.0381L12.2041 12.3375L12.5678 13.4792L12.4295 13.5283Z"
        fill="#41479B"
      />
      <path
        d="M12.4297 13.5286L12.7933 14.6703L13.9412 16.9697L14.0783 16.916L13.164 14.5253L12.5668 13.4795L12.4297 13.5286Z"
        fill="#41479B"
      />
      <path
        d="M12.4693 13.5664L11.2621 13.2239L8.82227 12.1427L8.87919 12.0137L11.4178 12.8745L12.5285 13.4374L12.4693 13.5664Z"
        fill="#41479B"
      />
      <path
        d="M12.4707 13.5665L13.5814 14.1294L16.1201 14.9902L16.177 14.8612L13.7371 13.78L12.53 13.4375L12.4707 13.5665Z"
        fill="#41479B"
      />
      <path
        d="M12.4297 13.4753L12.7933 12.3336L13.9412 10.0342L14.0783 10.0879L13.164 12.4786L12.5668 13.5244L12.4297 13.4753Z"
        fill="#41479B"
      />
      <path
        d="M12.4295 13.4756L11.8323 14.5214L10.918 16.9121L11.0551 16.9658L12.2041 14.6664L12.5678 13.5247L12.4295 13.4756Z"
        fill="#41479B"
      />
      <path
        d="M12.4978 14.1276C12.8654 14.1276 13.1635 13.847 13.1635 13.5008C13.1635 13.1547 12.8654 12.874 12.4978 12.874C12.1301 12.874 11.832 13.1547 11.832 13.5008C11.832 13.847 12.1301 14.1276 12.4978 14.1276Z"
        fill="#F5F5F5"
      />
      <path
        d="M12.4993 13.8772C12.72 13.8772 12.899 13.7091 12.899 13.5016C12.899 13.2941 12.72 13.126 12.4993 13.126C12.2785 13.126 12.0996 13.2941 12.0996 13.5016C12.0996 13.7091 12.2785 13.8772 12.4993 13.8772Z"
        fill="#41479B"
      />
    </svg>