<svg
    width="23"
    height="16"
    viewBox="0 0 23 16"
    fill="none"
    xmlns="http://www.w3.org/2000/svg"
  >
    <path
      d="M22.734 5.5175H0V0.944504C0 0.840539 0.0412999 0.740835 0.114814 0.66732C0.188328 0.593806 0.288035 0.552505 0.392 0.552505H22.342C22.446 0.552505 22.5457 0.593806 22.6192 0.66732C22.6927 0.740835 22.734 0.840539 22.734 0.944504V5.5175Z"
      fill="#FAB446"
    />
    <path
      d="M22.342 15.4475H0.392C0.288035 15.4475 0.188328 15.4062 0.114814 15.3327C0.0412999 15.2592 0 15.1595 0 15.0555L0 10.4825H22.734V15.0555C22.734 15.107 22.7239 15.158 22.7042 15.2055C22.6845 15.2531 22.6556 15.2963 22.6192 15.3327C22.5828 15.3691 22.5396 15.3979 22.492 15.4176C22.4445 15.4373 22.3935 15.4475 22.342 15.4475Z"
      fill="#73AF00"
    />
    <path d="M22.734 5.5175H0V10.4825H22.734V5.5175Z" fill="#F5F5F5" />
    <path
      d="M11.3668 10.1075C10.95 10.1075 10.5427 9.98392 10.1962 9.7524C9.84969 9.52088 9.57963 9.1918 9.42015 8.8068C9.26068 8.4218 9.21895 7.99816 9.30025 7.58944C9.38155 7.18072 9.58223 6.80528 9.8769 6.51061C10.1716 6.21594 10.547 6.01528 10.9557 5.93398C11.3644 5.85268 11.7881 5.8944 12.1731 6.05387C12.5581 6.21335 12.8872 6.48341 13.1187 6.8299C13.3502 7.1764 13.4738 7.58377 13.4738 8.0005C13.4732 8.55914 13.2511 9.09476 12.8561 9.48978C12.461 9.88481 11.9254 10.107 11.3668 10.1075ZM11.3668 6.2855C11.0276 6.2855 10.696 6.38607 10.414 6.57452C10.1319 6.76296 9.91211 7.03081 9.78231 7.34419C9.6525 7.65756 9.61855 8.0024 9.68473 8.33508C9.7509 8.66775 9.91422 8.97333 10.1541 9.21317C10.3939 9.45302 10.6995 9.61636 11.0322 9.68253C11.3649 9.74871 11.7097 9.71474 12.0231 9.58494C12.3365 9.45513 12.6043 9.23533 12.7927 8.9533C12.9812 8.67127 13.0818 8.33969 13.0818 8.0005C13.0812 7.54581 12.9004 7.10989 12.5789 6.78838C12.2574 6.46687 11.8214 6.28603 11.3668 6.2855Z"
      fill="#41479B"
    />
    <path
      d="M11.3669 8.23949C11.4989 8.23949 11.6059 8.13249 11.6059 8.00049C11.6059 7.86849 11.4989 7.76149 11.3669 7.76149C11.2349 7.76149 11.1279 7.86849 11.1279 8.00049C11.1279 8.13249 11.2349 8.23949 11.3669 8.23949Z"
      fill="#41479B"
    />
    <path
      d="M11.367 8.0365L10.76 8.09749L9.45996 8.0365V7.96449L10.76 7.90349L11.367 7.96449V8.0365Z"
      fill="#41479B"
    />
    <path
      d="M11.3667 8.0365L11.9737 8.09749L13.2737 8.0365V7.96449L11.9737 7.90349L11.3667 7.96449V8.0365Z"
      fill="#41479B"
    />
    <path
      d="M11.3305 8.0005L11.2695 7.39349L11.3305 6.09349H11.4025L11.4635 7.39349L11.4025 8.0005H11.3305Z"
      fill="#41479B"
    />
    <path
      d="M11.3305 7.9995L11.2695 8.60649L11.3305 9.90651H11.4025L11.4635 8.60649L11.4025 7.9995H11.3305Z"
      fill="#41479B"
    />
    <path
      d="M11.3408 8.02249L10.8678 7.63651L9.98877 6.67149L10.0398 6.6205L11.0048 7.4995L11.3908 7.9725L11.3408 8.02249Z"
      fill="#41479B"
    />
    <path
      d="M11.3408 8.02548L11.7268 8.49849L12.6918 9.3775L12.7428 9.32648L11.8638 8.36148L11.3908 7.97549L11.3408 8.02548Z"
      fill="#41479B"
    />
    <path
      d="M11.3408 7.9745L11.7268 7.5015L12.6918 6.6225L12.7428 6.67349L11.8638 7.6385L11.3908 8.02449L11.3408 7.9745Z"
      fill="#41479B"
    />
    <path
      d="M11.3408 7.97449L10.8678 8.36049L9.98877 9.3255L10.0398 9.3765L11.0048 8.49748L11.3908 8.02449L11.3408 7.97449Z"
      fill="#41479B"
    />
    <path
      d="M11.3809 8.03349L10.8439 8.32249L9.61586 8.7645L9.58887 8.69849L10.7699 8.14249L11.3539 7.96649L11.3809 8.03349Z"
      fill="#41479B"
    />
    <path
      d="M11.3795 8.03249L11.9635 7.85649L13.1445 7.30049L13.1175 7.23448L11.8895 7.67648L11.3525 7.96548L11.3795 8.03249Z"
      fill="#41479B"
    />
    <path
      d="M11.3326 8.0145L11.0436 7.47749L10.6016 6.2495L10.6676 6.22249L11.2236 7.40349L11.3996 7.98749L11.3326 8.0145Z"
      fill="#41479B"
    />
    <path
      d="M11.334 8.01349L11.51 8.5975L12.066 9.7785L12.132 9.7515L11.69 8.5235L11.401 7.9865L11.334 8.01349Z"
      fill="#41479B"
    />
    <path
      d="M11.3548 8.03249L10.7708 7.85649L9.58984 7.30049L9.61685 7.23448L10.8448 7.67648L11.3819 7.96548L11.3548 8.03249Z"
      fill="#41479B"
    />
    <path
      d="M11.3525 8.03349L11.8895 8.32249L13.1175 8.7645L13.1445 8.69849L11.9635 8.14249L11.3795 7.96649L11.3525 8.03349Z"
      fill="#41479B"
    />
    <path
      d="M11.334 7.98749L11.51 7.40349L12.066 6.22249L12.132 6.2495L11.69 7.47749L11.401 8.0145L11.334 7.98749Z"
      fill="#41479B"
    />
    <path
      d="M11.3326 7.9865L11.0436 8.5235L10.6016 9.7515L10.6676 9.7785L11.2236 8.5975L11.3996 8.01349L11.3326 7.9865Z"
      fill="#41479B"
    />
    <path
      d="M11.3669 8.32151C11.5448 8.32151 11.6889 8.17734 11.6889 7.99951C11.6889 7.82167 11.5448 7.67751 11.3669 7.67751C11.1891 7.67751 11.0449 7.82167 11.0449 7.99951C11.0449 8.17734 11.1891 8.32151 11.3669 8.32151Z"
      fill="#F5F5F5"
    />
    <path
      d="M11.3668 8.1925C11.4734 8.1925 11.5598 8.10609 11.5598 7.9995C11.5598 7.89291 11.4734 7.8065 11.3668 7.8065C11.2602 7.8065 11.1738 7.89291 11.1738 7.9995C11.1738 8.10609 11.2602 8.1925 11.3668 8.1925Z"
      fill="#41479B"
    />
  </svg>