<svg
  width="18"
  height="18"
  viewBox="0 0 22 23"
  fill="none"
  xmlns="http://www.w3.org/2000/svg"
>
  <path
    d="M8.25 11.8604H8.26"
    stroke="#304CB2"
    strokeWidth="2"
    strokeLinecap="round"
    strokeLinejoin="round"
  />
  <path
    d="M13.75 11.8604H13.76"
    stroke="#304CB2"
    strokeWidth="2"
    strokeLinecap="round"
    strokeLinejoin="round"
  />
  <path
    d="M9.16602 15.5273C9.62435 15.8023 10.266 15.9857 10.9993 15.9857C11.7327 15.9857 12.3743 15.8023 12.8327 15.5273"
    stroke="#304CB2"
    strokeWidth="2"
    strokeLinecap="round"
    strokeLinejoin="round"
  />
  <path
    d="M17.416 6.63535C18.2464 7.67638 18.8126 8.90298 19.066 10.2104C19.3759 10.3605 19.6373 10.5949 19.8203 10.8867C20.0032 11.1785 20.1002 11.5159 20.1002 11.8604C20.1002 12.2048 20.0032 12.5422 19.8203 12.834C19.6373 13.1258 19.3759 13.3602 19.066 13.5104C18.6702 15.356 17.6535 17.0102 16.1855 18.1968C14.7175 19.3835 12.8869 20.0308 10.9993 20.0308C9.11167 20.0308 7.28112 19.3835 5.81309 18.1968C4.34507 17.0102 3.32837 15.356 2.93264 13.5104C2.62268 13.3602 2.36127 13.1258 2.17836 12.834C1.99545 12.5422 1.89844 12.2048 1.89844 11.8604C1.89844 11.5159 1.99545 11.1785 2.17836 10.8867C2.36127 10.5949 2.62268 10.3605 2.93264 10.2104C3.31238 8.34998 4.32221 6.67754 5.79175 5.47519C7.26129 4.27284 9.10058 3.61418 10.9993 3.61035C12.8326 3.61035 14.2076 4.61868 14.2076 5.90202C14.2076 7.18535 13.3826 8.19368 12.3743 8.19368C11.641 8.19368 10.9993 7.82702 10.9993 7.27702"
    stroke="#304CB2"
    strokeWidth="2"
    strokeLinecap="round"
    strokeLinejoin="round"
  />
</svg>