<svg
  width="13"
  height="11"
  viewBox="0 0 13 11"
  fill="none"
  xmlns="http://www.w3.org/2000/svg"
>
  <path
    fillRule="evenodd"
    clipRule="evenodd"
    d="M12.8048 6.43401C12.8039 6.1322 12.6902 5.84024 12.4835 5.60879C12.2768 5.37734 11.9902 5.22102 11.6734 5.16695V4.976C11.6734 4.39333 11.5509 3.81637 11.313 3.27806C11.0751 2.73974 10.7264 2.25062 10.2867 1.83861C9.84713 1.4266 9.32522 1.09978 8.75084 0.876804C8.17645 0.653827 7.56082 0.539062 6.93911 0.539062C6.3174 0.539062 5.70177 0.653827 5.12738 0.876804C4.553 1.09978 4.03109 1.4266 3.59148 1.83861C3.15186 2.25062 2.80314 2.73974 2.56522 3.27806C2.3273 3.81637 2.20484 4.39333 2.20484 4.976V5.16695C1.8858 5.22012 1.5971 5.37729 1.38976 5.61068C1.18242 5.84406 1.0698 6.13864 1.0718 6.44232C1.07381 6.74601 1.19032 7.03925 1.40073 7.27021C1.61114 7.50117 1.9019 7.65497 2.22162 7.70443C2.24124 8.14725 2.38257 8.5778 2.63193 8.95438C2.88129 9.33095 3.23022 9.64078 3.6449 9.85382C4.67333 10.3069 5.80652 10.5112 6.94091 10.448C8.0753 10.5112 9.20848 10.3069 10.2369 9.85382C10.6516 9.64078 11.0005 9.33095 11.2499 8.95438C11.4992 8.5778 11.6406 8.14725 11.6602 7.70443C11.98 7.65286 12.2702 7.49716 12.4796 7.26476C12.689 7.03236 12.8041 6.73817 12.8048 6.43401ZM1.55583 6.43401C1.55568 6.25251 1.61867 6.07592 1.73525 5.93099C1.85182 5.78606 2.01563 5.6807 2.20184 5.63087V7.23378C2.01611 7.18421 1.8526 7.07939 1.73597 6.93514C1.61933 6.79088 1.5559 6.615 1.55523 6.43401H1.55583ZM11.188 7.34611C11.2263 7.76801 11.1343 8.19135 10.923 8.56559C10.7116 8.93984 10.3898 9.24919 9.99601 9.45674C9.04026 9.86964 7.99009 10.0537 6.93971 9.99254C5.88933 10.0537 4.83916 9.86964 3.88341 9.45674C3.48914 9.24962 3.16682 8.94052 2.95492 8.56635C2.74303 8.19219 2.65053 7.76877 2.68846 7.34667V4.976C2.68951 4.11965 2.98449 3.28634 3.52979 2.5992C4.07509 1.91206 4.84179 1.40756 5.71659 1.16023C6.20747 1.1265 6.69339 1.27094 7.07379 1.56367C7.45418 1.8564 7.69991 2.275 7.76012 2.73282C7.75996 2.97348 7.65788 3.20425 7.47629 3.37443C7.29471 3.5446 7.04848 3.64028 6.79169 3.64042C6.59931 3.64013 6.41491 3.56837 6.27888 3.44089C6.14285 3.3134 6.06628 3.14057 6.06597 2.96028C6.06613 2.82805 6.12224 2.70129 6.22201 2.60779C6.32177 2.51429 6.45704 2.4617 6.59812 2.46155C6.66241 2.46155 6.72407 2.43761 6.76953 2.39501C6.81499 2.3524 6.84053 2.29462 6.84053 2.23436C6.84053 2.17411 6.81499 2.11633 6.76953 2.07372C6.72407 2.03112 6.66241 2.00718 6.59812 2.00718C6.32793 2.00718 6.0688 2.10778 5.87775 2.28683C5.68669 2.46589 5.57936 2.70874 5.57936 2.96197C5.57967 3.26291 5.70738 3.55145 5.93444 3.76425C6.1615 3.97705 6.46937 4.09674 6.79049 4.09703C7.17577 4.09659 7.54513 3.95295 7.81756 3.69763C8.08999 3.44231 8.24326 3.09614 8.24373 2.73506C8.23227 2.47804 8.16657 2.22569 8.05044 1.99259C7.93431 1.7595 7.77005 1.55028 7.56715 1.37702C7.3965 1.22534 7.20357 1.0973 6.99424 0.996796C8.11135 1.01154 9.17745 1.43748 9.96232 2.18262C10.7472 2.92776 11.1879 3.93232 11.1892 4.97937L11.188 7.34611ZM11.6728 7.23378V5.63087C11.859 5.68024 12.0229 5.78523 12.1397 5.92988C12.2564 6.07454 12.3196 6.25095 12.3196 6.43232C12.3196 6.6137 12.2564 6.79011 12.1397 6.93477C12.0229 7.07942 11.859 7.18441 11.6728 7.23378ZM4.95664 5.69019C4.95664 5.9312 4.74817 6.12658 4.491 6.12658C4.23384 6.12658 4.02537 5.9312 4.02537 5.69019C4.02537 5.44917 4.23384 5.25379 4.491 5.25379C4.74817 5.25379 4.95664 5.44917 4.95664 5.69019ZM9.84894 5.69019C9.84894 5.9312 9.64047 6.12658 9.3833 6.12658C9.12614 6.12658 8.91767 5.9312 8.91767 5.69019C8.91767 5.44917 9.12614 5.25379 9.3833 5.25379C9.64047 5.25379 9.84894 5.44917 9.84894 5.69019ZM6.93559 8.07476C7.28737 8.07476 7.62479 7.94395 7.87376 7.71104C7.91922 7.66844 7.98087 7.64451 8.04515 7.64451C8.10944 7.64451 8.17109 7.66844 8.21654 7.71104C8.262 7.75364 8.28754 7.81142 8.28754 7.87167C8.28754 7.93192 8.262 7.98969 8.21654 8.03229C7.87649 8.35012 7.41584 8.5286 6.93559 8.5286C6.45534 8.5286 5.9947 8.35012 5.65465 8.03229C5.60919 7.98969 5.58365 7.93192 5.58365 7.87167C5.58365 7.81142 5.60919 7.75364 5.65465 7.71104C5.7001 7.66844 5.76175 7.64451 5.82604 7.64451C5.89032 7.64451 5.95198 7.66844 5.99744 7.71104C6.24641 7.94395 6.58381 8.07476 6.93559 8.07476Z"
    fill="var(--t-common-primary)"
  />
  <path
    d="M12.4835 5.60879L12.4071 5.67704L12.4835 5.60879ZM12.8048 6.43401L12.9073 6.43423L12.9073 6.43368L12.8048 6.43401ZM11.6734 5.16695H11.5709V5.25342L11.6561 5.26797L11.6734 5.16695ZM11.313 3.27806L11.4067 3.23663V3.23663L11.313 3.27806ZM8.75084 0.876804L8.71375 0.97233L8.75084 0.876804ZM5.12738 0.876804L5.16447 0.97233V0.97233L5.12738 0.876804ZM3.59148 1.83861L3.66155 1.91338L3.59148 1.83861ZM2.56522 3.27806L2.47149 3.23663L2.56522 3.27806ZM2.20484 5.16695L2.22169 5.26803L2.30731 5.25376V5.16695H2.20484ZM1.38976 5.61068L1.46636 5.67874L1.38976 5.61068ZM1.0718 6.44232L1.17427 6.44165L1.0718 6.44232ZM1.40073 7.27021L1.47648 7.2012H1.47648L1.40073 7.27021ZM2.22162 7.70443L2.32399 7.6999L2.32028 7.616L2.23729 7.60316L2.22162 7.70443ZM2.63193 8.95438L2.5465 9.01096H2.5465L2.63193 8.95438ZM3.6449 9.85382L3.59799 9.94513L3.60359 9.94759L3.6449 9.85382ZM6.94091 10.448L6.94664 10.3451L6.93521 10.3457L6.94091 10.448ZM10.2369 9.85382L10.2783 9.94776L10.2837 9.94497L10.2369 9.85382ZM11.2499 8.95438L11.3353 9.01096V9.01095L11.2499 8.95438ZM11.6602 7.70443L11.6439 7.60327L11.5615 7.61655L11.5578 7.6999L11.6602 7.70443ZM12.4796 7.26476L12.5557 7.33335V7.33335L12.4796 7.26476ZM1.73525 5.93099L1.6554 5.86676L1.73525 5.93099ZM1.55583 6.43401V6.53648H1.65838L1.6583 6.43393L1.55583 6.43401ZM2.20184 5.63087H2.30432V5.49737L2.17536 5.53188L2.20184 5.63087ZM2.20184 7.23378L2.17542 7.33279L2.30432 7.36719V7.23378H2.20184ZM1.73597 6.93514L1.65628 6.99956L1.73597 6.93514ZM1.55523 6.43401V6.33154H1.45237L1.45276 6.43439L1.55523 6.43401ZM10.923 8.56559L10.8337 8.5152L10.923 8.56559ZM11.188 7.34611L11.0851 7.34606L11.0859 7.35538L11.188 7.34611ZM9.99601 9.45674L10.0368 9.55109L10.0438 9.54739L9.99601 9.45674ZM6.93971 9.99254L6.94571 9.88955L6.93375 9.89024L6.93971 9.99254ZM3.88341 9.45674L3.83562 9.54772L3.84277 9.55081L3.88341 9.45674ZM2.95492 8.56635L2.86576 8.61685H2.86576L2.95492 8.56635ZM2.68846 7.34667L2.79093 7.35588V7.34667H2.68846ZM2.68846 4.976L2.58598 4.97587V4.976H2.68846ZM3.52979 2.5992L3.44952 2.5355L3.52979 2.5992ZM5.71659 1.16023L5.70956 1.058L5.69895 1.05873L5.68871 1.06163L5.71659 1.16023ZM7.07379 1.56367L7.13628 1.48246L7.07379 1.56367ZM7.76012 2.73282L7.86348 2.73289L7.86171 2.71946L7.76012 2.73282ZM7.47629 3.37443L7.40622 3.29966V3.29966L7.47629 3.37443ZM6.79169 3.64042L6.79153 3.7429L6.79175 3.7429L6.79169 3.64042ZM6.06597 2.96028L5.9635 2.96016L5.9635 2.96046L6.06597 2.96028ZM6.22201 2.60779L6.15193 2.53302V2.53302L6.22201 2.60779ZM6.59812 2.46155V2.35907L6.59802 2.35907L6.59812 2.46155ZM6.76953 2.39501L6.69946 2.32024L6.69946 2.32024L6.76953 2.39501ZM6.76953 2.07372L6.69946 2.14849V2.14849L6.76953 2.07372ZM5.57936 2.96197H5.47688V2.96207L5.57936 2.96197ZM5.93444 3.76425L6.00451 3.68948V3.68948L5.93444 3.76425ZM6.79049 4.09703L6.7904 4.19951L6.79061 4.19951L6.79049 4.09703ZM7.81756 3.69763L7.74749 3.62286V3.62286L7.81756 3.69763ZM8.24373 2.73506L8.34631 2.7352L8.3461 2.7305L8.24373 2.73506ZM8.05044 1.99259L7.95872 2.03829L7.95872 2.03829L8.05044 1.99259ZM7.56715 1.37702L7.49906 1.45363L7.50061 1.45495L7.56715 1.37702ZM6.99424 0.996796L6.9956 0.894333L6.94989 1.08917L6.99424 0.996796ZM9.96232 2.18262L10.0329 2.1083L9.96232 2.18262ZM11.1892 4.97937L11.2916 4.97942L11.2916 4.97924L11.1892 4.97937ZM11.6728 5.63087L11.699 5.53182L11.5703 5.49769V5.63087H11.6728ZM11.6728 7.23378H11.5703V7.36696L11.699 7.33283L11.6728 7.23378ZM12.1397 5.92988L12.0599 5.99424V5.99424L12.1397 5.92988ZM12.1397 6.93477L12.0599 6.87041L12.1397 6.93477ZM7.87376 7.71104L7.94377 7.78588L7.94383 7.78581L7.87376 7.71104ZM8.21654 7.71104L8.14647 7.78581L8.14647 7.78581L8.21654 7.71104ZM8.21654 8.03229L8.28651 8.10716L8.28661 8.10706L8.21654 8.03229ZM5.65465 8.03229L5.58457 8.10706L5.58468 8.10716L5.65465 8.03229ZM5.65465 7.71104L5.72472 7.78581L5.72472 7.78581L5.65465 7.71104ZM5.99744 7.71104L5.92736 7.78581L5.92743 7.78588L5.99744 7.71104ZM12.4071 5.67704C12.5976 5.89037 12.7015 6.15836 12.7023 6.43433L12.9073 6.43368C12.9062 6.10605 12.7828 5.7901 12.5599 5.54054L12.4071 5.67704ZM11.6561 5.26797C11.951 5.31828 12.2164 5.46356 12.4071 5.67704L12.5599 5.54054C12.3372 5.29112 12.0294 5.12376 11.6906 5.06594L11.6561 5.26797ZM11.5709 4.976V5.16695H11.7759V4.976H11.5709ZM11.2193 3.31948C11.4515 3.84488 11.5709 4.40775 11.5709 4.976H11.7759C11.7759 4.37892 11.6504 3.78786 11.4067 3.23663L11.2193 3.31948ZM10.2167 1.91338C10.6465 2.3162 10.9871 2.79406 11.2193 3.31948L11.4067 3.23663C11.1631 2.68543 10.8062 2.18503 10.3568 1.76384L10.2167 1.91338ZM8.71375 0.97233C9.2762 1.19067 9.78684 1.51054 10.2167 1.91338L10.3568 1.76384C9.90741 1.34266 9.37425 1.00889 8.78792 0.781277L8.71375 0.97233ZM6.93911 0.641534C7.54826 0.641534 8.1513 0.753986 8.71375 0.97233L8.78792 0.781277C8.2016 0.553668 7.57339 0.436591 6.93911 0.436591V0.641534ZM5.16447 0.97233C5.72692 0.753986 6.32996 0.641534 6.93911 0.641534V0.436591C6.30483 0.436591 5.67662 0.553668 5.0903 0.781277L5.16447 0.97233ZM3.66155 1.91338C4.09138 1.51054 4.60202 1.19067 5.16447 0.97233L5.0903 0.781277C4.50397 1.00889 3.97081 1.34266 3.5214 1.76384L3.66155 1.91338ZM2.65894 3.31948C2.89116 2.79406 3.23173 2.3162 3.66155 1.91338L3.5214 1.76384C3.07199 2.18503 2.71511 2.68543 2.47149 3.23663L2.65894 3.31948ZM2.30731 4.976C2.30731 4.40775 2.42673 3.84488 2.65894 3.31948L2.47149 3.23663C2.22786 3.78786 2.10237 4.37892 2.10237 4.976H2.30731ZM2.30731 5.16695V4.976H2.10237V5.16695H2.30731ZM1.46636 5.67874C1.65755 5.46354 1.92486 5.3175 2.22169 5.26803L2.188 5.06588C1.84675 5.12275 1.53665 5.29105 1.31315 5.54262L1.46636 5.67874ZM1.17427 6.44165C1.17244 6.16405 1.27532 5.89378 1.46636 5.67874L1.31315 5.54262C1.08951 5.79435 0.967153 6.11323 0.969334 6.443L1.17427 6.44165ZM1.47648 7.2012C1.28256 6.98835 1.17611 6.71925 1.17427 6.44165L0.969334 6.443C0.971515 6.77277 1.09807 7.09015 1.32498 7.33922L1.47648 7.2012ZM2.23729 7.60316C1.93981 7.55715 1.67054 7.41421 1.47648 7.2012L1.32498 7.33922C1.55174 7.58813 1.864 7.7528 2.20596 7.8057L2.23729 7.60316ZM2.71737 8.8978C2.47807 8.53641 2.34277 8.12379 2.32399 7.6999L2.11925 7.70897C2.1397 8.17071 2.28708 8.6192 2.5465 9.01096L2.71737 8.8978ZM3.69173 9.76267C3.29214 9.55739 2.95672 9.25925 2.71737 8.8978L2.5465 9.01096C2.80587 9.40266 3.1683 9.72417 3.59807 9.94497L3.69173 9.76267ZM6.93521 10.3457C5.81676 10.408 4.6997 10.2065 3.68621 9.76004L3.60359 9.94759C4.64696 10.4072 5.79628 10.6144 6.9466 10.5503L6.93521 10.3457ZM10.1956 9.76004C9.18211 10.2065 8.06505 10.408 6.9466 10.3457L6.93521 10.5503C8.08554 10.6144 9.23484 10.4072 10.2782 9.94759L10.1956 9.76004ZM11.1644 8.8978C10.9251 9.25925 10.5897 9.55739 10.1901 9.76267L10.2837 9.94497C10.7135 9.72417 11.0759 9.40266 11.3353 9.01096L11.1644 8.8978ZM11.5578 7.6999C11.539 8.12379 11.4038 8.53641 11.1644 8.89781L11.3353 9.01095C11.5947 8.6192 11.7421 8.17071 11.7626 7.70897L11.5578 7.6999ZM12.4035 7.19617C12.2103 7.41055 11.9416 7.55527 11.6439 7.60327L11.6765 7.8056C12.0185 7.75045 12.3301 7.58377 12.5557 7.33335L12.4035 7.19617ZM12.7023 6.43378C12.7017 6.71191 12.5965 6.98195 12.4035 7.19617L12.5557 7.33335C12.7815 7.08278 12.9066 6.76443 12.9073 6.43423L12.7023 6.43378ZM1.6554 5.86676C1.52456 6.02943 1.45319 6.22858 1.45336 6.43409L1.6583 6.43393C1.65817 6.27644 1.71278 6.12241 1.81509 5.99522L1.6554 5.86676ZM2.17536 5.53188C1.96893 5.58712 1.78614 5.70423 1.6554 5.86676L1.81509 5.99522C1.9175 5.8679 2.06233 5.77428 2.22833 5.72986L2.17536 5.53188ZM2.30432 7.23378V5.63087H2.09937V7.23378H2.30432ZM1.65628 6.99956C1.78708 7.16134 1.96953 7.27784 2.17542 7.33279L2.22827 7.13477C2.06269 7.09058 1.91812 6.99745 1.81565 6.87071L1.65628 6.99956ZM1.45276 6.43439C1.45352 6.63932 1.52538 6.83766 1.65628 6.99956L1.81565 6.87071C1.71328 6.7441 1.65828 6.59068 1.6577 6.43363L1.45276 6.43439ZM1.55583 6.33154H1.55523V6.53648H1.55583V6.33154ZM11.0122 8.61598C11.2336 8.22389 11.3303 7.77979 11.29 7.33683L11.0859 7.35538C11.1223 7.75624 11.035 8.1588 10.8337 8.5152L11.0122 8.61598ZM10.0438 9.54739C10.4543 9.33102 10.7908 9.00798 11.0122 8.61598L10.8337 8.5152C10.6324 8.87169 10.3253 9.16736 9.94823 9.36609L10.0438 9.54739ZM6.93375 10.0948C7.99992 10.157 9.06606 9.97012 10.0366 9.55081L9.95537 9.36267C9.01446 9.76916 7.98026 9.95053 6.94567 9.89024L6.93375 10.0948ZM3.84277 9.55081C4.81336 9.97012 5.8795 10.157 6.94567 10.0948L6.93375 9.89024C5.89915 9.95053 4.86496 9.76916 3.92405 9.36267L3.84277 9.55081ZM2.86576 8.61685C3.0877 9.00876 3.42473 9.33153 3.83575 9.54746L3.93107 9.36603C3.55355 9.1677 3.24593 8.87227 3.04409 8.51586L2.86576 8.61685ZM2.5864 7.3375C2.54657 7.78066 2.64376 8.22485 2.86576 8.61685L3.04409 8.51586C2.8423 8.15953 2.75448 7.75688 2.79052 7.35584L2.5864 7.3375ZM2.58598 4.976V7.34667H2.79093V4.976H2.58598ZM3.44952 2.5355C2.89025 3.24024 2.58707 4.09583 2.58598 4.97587L2.79093 4.97612C2.79196 4.14347 3.07873 3.33243 3.61006 2.6629L3.44952 2.5355ZM5.68871 1.06163C4.79402 1.31457 4.0087 1.83088 3.44952 2.5355L3.61006 2.6629C4.14148 1.99325 4.88956 1.50054 5.74447 1.25884L5.68871 1.06163ZM7.13628 1.48246C6.73552 1.17406 6.22472 1.0226 5.70956 1.058L5.72362 1.26246C6.19022 1.2304 6.65127 1.36783 7.01129 1.64488L7.13628 1.48246ZM7.86171 2.71946C7.79782 2.23357 7.53723 1.79101 7.13628 1.48246L7.01129 1.64488C7.37113 1.92179 7.602 2.31642 7.65852 2.74618L7.86171 2.71946ZM7.54637 3.4492C7.74781 3.26041 7.86241 3.00293 7.86259 2.73289L7.65764 2.73275C7.65751 2.94404 7.56794 3.1481 7.40622 3.29966L7.54637 3.4492ZM6.79175 3.7429C7.07363 3.74273 7.34515 3.63778 7.54637 3.4492L7.40622 3.29966C7.24428 3.45143 7.02333 3.53782 6.79163 3.53795L6.79175 3.7429ZM6.2088 3.51566C6.36444 3.66152 6.5741 3.74256 6.79153 3.7429L6.79185 3.53795C6.62453 3.53769 6.46537 3.47523 6.34895 3.36612L6.2088 3.51566ZM5.9635 2.96046C5.96386 3.17009 6.05294 3.36958 6.2088 3.51566L6.34895 3.36612C6.23275 3.25722 6.1687 3.11106 6.16844 2.9601L5.9635 2.96046ZM6.15193 2.53302C6.03232 2.64512 5.96369 2.79857 5.9635 2.96016L6.16844 2.9604C6.16856 2.85753 6.21216 2.75745 6.29208 2.68255L6.15193 2.53302ZM6.59802 2.35907C6.43185 2.35925 6.27132 2.42113 6.15193 2.53302L6.29208 2.68255C6.37222 2.60745 6.48222 2.56414 6.59823 2.56402L6.59802 2.35907ZM6.69946 2.32024C6.67365 2.34443 6.6373 2.35907 6.59812 2.35907V2.56402C6.68752 2.56402 6.77449 2.5308 6.8396 2.46977L6.69946 2.32024ZM6.73806 2.23436C6.73806 2.26522 6.72504 2.29626 6.69946 2.32024L6.8396 2.46977C6.90494 2.40854 6.943 2.32402 6.943 2.23436H6.73806ZM6.69946 2.14849C6.72504 2.17247 6.73806 2.20351 6.73806 2.23436H6.943C6.943 2.14471 6.90494 2.06019 6.8396 1.99895L6.69946 2.14849ZM6.59812 2.10965C6.6373 2.10965 6.67365 2.1243 6.69946 2.14849L6.8396 1.99895C6.77449 1.93793 6.68752 1.90471 6.59812 1.90471V2.10965ZM5.94782 2.3616C6.11922 2.20096 6.35304 2.10965 6.59812 2.10965V1.90471C6.30282 1.90471 6.01838 2.01459 5.80767 2.21206L5.94782 2.3616ZM5.68183 2.96197C5.68183 2.73814 5.77664 2.52203 5.94782 2.3616L5.80767 2.21206C5.59674 2.40975 5.47688 2.67934 5.47688 2.96197H5.68183ZM6.00451 3.68948C5.7973 3.49529 5.68211 3.23344 5.68183 2.96186L5.47688 2.96207C5.47723 3.29238 5.61745 3.60762 5.86437 3.83902L6.00451 3.68948ZM6.79059 3.99456C6.49455 3.99429 6.21195 3.88389 6.00451 3.68948L5.86437 3.83902C6.11106 4.07022 6.4442 4.19919 6.7904 4.19951L6.79059 3.99456ZM7.74749 3.62286C7.49468 3.8598 7.15058 3.99415 6.79037 3.99456L6.79061 4.19951C7.20096 4.19903 7.59558 4.04611 7.88763 3.7724L7.74749 3.62286ZM8.14126 2.73493C8.14082 3.06666 8.00008 3.38614 7.74749 3.62286L7.88763 3.7724C8.17991 3.49848 8.34569 3.12563 8.3462 2.7352L8.14126 2.73493ZM7.95872 2.03829C8.06855 2.25873 8.13054 2.49709 8.14136 2.73963L8.3461 2.7305C8.33399 2.45899 8.2646 2.19265 8.14216 1.9469L7.95872 2.03829ZM7.50061 1.45495C7.6933 1.61949 7.84889 1.81783 7.95872 2.03829L8.14216 1.9469C8.01974 1.70117 7.8468 1.48107 7.63369 1.2991L7.50061 1.45495ZM6.94989 1.08917C7.15077 1.18561 7.33567 1.30838 7.49907 1.45361L7.63523 1.30044C7.45732 1.1423 7.25638 1.00898 7.03859 0.90442L6.94989 1.08917ZM10.0329 2.1083C9.22864 1.34478 8.13757 0.909408 6.9956 0.894333L6.99289 1.09926C8.08513 1.11368 9.12625 1.53017 9.89177 2.25693L10.0329 2.1083ZM11.2916 4.97924C11.2903 3.90309 10.8373 2.87203 10.0329 2.1083L9.89177 2.25693C10.6571 2.98349 11.0854 3.96155 11.0867 4.9795L11.2916 4.97924ZM11.2904 7.34616L11.2916 4.97942L11.0867 4.97932L11.0855 7.34606L11.2904 7.34616ZM11.5703 5.63087V7.23378H11.7753V5.63087H11.5703ZM12.2194 5.86553C12.0885 5.70326 11.9055 5.58655 11.699 5.53182L11.6465 5.72992C11.8125 5.77392 11.9574 5.86719 12.0599 5.99424L12.2194 5.86553ZM12.4221 6.43232C12.4221 6.22691 12.3505 6.02791 12.2194 5.86553L12.0599 5.99424C12.1624 6.12116 12.2171 6.275 12.2171 6.43232H12.4221ZM12.2194 6.99912C12.3505 6.83673 12.4221 6.63774 12.4221 6.43232H12.2171C12.2171 6.58965 12.1624 6.74349 12.0599 6.87041L12.2194 6.99912ZM11.699 7.33283C11.9055 7.27809 12.0885 7.16138 12.2194 6.99912L12.0599 6.87041C11.9574 6.99746 11.8125 7.09073 11.6465 7.13473L11.699 7.33283ZM4.491 6.22905C4.7984 6.22905 5.05911 5.99395 5.05911 5.69019H4.85417C4.85417 5.86844 4.69794 6.02411 4.491 6.02411V6.22905ZM3.92289 5.69019C3.92289 5.99395 4.18361 6.22905 4.491 6.22905V6.02411C4.28407 6.02411 4.12784 5.86844 4.12784 5.69019H3.92289ZM4.491 5.15132C4.18361 5.15132 3.92289 5.38642 3.92289 5.69019H4.12784C4.12784 5.51193 4.28407 5.35626 4.491 5.35626V5.15132ZM5.05911 5.69019C5.05911 5.38642 4.7984 5.15132 4.491 5.15132V5.35626C4.69794 5.35626 4.85417 5.51193 4.85417 5.69019H5.05911ZM9.3833 6.22905C9.6907 6.22905 9.95141 5.99395 9.95141 5.69019H9.74647C9.74647 5.86844 9.59023 6.02411 9.3833 6.02411V6.22905ZM8.81519 5.69019C8.81519 5.99395 9.07591 6.22905 9.3833 6.22905V6.02411C9.17637 6.02411 9.02014 5.86844 9.02014 5.69019H8.81519ZM9.3833 5.15132C9.07591 5.15132 8.81519 5.38642 8.81519 5.69019H9.02014C9.02014 5.51193 9.17637 5.35626 9.3833 5.35626V5.15132ZM9.95141 5.69019C9.95141 5.38642 9.6907 5.15132 9.3833 5.15132V5.35626C9.59023 5.35626 9.74647 5.51193 9.74647 5.69019H9.95141ZM7.80376 7.63621C7.57443 7.85074 7.26229 7.97229 6.93559 7.97229V8.17723C7.31245 8.17723 7.67515 8.03716 7.94377 7.78588L7.80376 7.63621ZM8.04515 7.54203C7.95575 7.54203 7.86879 7.57526 7.80369 7.63627L7.94383 7.78581C7.96964 7.76162 8.00598 7.74698 8.04515 7.74698V7.54203ZM8.28661 7.63627C8.22151 7.57526 8.13455 7.54203 8.04515 7.54203V7.74698C8.08432 7.74698 8.12066 7.76162 8.14647 7.78581L8.28661 7.63627ZM8.39001 7.87167C8.39001 7.78202 8.35194 7.6975 8.28661 7.63627L8.14647 7.78581C8.17205 7.80979 8.18507 7.84083 8.18507 7.87167H8.39001ZM8.28661 8.10706C8.35194 8.04584 8.39001 7.96132 8.39001 7.87167H8.18507C8.18507 7.90251 8.17205 7.93355 8.14647 7.95753L8.28661 8.10706ZM6.93559 8.63107C7.44091 8.63107 7.92683 8.44334 8.28651 8.10716L8.14657 7.95743C7.82616 8.2569 7.39078 8.42613 6.93559 8.42613V8.63107ZM5.58468 8.10716C5.94436 8.44334 6.43028 8.63107 6.93559 8.63107V8.42613C6.48041 8.42613 6.04503 8.2569 5.72462 7.95743L5.58468 8.10716ZM5.48118 7.87167C5.48118 7.96132 5.51924 8.04584 5.58457 8.10706L5.72472 7.95753C5.69914 7.93355 5.68612 7.90251 5.68612 7.87167H5.48118ZM5.58457 7.63627C5.51924 7.6975 5.48118 7.78202 5.48118 7.87167H5.68612C5.68612 7.84083 5.69914 7.80979 5.72472 7.78581L5.58457 7.63627ZM5.82604 7.54203C5.73664 7.54203 5.64968 7.57526 5.58457 7.63627L5.72472 7.78581C5.75053 7.76162 5.78686 7.74698 5.82604 7.74698V7.54203ZM6.06751 7.63627C6.0024 7.57526 5.91543 7.54203 5.82604 7.54203V7.74698C5.86521 7.74698 5.90156 7.76163 5.92736 7.78581L6.06751 7.63627ZM6.93559 7.97229C6.60889 7.97229 6.29677 7.85074 6.06744 7.63621L5.92743 7.78588C6.19605 8.03716 6.55873 8.17723 6.93559 8.17723V7.97229Z"
    fill="var(--t-common-primary)"
  />
</svg>