<svg
    width="22"
    height="26"
    viewBox="0 0 20 24"
    fill="none"
    xmlns="http://www.w3.org/2000/svg"
  >
    <g opacity="0.4">
      <g opacity="0.4">
        <path
          opacity="0.4"
          d="M14 2.757H4C1.79086 2.757 0 4.54786 0 6.757V17.757C0 19.9661 1.79086 21.757 4 21.757H14C16.2091 21.757 18 19.9661 18 17.757V6.757C18 4.54786 16.2091 2.757 14 2.757Z"
          fill="#E6ECF6"
        />
        <path
          opacity="0.4"
          d="M14 3.257H4C2.067 3.257 0.5 4.82401 0.5 6.757V17.757C0.5 19.69 2.067 21.257 4 21.257H14C15.933 21.257 17.5 19.69 17.5 17.757V6.757C17.5 4.82401 15.933 3.257 14 3.257Z"
          stroke="#094394"
        />
      </g>
      <g opacity="0.4">
        <path
          opacity="0.4"
          d="M8.41453 0.49994C6.81567 0.49994 5.51953 1.79585 5.51953 3.39444C5.51953 4.99303 6.81567 6.28894 8.41453 6.28894L17.0975 6.28894C18.6964 6.28894 19.9925 4.99303 19.9925 3.39444C19.9925 1.79585 18.6964 0.49994 17.0975 0.49994L8.41453 0.49994Z"
          fill="#E6ECF6"
        />
        <path
          opacity="0.4"
          d="M8.41453 0.99994C7.09181 0.99994 6.01953 2.07199 6.01953 3.39444C6.01953 4.71689 7.09181 5.78894 8.41453 5.78894L17.0975 5.78894C18.4203 5.78894 19.4925 4.71689 19.4925 3.39444C19.4925 2.07199 18.4203 0.99994 17.0975 0.99994L8.41453 0.99994Z"
          stroke="#094394"
        />
      </g>
      <g opacity="0.4">
        <path
          opacity="0.4"
          d="M7.73875 18.06C6.13989 18.06 4.84375 19.3559 4.84375 20.9545C4.84375 22.5531 6.13989 23.849 7.73875 23.849H16.4218C18.0206 23.849 19.3167 22.5531 19.3167 20.9545C19.3167 19.3559 18.0206 18.06 16.4218 18.06H7.73875Z"
          fill="#E6ECF6"
        />
        <path
          opacity="0.4"
          d="M7.73875 18.56C6.41603 18.56 5.34375 19.6321 5.34375 20.9545C5.34375 22.2769 6.41603 23.349 7.73875 23.349H16.4218C17.7445 23.349 18.8167 22.2769 18.8167 20.9545C18.8167 19.6321 17.7445 18.56 16.4218 18.56H7.73875Z"
          stroke="#094394"
        />
      </g>
      <g opacity="0.4">
        <path
          opacity="0.4"
          d="M20 6.257C20 4.87629 18.8807 3.757 17.5 3.757C16.1193 3.757 15 4.87629 15 6.257V18.257C15 19.6377 16.1193 20.757 17.5 20.757C18.8807 20.757 20 19.6377 20 18.257V6.257Z"
          fill="#E6ECF6"
        />
        <path
          opacity="0.4"
          d="M19.5 6.257C19.5 5.15243 18.6046 4.257 17.5 4.257C16.3954 4.257 15.5 5.15243 15.5 6.257V18.257C15.5 19.3616 16.3954 20.257 17.5 20.257C18.6046 20.257 19.5 19.3616 19.5 18.257V6.257Z"
          stroke="#094394"
        />
      </g>
    </g>
    <g opacity="0.5">
      <path
        opacity="0.5"
        d="M6.13672 9.90002L10.8577 14.622"
        stroke="#094394"
        strokeLinecap="round"
      />
      <path
        opacity="0.5"
        d="M6.13672 14.622L10.8577 9.90002"
        stroke="#094394"
        strokeLinecap="round"
      />
    </g>
  </svg>