<svg
    width="18"
    height="21"
    viewBox="0 0 18 21"
    fill="none"
    xmlns="http://www.w3.org/2000/svg"
  >
    <path
      d="M11.002 2.79703H4C1.79086 2.79703 0 4.58789 0 6.79703V14.799C0 17.0082 1.79086 18.799 4 18.799H11.002C13.2111 18.799 15.002 17.0082 15.002 14.799V6.79703C15.002 4.58789 13.2111 2.79703 11.002 2.79703Z"
      fill="white"
    />
    <path
      d="M11.002 3.29703H4C2.067 3.29703 0.5 4.86403 0.5 6.79703V14.799C0.5 16.732 2.067 18.299 4 18.299H11.002C12.935 18.299 14.502 16.732 14.502 14.799V6.79703C14.502 4.86403 12.935 3.29703 11.002 3.29703Z"
      stroke="#094394"
    />
    <path
      d="M5.35425 -0.000980377C3.93322 -0.000980377 2.78125 1.15099 2.78125 2.57202C2.78125 3.99305 3.93322 5.14502 5.35425 5.14502L13.0743 5.14502C14.4953 5.14502 15.6473 3.99305 15.6473 2.57202C15.6473 1.15099 14.4953 -0.000980377 13.0743 -0.000980377L5.35425 -0.000980377Z"
      fill="white"
    />
    <path
      d="M5.35425 0.49902C4.20936 0.49902 3.28125 1.42713 3.28125 2.57202C3.28125 3.71691 4.20936 4.64502 5.35425 4.64502L13.0743 4.64502C14.2191 4.64502 15.1473 3.71691 15.1473 2.57202C15.1473 1.42713 14.2191 0.49902 13.0743 0.49902L5.35425 0.49902Z"
      stroke="#094394"
    />
    <path
      d="M4.75269 15.61C3.33166 15.61 2.17969 16.762 2.17969 18.183C2.17969 19.604 3.33166 20.756 4.75269 20.756H12.4727C13.8937 20.756 15.0457 19.604 15.0457 18.183C15.0457 16.762 13.8937 15.61 12.4727 15.61H4.75269Z"
      fill="white"
    />
    <path
      d="M4.75269 16.11C3.6078 16.11 2.67969 17.0381 2.67969 18.183C2.67969 19.3279 3.6078 20.256 4.75269 20.256H12.4727C13.6176 20.256 14.5457 19.3279 14.5457 18.183C14.5457 17.0381 13.6176 16.11 12.4727 16.11H4.75269Z"
      stroke="#094394"
    />
    <path
      d="M15.0472 2.797H15.0462C13.5429 2.797 12.3242 4.01568 12.3242 5.519V15.188C12.3242 16.6913 13.5429 17.91 15.0462 17.91H15.0472C16.5505 17.91 17.7692 16.6913 17.7692 15.188V5.519C17.7692 4.01568 16.5505 2.797 15.0472 2.797Z"
      fill="white"
    />
    <path
      d="M15.0472 3.297H15.0462C13.819 3.297 12.8242 4.29182 12.8242 5.519V15.188C12.8242 16.4152 13.819 17.41 15.0462 17.41H15.0472C16.2744 17.41 17.2692 16.4152 17.2692 15.188V5.519C17.2692 4.29182 16.2744 3.297 15.0472 3.297Z"
      stroke="#094394"
    />
  </svg>