<svg
    width="22"
    height="26"
    viewBox="0 0 21 24"
    fill="none"
    xmlns="http://www.w3.org/2000/svg"
  >
    <path
      d="M14.2285 3.49902H4.22852C2.01938 3.49902 0.228516 5.28988 0.228516 7.49902V17.499C0.228516 19.7082 2.01938 21.499 4.22852 21.499H14.2285C16.4377 21.499 18.2285 19.7082 18.2285 17.499V7.49902C18.2285 5.28988 16.4377 3.49902 14.2285 3.49902Z"
      fill="white"
    />
    <path
      d="M14.2285 3.99902H4.22852C2.29552 3.99902 0.728516 5.56603 0.728516 7.49902V17.499C0.728516 19.432 2.29552 20.999 4.22852 20.999H14.2285C16.1615 20.999 17.7285 19.432 17.7285 17.499V7.49902C17.7285 5.56603 16.1615 3.99902 14.2285 3.99902Z"
      fill="#32EC83"
      stroke="#1D2F7E"
    />
    <path
      d="M7.85008 0.351625C6.25121 0.351625 4.95508 1.64754 4.95508 3.24612C4.95508 4.84471 6.25121 6.14062 7.85008 6.14062L16.5331 6.14063C18.1319 6.14063 19.4281 4.84471 19.4281 3.24612C19.4281 1.64754 18.1319 0.351625 16.5331 0.351625L7.85008 0.351625Z"
      fill="white"
    />
    <path
      d="M7.85008 0.851625C6.52736 0.851625 5.45508 1.92368 5.45508 3.24612C5.45508 4.56857 6.52736 5.64062 7.85008 5.64062L16.5331 5.64063C17.8558 5.64063 18.9281 4.56857 18.9281 3.24612C18.9281 1.92368 17.8558 0.851625 16.5331 0.851625L7.85008 0.851625Z"
      fill="#32EC83"
      stroke="#1D2F7E"
    />
    <path
      d="M7.17625 17.9112C5.57739 17.9112 4.28125 19.2071 4.28125 20.8057C4.28125 22.4043 5.57739 23.7002 7.17625 23.7002H15.8593C17.4581 23.7002 18.7542 22.4043 18.7542 20.8057C18.7542 19.2071 17.4581 17.9112 15.8593 17.9112H7.17625Z"
      fill="white"
    />
    <path
      d="M7.17625 18.4112C5.85353 18.4112 4.78125 19.4832 4.78125 20.8057C4.78125 22.1281 5.85353 23.2002 7.17625 23.2002H15.8593C17.182 23.2002 18.2542 22.1281 18.2542 20.8057C18.2542 19.4832 17.182 18.4112 15.8593 18.4112H7.17625Z"
      fill="#32EC83"
      stroke="#1D2F7E"
    />
    <path
      d="M20.2285 6.49902C20.2285 4.84217 18.8854 3.49902 17.2285 3.49902C15.5717 3.49902 14.2285 4.84217 14.2285 6.49902V17.499C14.2285 19.1559 15.5717 20.499 17.2285 20.499C18.8854 20.499 20.2285 19.1559 20.2285 17.499V6.49902Z"
      fill="white"
    />
    <path
      d="M19.7285 6.49902C19.7285 5.11831 18.6092 3.99902 17.2285 3.99902C15.8478 3.99902 14.7285 5.11831 14.7285 6.49902V17.499C14.7285 18.8797 15.8478 19.999 17.2285 19.999C18.6092 19.999 19.7285 18.8797 19.7285 17.499V6.49902Z"
      fill="#32EC83"
      stroke="#1D2F7E"
    />
  </svg>