<svg width="18" height="23" viewBox="0 0 18 23" fill="none" xmlns="http://www.w3.org/2000/svg">
<path d="M0.942034 7.13577C0.892282 7.22567 0.867519 7.32726 0.870333 7.42996C0.873147 7.53267 0.903425 7.63274 0.958025 7.71977L6.62203 16.7488V19.6278C6.62292 19.7303 6.6512 19.8307 6.70395 19.9186C6.7567 20.0065 6.83199 20.0787 6.92203 20.1278L10.757 22.2378C10.8443 22.286 10.9427 22.3107 11.0424 22.3094C11.1421 22.3081 11.2398 22.2809 11.3258 22.2305C11.4118 22.1801 11.4833 22.1081 11.5331 22.0218C11.5829 21.9354 11.6095 21.8375 11.61 21.7378V16.7488L17.27 7.72278C17.3247 7.63576 17.3551 7.53567 17.358 7.43293C17.3609 7.33019 17.3362 7.22855 17.2864 7.1386C17.2367 7.04864 17.1638 6.97367 17.0753 6.92146C16.9867 6.86926 16.8858 6.84174 16.783 6.84177H13.735C13.6259 6.30839 13.3358 5.82907 12.914 5.48486C12.4922 5.14064 11.9645 4.95264 11.42 4.95264C10.8756 4.95264 10.3478 5.14064 9.92603 5.48486C9.50421 5.82907 9.21421 6.30839 9.10503 6.84177H1.44502C1.34251 6.84266 1.24209 6.87095 1.15418 6.9237C1.06626 6.97645 0.994053 7.05174 0.945025 7.14178L0.942034 7.13577ZM11.421 6.10278C11.6585 6.10296 11.8907 6.17278 12.0889 6.3036C12.2871 6.43442 12.4425 6.62049 12.536 6.83878H10.306C10.3995 6.62049 10.555 6.43442 10.7532 6.3036C10.9514 6.17278 11.1836 6.10296 11.421 6.10278ZM15.745 7.98978L10.545 16.2788C10.4875 16.3705 10.457 16.4765 10.457 16.5848V20.7668L7.77303 19.2898V16.5898C7.77308 16.4815 7.74258 16.3755 7.68503 16.2838L2.48503 7.99477L15.745 7.98978Z" fill="white"/>
<path opacity="0.578" d="M7.5258 2.84591C7.5258 2.37855 7.38723 1.92169 7.12758 1.5331C6.86793 1.14451 6.49887 0.841634 6.06709 0.662784C5.63531 0.483934 5.16019 0.437139 4.70181 0.528316C4.24343 0.619493 3.82238 0.844546 3.49191 1.17502C3.16144 1.50549 2.93639 1.92654 2.84521 2.38491C2.75404 2.84329 2.80082 3.31841 2.97967 3.75019C3.15852 4.18198 3.46139 4.55102 3.84999 4.81067C4.23858 5.07032 4.69545 5.20891 5.16281 5.20891C5.78952 5.20891 6.39056 4.95995 6.83371 4.5168C7.27686 4.07365 7.5258 3.47262 7.5258 2.84591ZM3.94981 2.84591C3.94981 2.606 4.02095 2.37148 4.15423 2.172C4.28752 1.97253 4.47696 1.81705 4.69861 1.72525C4.92025 1.63344 5.16416 1.60941 5.39946 1.65622C5.63476 1.70302 5.85088 1.81855 6.02052 1.98819C6.19016 2.15783 6.3057 2.37397 6.35251 2.60927C6.39931 2.84457 6.37528 3.08846 6.28348 3.31011C6.19167 3.53175 6.03619 3.7212 5.83671 3.85448C5.63724 3.98777 5.40272 4.05891 5.16281 4.05891C4.8411 4.05891 4.53256 3.93111 4.30508 3.70363C4.0776 3.47615 3.94981 3.16762 3.94981 2.84591Z" fill="white"/>
</svg>
