<svg width="12" height="12" viewBox="0 0 12 12" fill="none" xmlns="http://www.w3.org/2000/svg">
<path d="M11.1568 3.54501C10.8692 2.85312 10.4479 2.2248 9.91691 1.6961C9.38598 1.16739 8.75589 0.74869 8.06279 0.464013C7.34825 0.156939 6.57852 -0.000954066 5.80079 1.32909e-05C5.02525 -0.00166851 4.25766 0.156274 3.54579 0.464013C2.14934 1.04196 1.03891 2.14987 0.457793 3.54501C0.15567 4.25965 0 5.02764 0 5.80351C0 6.57939 0.15567 7.34738 0.457793 8.06201C1.03849 9.45905 2.14875 10.5693 3.54579 11.15C4.25766 11.4578 5.02525 11.6157 5.80079 11.614C6.57852 11.6149 7.34824 11.457 8.06279 11.15C8.7562 10.864 9.38638 10.444 9.91729 9.91411C10.4482 9.38423 10.8694 8.75486 11.1568 8.06201C11.4628 7.34837 11.6206 6.57999 11.6206 5.80351C11.6206 5.02703 11.4628 4.25865 11.1568 3.54501ZM10.2298 8.36701C9.78158 9.14184 9.13734 9.78505 8.36179 10.232C7.5857 10.6868 6.7013 10.9238 5.80179 10.918C5.12006 10.9211 4.44513 10.7825 3.81979 10.511C3.2134 10.2543 2.66128 9.88476 2.19279 9.42201C1.72979 8.95206 1.36114 8.39773 1.10679 7.78901C0.838936 7.16031 0.702801 6.48338 0.706793 5.80001C0.699983 4.90306 0.934876 4.02083 1.38679 3.24601C1.83362 2.47355 2.47533 1.83185 3.24779 1.38501C4.02116 0.929833 4.90344 0.692762 5.80079 0.699013C6.7003 0.693239 7.5847 0.930232 8.36079 1.38501C9.13546 1.83136 9.77954 2.47303 10.2288 3.24601C10.6841 4.01969 10.9212 4.90232 10.9148 5.80001C10.9212 6.70181 10.6842 7.58863 10.2288 8.36701H10.2298Z" fill="#666666"/>
<path d="M5.85864 5.75004V2.45904C5.85603 2.3632 5.81589 2.27221 5.74689 2.20563C5.67788 2.13906 5.5855 2.10222 5.48962 2.10304C5.39659 2.10538 5.30813 2.14385 5.24298 2.21031C5.17783 2.27677 5.14112 2.36598 5.14062 2.45904V5.80105C5.1465 5.81762 5.15085 5.83468 5.15363 5.85204C5.14641 5.90423 5.15171 5.95739 5.1691 6.00712C5.18649 6.05685 5.21547 6.10173 5.25363 6.13804L7.15363 8.03805C7.22027 8.0994 7.30755 8.13345 7.39813 8.13345C7.48872 8.13345 7.576 8.0994 7.64264 8.03805C7.67679 8.00597 7.70399 7.96724 7.7226 7.92424C7.7412 7.88124 7.75079 7.83489 7.75079 7.78805C7.75079 7.7412 7.7412 7.69484 7.7226 7.65185C7.70399 7.60885 7.67679 7.57012 7.64264 7.53805L5.85864 5.75004Z" fill="#666666"/>
</svg>
