<svg width="12" height="8" viewBox="0 0 12 8" fill="none" xmlns="http://www.w3.org/2000/svg">
<path d="M7.429 0.114801C7.35516 0.0412785 7.2552 0 7.151 0C7.0468 0 6.94684 0.0412785 6.873 0.114801C6.83729 0.15022 6.80895 0.192358 6.78961 0.238784C6.77027 0.285211 6.76031 0.335007 6.76031 0.385302C6.76031 0.435596 6.77027 0.485392 6.78961 0.531818C6.80895 0.578245 6.83729 0.620383 6.873 0.655801L9.692 3.4258H0.389C0.338321 3.42514 0.288013 3.43452 0.240976 3.4534C0.193939 3.47227 0.151105 3.50027 0.114942 3.53579C0.07878 3.5713 0.0500053 3.61362 0.0302777 3.6603C0.01055 3.70699 0.00025967 3.75712 0 3.8078C-1.69507e-07 3.85884 0.0100688 3.90937 0.0296301 3.95651C0.0491914 4.00365 0.0778608 4.04647 0.113996 4.08251C0.150131 4.11856 0.193022 4.14711 0.240212 4.16655C0.287402 4.18599 0.337963 4.19593 0.389 4.1958H9.689L6.873 6.9608C6.80082 7.03332 6.7603 7.13148 6.7603 7.2338C6.7603 7.33612 6.80082 7.43428 6.873 7.5068C6.94684 7.58032 7.0468 7.6216 7.151 7.6216C7.2552 7.6216 7.35516 7.58032 7.429 7.5068L10.916 4.0808C10.9528 4.04603 10.9822 4.0041 11.0022 3.95759C11.0223 3.91107 11.0326 3.86095 11.0326 3.8103C11.0326 3.75965 11.0223 3.70953 11.0022 3.66301C10.9822 3.6165 10.9528 3.57457 10.916 3.5398L7.429 0.114801Z" fill="#0C28A8"/>
</svg>
