<svg width="18" height="18" viewBox="0 0 18 18" fill="none" xmlns="http://www.w3.org/2000/svg">
<path d="M16.4511 8.37122C16.3267 8.37122 16.2074 8.42063 16.1195 8.50858C16.0315 8.59654 15.9821 8.71583 15.9821 8.84022C15.9814 10.3862 15.4731 11.8891 14.5355 13.1183C13.5978 14.3474 12.2826 15.2348 10.7918 15.644C9.30096 16.0533 7.71703 15.9618 6.28324 15.3837C4.84946 14.8055 3.64511 13.7727 2.85517 12.4438C2.06524 11.1149 1.7334 9.56338 1.91063 8.02761C2.08786 6.49184 2.76435 5.05672 3.8362 3.94267C4.90805 2.82861 6.31599 2.09723 7.84377 1.86085C9.37155 1.62447 10.9347 1.89617 12.2931 2.63422L11.7071 3.22022C11.6418 3.2858 11.5973 3.36926 11.5793 3.46007C11.5613 3.55088 11.5706 3.64498 11.606 3.73053C11.6414 3.81607 11.7013 3.88922 11.7782 3.94078C11.8551 3.99233 11.9455 4.01997 12.0381 4.02022H14.2811C14.4055 4.02022 14.5248 3.97081 14.6127 3.88285C14.7007 3.7949 14.7501 3.6756 14.7501 3.55122V1.30922C14.7498 1.21664 14.7222 1.12621 14.6706 1.04932C14.6191 0.972422 14.5459 0.912504 14.4604 0.877111C14.3749 0.841717 14.2808 0.832432 14.1899 0.850424C14.0991 0.868417 14.0157 0.912882 13.9501 0.978218L12.9811 1.94722C11.3036 0.958331 9.32298 0.615243 7.4106 0.982275C5.49821 1.34931 3.78535 2.40125 2.59313 3.94091C1.40091 5.48057 0.811193 7.40221 0.934529 9.34559C1.05787 11.289 1.88579 13.1206 3.26309 14.4972C4.38202 15.6154 5.80733 16.3768 7.35888 16.6851C8.91042 16.9934 10.5185 16.8348 11.98 16.2294C13.4414 15.6239 14.6906 14.5988 15.5695 13.2836C16.4484 11.9684 16.9178 10.4221 16.9181 8.84022C16.9181 8.71618 16.869 8.59719 16.7814 8.50929C16.6939 8.42139 16.5751 8.37175 16.4511 8.37122Z" fill="black" stroke="black" stroke-width="0.5"/>
<path d="M11.9322 8.37106H9.38818V5.82806C9.39111 5.76472 9.38115 5.70144 9.35893 5.64204C9.33671 5.58265 9.30267 5.52838 9.25888 5.48251C9.21509 5.43665 9.16246 5.40016 9.10415 5.37521C9.04585 5.35027 8.98309 5.3374 8.91967 5.3374C8.85626 5.3374 8.79351 5.35027 8.73521 5.37521C8.67691 5.40016 8.62426 5.43665 8.58047 5.48251C8.53668 5.52838 8.50264 5.58265 8.48042 5.64204C8.4582 5.70144 8.44826 5.76472 8.45118 5.82806V8.84006C8.45118 8.96444 8.50059 9.08374 8.58854 9.17169C8.6765 9.25965 8.79579 9.30905 8.92018 9.30905H11.9322C11.9955 9.31198 12.0588 9.30204 12.1182 9.27982C12.1776 9.25759 12.2319 9.22356 12.2777 9.17976C12.3236 9.13597 12.3601 9.08333 12.385 9.02502C12.41 8.96672 12.4228 8.90397 12.4228 8.84056C12.4228 8.77715 12.41 8.71438 12.385 8.65608C12.3601 8.59778 12.3236 8.54515 12.2777 8.50136C12.2319 8.45757 12.1776 8.42353 12.1182 8.40131C12.0588 8.37908 11.9955 8.36913 11.9322 8.37206V8.37106Z" fill="black" stroke="black" stroke-width="0.5"/>
</svg>
