<svg width="13" height="11" viewBox="0 0 13 11" fill="none" xmlns="http://www.w3.org/2000/svg">
<path d="M5.89706 7.37658C5.95461 7.32022 5.98742 7.24331 5.98826 7.16276C5.98911 7.08221 5.95792 7.00463 5.90156 6.94708C5.8452 6.88953 5.76829 6.85672 5.68774 6.85588C5.6072 6.85503 5.52961 6.88622 5.47206 6.94258L3.29606 9.12258L3.29606 1.94258C3.29606 1.86301 3.26446 1.78671 3.20819 1.73045C3.15193 1.67419 3.07563 1.64258 2.99606 1.64258C2.9165 1.64258 2.84019 1.67419 2.78393 1.73045C2.72767 1.78671 2.69606 1.86301 2.69606 1.94258L2.69606 9.12258L0.518062 6.94258C0.460589 6.8868 0.38365 6.85561 0.303562 6.85561C0.223474 6.85561 0.146535 6.8868 0.0890622 6.94258C0.0604882 6.97052 0.0377846 7.00388 0.022284 7.04072C0.00678349 7.07755 -0.00120068 7.11712 -0.00120068 7.15708C-0.00120068 7.19704 0.00678349 7.2366 0.022284 7.27344C0.0377846 7.31027 0.0604882 7.34364 0.0890622 7.37158L2.78006 10.0666C2.80793 10.0945 2.84105 10.1167 2.87752 10.1319C2.91398 10.147 2.95308 10.1548 2.99256 10.1548C3.03205 10.1548 3.07114 10.147 3.10761 10.1319C3.14407 10.1167 3.17719 10.0945 3.20506 10.0666L5.89706 7.37658Z" fill="black"/>
<path d="M6.13516 2.77967C6.07761 2.83603 6.04481 2.91294 6.04396 2.99349C6.04312 3.07404 6.07431 3.15162 6.13066 3.20917C6.18702 3.26672 6.26394 3.29953 6.34448 3.30037C6.42503 3.30122 6.50261 3.27003 6.56016 3.21367L8.73616 1.03367V8.21367C8.73616 8.29324 8.76777 8.36954 8.82403 8.4258C8.88029 8.48206 8.9566 8.51367 9.03616 8.51367C9.11573 8.51367 9.19204 8.48206 9.2483 8.4258C9.30456 8.36954 9.33616 8.29324 9.33616 8.21367V1.03367L11.5142 3.21367C11.5716 3.26945 11.6486 3.30064 11.7287 3.30064C11.8088 3.30064 11.8857 3.26945 11.9432 3.21367C11.9717 3.18573 11.9944 3.15237 12.0099 3.11553C12.0254 3.0787 12.0334 3.03913 12.0334 2.99917C12.0334 2.95921 12.0254 2.91965 12.0099 2.88281C11.9944 2.84598 11.9717 2.81261 11.9432 2.78467L9.25216 0.0896721C9.22429 0.0617037 9.19118 0.0395126 9.15471 0.0243711C9.11824 0.00922966 9.07915 0.00143528 9.03966 0.00143528C9.00018 0.00143528 8.96108 0.00922966 8.92462 0.0243711C8.88815 0.0395126 8.85504 0.0617037 8.82716 0.0896721L6.13516 2.77967Z" fill="black"/>
</svg>
