<svg width="10" height="13" viewBox="0 0 10 13" fill="none" xmlns="http://www.w3.org/2000/svg">
<path d="M8.01631 0.668945C7.51129 0.670528 7.02741 0.871841 6.67031 1.22894C6.31321 1.58604 6.11189 2.06994 6.11031 2.57495C6.11099 2.75516 6.1376 2.93431 6.18931 3.10693L3.09531 4.89392C2.81461 4.67029 2.47651 4.53042 2.11986 4.49036C1.76322 4.4503 1.4025 4.51169 1.07919 4.66748C0.755875 4.82327 0.483087 5.06713 0.292181 5.37103C0.101275 5.67494 0 6.02655 0 6.38544C0 6.74433 0.101275 7.09594 0.292181 7.39984C0.483087 7.70374 0.755875 7.9476 1.07919 8.10339C1.4025 8.25918 1.76322 8.32058 2.11986 8.28052C2.47651 8.24046 2.81461 8.10059 3.09531 7.87695L6.18531 9.66394C6.13323 9.83786 6.10662 10.0184 6.10631 10.2C6.10507 10.6501 6.26281 11.0863 6.55171 11.4316C6.8406 11.7768 7.24212 12.009 7.68546 12.0872C8.12881 12.1653 8.58552 12.0845 8.97508 11.8588C9.36464 11.6332 9.66204 11.2773 9.81485 10.8539C9.96765 10.4304 9.96606 9.96659 9.81034 9.54419C9.65463 9.12179 9.35479 8.76793 8.96369 8.54498C8.57258 8.32204 8.11533 8.24434 7.67253 8.32556C7.22974 8.40678 6.82983 8.64172 6.54331 8.98895L3.59231 7.28894C3.74162 7.01246 3.81981 6.70314 3.81981 6.38892C3.81981 6.07469 3.74162 5.76544 3.59231 5.48895C4.48531 4.91995 5.64731 4.35394 6.54731 3.78894C6.75159 4.03687 7.01522 4.22914 7.31371 4.3479C7.6122 4.46666 7.93587 4.50809 8.25464 4.46826C8.57341 4.42843 8.87694 4.30867 9.13703 4.12012C9.39712 3.93156 9.60534 3.68028 9.74233 3.38971C9.87933 3.09913 9.94065 2.77869 9.92062 2.45807C9.90058 2.13745 9.79982 1.8271 9.62772 1.55585C9.45561 1.28459 9.21773 1.0612 8.93618 0.906494C8.65464 0.751793 8.33856 0.670788 8.01731 0.670959L8.01631 0.668945ZM8.01631 1.43195C8.24257 1.43195 8.46375 1.49905 8.65188 1.62476C8.84001 1.75046 8.98664 1.92914 9.07323 2.13818C9.15981 2.34722 9.18247 2.57722 9.13833 2.79913C9.09419 3.02105 8.98523 3.2249 8.82524 3.38489C8.66525 3.54488 8.46141 3.6538 8.23949 3.69794C8.01758 3.74208 7.78756 3.71946 7.57852 3.63287C7.36948 3.54629 7.19081 3.39968 7.06511 3.21155C6.9394 3.02342 6.87231 2.80219 6.87231 2.57593C6.87151 2.42547 6.90056 2.27636 6.95777 2.13721C7.01498 1.99805 7.09922 1.87165 7.20561 1.76526C7.31199 1.65887 7.43843 1.5746 7.57758 1.5174C7.71674 1.46019 7.86585 1.43115 8.01631 1.43195ZM1.91631 5.24493C2.14257 5.24493 2.36375 5.31204 2.55188 5.43774C2.74001 5.56345 2.88664 5.74213 2.97323 5.95117C3.05981 6.16021 3.08247 6.39021 3.03833 6.61212C2.99419 6.83404 2.88523 7.03788 2.72524 7.19788C2.56525 7.35787 2.36141 7.46685 2.13949 7.51099C1.91758 7.55513 1.68756 7.53245 1.47852 7.44586C1.26948 7.35928 1.09081 7.21267 0.965108 7.02454C0.839404 6.83641 0.772308 6.61518 0.772308 6.38892C0.771514 6.23855 0.800529 6.08953 0.857677 5.95044C0.914824 5.81135 0.998971 5.68499 1.10525 5.57861C1.21154 5.47224 1.33785 5.38796 1.47689 5.33069C1.61593 5.27342 1.76494 5.24427 1.91531 5.24493H1.91631ZM8.01631 9.05792C8.24257 9.05792 8.46375 9.12503 8.65188 9.25073C8.84001 9.37644 8.98664 9.55512 9.07323 9.76416C9.15981 9.9732 9.18247 10.2032 9.13833 10.4251C9.09419 10.647 8.98523 10.8509 8.82524 11.0109C8.66525 11.1709 8.46141 11.2798 8.23949 11.324C8.01758 11.3681 7.78756 11.3454 7.57852 11.2589C7.36948 11.1723 7.19081 11.0257 7.06511 10.8375C6.9394 10.6494 6.87231 10.4282 6.87231 10.202C6.87151 10.0515 6.90056 9.9024 6.95777 9.76324C7.01498 9.62409 7.09922 9.49762 7.20561 9.39124C7.31199 9.28485 7.43843 9.20064 7.57758 9.14343C7.71674 9.08622 7.86585 9.05713 8.01631 9.05792Z" fill="#0C28A8"/>
</svg>
