<svg width="18" height="22" viewBox="0 0 18 22" fill="none" xmlns="http://www.w3.org/2000/svg">
<g clip-path="url(#clip0_2_63)">
<path fill-rule="evenodd" clip-rule="evenodd" d="M4.27398 3.28646C4.47228 3.09428 4.78882 3.09924 4.981 3.29754C5.72344 4.06362 6.61225 4.67269 7.59467 5.08859C8.57707 5.50447 9.63305 5.71868 10.6998 5.71851L10.7012 5.71851C11.7777 5.72136 12.8436 5.50594 13.8345 5.08527C14.0887 4.97736 14.3822 5.09593 14.4901 5.35012C14.5981 5.6043 14.4795 5.89784 14.2253 6.00575C13.1102 6.47915 11.9107 6.72163 10.6992 6.71851C9.49874 6.7186 8.3104 6.47749 7.20483 6.00947L7.20483 6.00947C6.09903 5.54134 5.09858 4.85577 4.2629 3.99348C4.07072 3.79518 4.07568 3.47864 4.27398 3.28646ZM10.6992 6.71851C10.699 6.71851 10.6988 6.71851 10.6986 6.71851L10.6999 6.21851L10.7 6.71851C10.6997 6.71851 10.6995 6.71851 10.6992 6.71851Z" fill="#0C28A8"/>
<path fill-rule="evenodd" clip-rule="evenodd" d="M3.40192 6.22398C3.40192 3.13229 5.90822 0.625977 8.99992 0.625977C12.0916 0.625977 14.5979 3.13229 14.5979 6.22398C14.5979 9.31565 12.0916 11.822 8.99992 11.822C5.90822 11.822 3.40192 9.31566 3.40192 6.22398ZM8.99992 1.62598C6.46051 1.62598 4.40192 3.68457 4.40192 6.22398C4.40192 8.76338 6.46051 10.822 8.99992 10.822C11.5393 10.822 13.5979 8.76338 13.5979 6.22398C13.5979 3.68457 11.5393 1.62598 8.99992 1.62598Z" fill="#0C28A8"/>
<path fill-rule="evenodd" clip-rule="evenodd" d="M9.49067 12.6547C9.76014 12.5943 10.0275 12.7639 10.0878 13.0333L11.2198 18.0883C11.26 18.2689 11.2541 18.4572 11.2026 18.6346C11.151 18.8116 11.0557 18.9738 10.9247 19.1049L9.78271 20.2469C9.68039 20.3494 9.55903 20.4304 9.42569 20.4857C9.29197 20.5411 9.14882 20.5695 9.00443 20.5695C8.86005 20.5695 8.71688 20.5411 8.58316 20.4857C8.44993 20.4304 8.32865 20.3495 8.22638 20.2472L7.08438 19.1052C6.95382 18.9743 6.85793 18.8122 6.80635 18.6348C6.75475 18.4573 6.74873 18.2696 6.78883 18.0892C6.78884 18.0891 6.78882 18.0892 6.78883 18.0892L7.91183 13.0342C7.97172 12.7646 8.23879 12.5946 8.50836 12.6545C8.77793 12.7144 8.94792 12.9815 8.88803 13.251L7.76503 18.306C7.76139 18.3224 7.76192 18.3396 7.76659 18.3556C7.77128 18.3717 7.77995 18.3865 7.79181 18.3984C7.79184 18.3984 7.79178 18.3983 7.79181 18.3984L8.93348 19.54C8.9426 19.5492 8.95382 19.5568 8.96616 19.5619C8.97812 19.5669 8.99111 19.5695 9.00443 19.5695C9.01774 19.5695 9.03073 19.5669 9.04269 19.5619C9.05503 19.5568 9.06601 19.5494 9.07515 19.5403L10.2171 18.3983C10.2171 18.3983 10.2171 18.3983 10.2171 18.3983C10.2287 18.3867 10.2375 18.3719 10.2424 18.3554C10.2471 18.3391 10.2475 18.3226 10.2439 18.3064C10.2439 18.3063 10.2439 18.3064 10.2439 18.3064L9.11201 13.2519C9.05167 12.9824 9.2212 12.715 9.49067 12.6547Z" fill="#0C28A8"/>
<path fill-rule="evenodd" clip-rule="evenodd" d="M3.68957 14.3989C5.22486 13.2571 7.08718 12.6406 9.00042 12.6406C10.9137 12.6406 12.776 13.2571 14.3113 14.3989C15.8465 15.5405 16.9731 17.1465 17.5237 18.9789C17.6032 19.2434 17.4533 19.5222 17.1888 19.6016C16.9243 19.6811 16.6455 19.5312 16.566 19.2667C16.0773 17.6403 15.0773 16.2147 13.7145 15.2013L13.7145 15.2013C12.3518 14.1879 10.6987 13.6406 9.00042 13.6406C7.30215 13.6406 5.64909 14.1879 4.28632 15.2013L4.2863 15.2013C2.92353 16.2147 1.9236 17.6403 1.43477 19.2667C1.35529 19.5312 1.07647 19.6811 0.812013 19.6016C0.547556 19.5222 0.397604 19.2433 0.477086 18.9789C1.02779 17.1465 2.15428 15.5405 3.68957 14.3989Z" fill="#0C28A8"/>
</g>
<defs>
<clipPath id="clip0_2_63">
<rect width="18" height="21" fill="white" transform="translate(0 0.5)"/>
</clipPath>
</defs>
</svg>
