<svg width="30" height="30" viewBox="0 0 30 30" fill="none" xmlns="http://www.w3.org/2000/svg">
<path d="M5.63107 0.111387C2.96153 0.596758 0.879551 2.54463 0.164268 5.21417C0.0301527 5.72508 0.0301527 5.80172 0.00460693 11.9902C-0.00816598 16.4543 0.00460693 18.3958 0.0556986 18.7598C0.247292 20.0882 0.885938 21.4038 1.85029 22.4576C2.55919 23.2367 3.81732 24.0031 4.87747 24.3097L5.38839 24.4566L5.42032 26.7493L5.45225 29.042L5.61191 29.3294C5.70132 29.4827 5.8993 29.6998 6.04619 29.8084C6.30165 29.9808 6.3719 30 6.82534 30H7.3171L11.3661 27.2985L15.4151 24.6034H19.4705C23.494 24.5971 24.0815 24.5715 24.8926 24.3735C27.4983 23.7157 29.5611 21.4294 29.9443 18.7598C29.9954 18.3958 30.0082 16.4543 29.9954 11.9902C29.9698 5.80172 29.9698 5.72508 29.8357 5.21417C29.4972 3.94965 28.9097 2.9342 28.0028 2.02094C27.0896 1.11406 26.0741 0.526506 24.8096 0.188025L24.2923 0.0475235L15.1916 0.0411358C7.89826 0.0283642 6.00149 0.0411358 5.63107 0.111387ZM23.7239 8.37546C24.2348 8.60537 24.5797 9.23763 24.4839 9.78048C24.3945 10.3042 23.9283 10.764 23.3726 10.8726C22.9 10.962 7.09996 10.962 6.62736 10.8726C6.07174 10.764 5.60553 10.3042 5.51612 9.78048C5.42032 9.23763 5.76519 8.60537 6.2761 8.37546C6.52518 8.26051 6.90198 8.25412 15 8.25412C23.098 8.25412 23.4748 8.26051 23.7239 8.37546ZM20.8181 13.7529C21.3609 13.9189 21.7696 14.4618 21.7696 15.0238C21.7696 15.5858 21.3609 16.1286 20.8181 16.2947C20.4732 16.3968 9.52681 16.3968 9.18194 16.2947C8.84984 16.1925 8.4922 15.8859 8.3517 15.573C8.03238 14.8705 8.39641 14.0402 9.13723 13.7656C9.43101 13.6634 20.4668 13.6507 20.8181 13.7529Z" fill="white"/>
</svg>
