<svg width="16" height="17" viewBox="0 0 16 17" fill="none" xmlns="http://www.w3.org/2000/svg">
<path d="M8.00006 0.0610352C6.41959 0.0610352 4.8746 0.531204 3.56049 1.41209C2.24637 2.29297 1.22214 3.545 0.617317 5.00986C0.0124955 6.47471 -0.145753 8.0866 0.162582 9.64168C0.470918 11.1968 1.23199 12.6252 2.34955 13.7463C3.46712 14.8675 4.89098 15.631 6.44109 15.9403C7.9912 16.2497 9.59793 16.0909 11.0581 15.4841C12.5183 14.8774 13.7663 13.8499 14.6444 12.5315C15.5224 11.2132 15.9911 9.66325 15.9911 8.0777C15.9887 5.95228 15.146 3.9146 13.6479 2.4117C12.1498 0.908803 10.1187 0.0634249 8.00006 0.0610352ZM8.00006 14.7581C6.25558 14.7586 4.58109 14.0699 3.33905 12.841V11.7525C3.35366 11.4721 3.46139 11.2048 3.64505 10.993C3.86172 10.7371 3.98948 10.4173 4.00905 10.0821C4.00905 9.44508 3.43605 9.37987 3.12705 9.34576C2.93133 9.34936 2.7395 9.29072 2.57905 9.17823C2.47007 9.04683 2.37739 8.90265 2.30304 8.74885C2.09961 8.30522 1.77464 7.92876 1.36604 7.66338C1.47171 5.96898 2.21617 4.37843 3.44828 3.21466C4.68039 2.05089 6.30779 1.40114 8.00006 1.39731C8.18306 1.39731 8.36206 1.41036 8.54206 1.4244C8.50288 1.44413 8.4657 1.46765 8.43106 1.49463C8.39902 1.52679 8.37386 1.56519 8.35713 1.60745C8.34039 1.64972 8.33244 1.69497 8.33375 1.74043C8.33506 1.78589 8.34561 1.8306 8.36475 1.87183C8.38389 1.91305 8.41122 1.94992 8.44506 1.98018C8.50042 2.02745 8.54979 2.08136 8.59206 2.14069C8.58506 2.15674 8.52306 2.26108 8.18306 2.43463C7.87303 2.57501 7.59612 2.77961 7.37051 3.03498C7.1449 3.29036 6.97571 3.59074 6.87406 3.91638C6.85026 4.04621 6.8583 4.1799 6.8975 4.30592C6.9367 4.43193 7.00588 4.54649 7.09906 4.63969C7.12972 4.67111 7.16627 4.69614 7.20659 4.71336C7.24692 4.73057 7.29024 4.73963 7.33406 4.74002C7.74345 4.72133 8.14264 4.60583 8.49906 4.40294C8.85541 4.20008 9.25556 4.08716 9.66507 4.07388C10.9721 4.07388 11.9961 4.36782 11.9961 4.74202C11.9961 4.87946 11.9531 4.9216 11.9371 4.93665C11.7731 5.09816 11.2161 5.08813 10.7271 5.0801C10.5971 5.0801 10.4651 5.0801 10.3271 5.0801C10.0674 5.10149 9.80687 5.05191 9.57307 4.93665C9.29133 4.79506 8.97774 4.72938 8.66306 4.74604C7.849 4.70852 7.05102 4.98205 6.43006 5.51149C6.23309 5.72826 6.08987 5.98859 6.01203 6.27133C5.93418 6.55406 5.92392 6.85123 5.98206 7.1387C5.99106 7.23902 6.00006 7.33232 6.00006 7.41759C6.00006 8.0757 6.67006 8.4208 7.33206 8.4208C8.01583 8.3687 8.70201 8.48331 9.33207 8.75487C9.33572 9.04427 9.40407 9.32916 9.53207 9.58854C9.61341 9.74359 9.65887 9.91504 9.66507 10.0901C9.67067 10.1391 9.66541 10.1886 9.64968 10.2353C9.63395 10.282 9.60813 10.3245 9.57407 10.36C9.4038 10.5645 9.31731 10.8263 9.33207 11.0924C9.41689 11.6773 9.67909 12.222 10.0831 12.6523C10.1143 12.687 10.1524 12.7147 10.1949 12.7337C10.2375 12.7527 10.2835 12.7626 10.3301 12.7627C10.3581 12.763 10.386 12.7596 10.4131 12.7527C10.6131 12.7025 12.3281 12.227 12.3281 11.0934C12.3146 10.9772 12.3333 10.8595 12.3822 10.7533C12.4311 10.6471 12.5082 10.5565 12.6051 10.4914C12.724 10.4083 12.8214 10.2978 12.8891 10.1692C12.9568 10.0405 12.9928 9.89751 12.9941 9.75206C13.1833 9.20409 13.4965 8.70755 13.9091 8.30142C13.9397 8.26731 13.9631 8.22722 13.9776 8.18365C13.9921 8.14009 13.9975 8.09399 13.9935 8.04824C13.9895 8.00248 13.9761 7.95805 13.9541 7.91772C13.9322 7.8774 13.9022 7.84204 13.8661 7.81386C13.3529 7.41596 12.9376 6.90527 12.6521 6.32108C12.8134 6.40667 12.9616 6.51512 13.0921 6.64311C13.1483 6.69858 13.2156 6.7414 13.2896 6.76873C13.3635 6.79607 13.4425 6.80728 13.5211 6.80162C13.8619 6.73027 14.1735 6.55758 14.4151 6.30603C14.6913 7.29741 14.7347 8.33954 14.5418 9.35058C14.3489 10.3616 13.9251 11.314 13.3034 12.133C12.6818 12.952 11.8794 13.6153 10.9592 14.0708C10.0391 14.5263 9.02615 14.7615 8.00006 14.7581Z" fill="white"/>
</svg>
