<svg width="12" height="7" viewBox="0 0 12 7" fill="none" xmlns="http://www.w3.org/2000/svg">
<path d="M10.8439 0.607607C10.8102 0.57335 10.7699 0.546155 10.7255 0.527588C10.6811 0.509021 10.6336 0.499451 10.5854 0.499451C10.5373 0.499451 10.4897 0.509021 10.4453 0.527588C10.4009 0.546155 10.3607 0.57335 10.327 0.607607L5.77797 5.22867L1.22 0.607607C1.1863 0.573228 1.14604 0.545927 1.10165 0.527283C1.05727 0.508639 1.0096 0.499023 0.961455 0.499023C0.913312 0.499023 0.865644 0.508639 0.821258 0.527283C0.776872 0.545927 0.736675 0.573228 0.702972 0.607607C0.634325 0.677537 0.595856 0.77161 0.595856 0.869604C0.595856 0.967597 0.634325 1.06167 0.702972 1.1316L5.51094 6.00667C5.54442 6.04151 5.58469 6.06917 5.62923 6.08791C5.67376 6.10665 5.72166 6.11609 5.76997 6.11568C5.86726 6.11471 5.96024 6.07556 6.02894 6.00667L10.8369 1.1316C10.8722 1.0979 10.9004 1.05753 10.9199 1.01279C10.9394 0.968059 10.9498 0.919862 10.9504 0.871068C10.9511 0.822275 10.9421 0.77385 10.9238 0.72861C10.9055 0.683371 10.8783 0.642236 10.8439 0.607607Z" fill="black" stroke="black" stroke-width="0.5"/>
</svg>
