<svg width="17" height="17" viewBox="0 0 17 17" fill="none" xmlns="http://www.w3.org/2000/svg">
<path d="M7.14878 0.976025C4.19147 1.36392 1.78121 3.58521 1.15129 6.4961C0.965629 7.36141 0.949052 8.43559 1.1115 9.29095C1.47288 11.1973 2.59016 12.8583 4.23126 13.9325C5.15624 14.5358 6.50228 14.9934 7.36427 15C7.65934 15 7.73228 14.9901 7.845 14.9271C8.02072 14.8342 8.24616 14.5889 8.33568 14.3933C8.4053 14.2408 8.40861 14.1911 8.42519 12.6229L8.44177 11.005L8.5346 10.9155L8.62411 10.8226L11.1869 10.8061C13.9652 10.7895 13.7828 10.7994 14.1641 10.6071C14.5089 10.4281 14.7807 10.1132 14.8901 9.75178C15.0857 9.12187 15.1719 8.01785 15.0924 7.252C14.7343 3.94327 12.1351 1.32745 8.83961 0.959448C8.43514 0.916348 7.55657 0.922979 7.14878 0.976025ZM8.69373 1.65899C10.0762 1.79823 11.3759 2.38505 12.4036 3.33325C13.7298 4.55993 14.4956 6.41322 14.4127 8.22009C14.3928 8.71739 14.2901 9.35726 14.1972 9.56281C14.1309 9.71532 13.9287 9.90761 13.7231 10.017L13.5806 10.0933L11.0443 10.1098L8.50807 10.1264L8.3191 10.2193C8.09365 10.332 7.85826 10.5806 7.77538 10.7994C7.71902 10.942 7.71239 11.1045 7.70244 12.5533L7.6925 14.148L7.60298 14.2375C7.51678 14.3237 7.50352 14.327 7.29797 14.3071C6.43266 14.2176 5.36843 13.8297 4.586 13.3158C1.26733 11.1409 0.716977 6.53588 3.42231 3.62831C4.75177 2.20271 6.7443 1.46007 8.69373 1.65899Z" fill="black"/>
<path d="M5.68983 3.77556C5.39477 3.85181 5.13617 4.06731 4.98698 4.35243C4.91072 4.50162 4.89746 4.56461 4.89746 4.80663C4.89746 5.04865 4.91072 5.11165 4.98698 5.26084C5.0997 5.47965 5.26547 5.64542 5.48428 5.75814C5.63347 5.83439 5.69646 5.84766 5.93848 5.84766C6.18051 5.84766 6.2435 5.83439 6.39269 5.75814C6.6115 5.64542 6.77727 5.47965 6.88999 5.26084C6.96625 5.11165 6.97951 5.04865 6.97951 4.80663C6.97951 4.56461 6.96625 4.50162 6.88999 4.35243C6.70433 3.99437 6.38937 3.7855 6.01142 3.76229C5.88875 3.75566 5.74619 3.75898 5.68983 3.77556ZM6.08768 4.49499C6.19045 4.5414 6.30317 4.70717 6.30317 4.80663C6.30317 4.82984 6.27997 4.89615 6.25013 4.95582C6.18714 5.09175 6.00811 5.18458 5.87218 5.15475C5.74951 5.12822 5.61689 4.99561 5.59037 4.87294C5.56053 4.74033 5.65336 4.55798 5.78266 4.49499C5.91528 4.42868 5.95175 4.42868 6.08768 4.49499Z" fill="black"/>
<path d="M9.93397 3.77556C9.63891 3.85181 9.38031 4.06731 9.23112 4.35243C9.15486 4.50162 9.1416 4.56461 9.1416 4.80663C9.1416 5.04865 9.15486 5.11165 9.23112 5.26084C9.34384 5.47965 9.50961 5.64542 9.72842 5.75814C9.87761 5.83439 9.9406 5.84766 10.1826 5.84766C10.4246 5.84766 10.4876 5.83439 10.6368 5.75814C10.8556 5.64542 11.0214 5.47965 11.1341 5.26084C11.2104 5.11165 11.2236 5.04865 11.2236 4.80663C11.2236 4.56461 11.2104 4.50162 11.1341 4.35243C10.9485 3.99437 10.6335 3.7855 10.2556 3.76229C10.1329 3.75566 9.99033 3.75898 9.93397 3.77556ZM10.3318 4.49499C10.4346 4.5414 10.5473 4.70717 10.5473 4.80663C10.5473 4.82984 10.5241 4.89615 10.4943 4.95582C10.4313 5.09175 10.2522 5.18458 10.1163 5.15475C9.99365 5.12822 9.86103 4.99561 9.83451 4.87294C9.80467 4.74033 9.8975 4.55798 10.0268 4.49499C10.1594 4.42868 10.1959 4.42868 10.3318 4.49499Z" fill="black"/>
<path d="M3.94343 6.59918C3.63842 6.67212 3.36324 6.89094 3.22068 7.17937C3.15437 7.3153 3.14111 7.39155 3.14111 7.64021C3.14111 7.8988 3.15437 7.9618 3.23063 8.10436C3.33672 8.30328 3.51906 8.48231 3.7213 8.5884C3.84397 8.65471 3.92022 8.66797 4.16888 8.66797C4.41753 8.66797 4.49378 8.65471 4.62971 8.5884C5.51491 8.15077 5.3823 6.8611 4.43079 6.61244C4.21861 6.55608 4.12909 6.55608 3.94343 6.59918ZM4.42084 7.38824C4.58661 7.55401 4.53025 7.86565 4.32138 7.95517C4.11914 8.03805 3.88707 7.92201 3.83734 7.71314C3.75114 7.37498 4.17219 7.13959 4.42084 7.38824Z" fill="black"/>
<path d="M11.7045 6.60433C11.5023 6.66069 11.2702 6.79994 11.1575 6.93255C10.7 7.47627 10.8691 8.27859 11.5023 8.59023C11.7278 8.69964 12.1886 8.69964 12.4041 8.58691C12.6063 8.48082 12.7887 8.30179 12.8948 8.10287C12.971 7.96031 12.9843 7.89732 12.9843 7.63872C12.9843 7.39007 12.971 7.31382 12.9047 7.17789C12.6859 6.73363 12.1521 6.47835 11.7045 6.60433ZM12.1521 7.34034C12.4008 7.50279 12.3113 7.91721 12.0162 7.97357C11.7841 8.01667 11.6084 7.86417 11.6084 7.62214C11.6084 7.51274 11.6283 7.46301 11.7045 7.38675C11.7808 7.3105 11.8305 7.29061 11.9399 7.29061C12.0129 7.29061 12.109 7.31382 12.1521 7.34034Z" fill="black"/>
</svg>
