<svg width="14" height="15" viewBox="0 0 14 15" fill="none" xmlns="http://www.w3.org/2000/svg">
<path fill-rule="evenodd" clip-rule="evenodd" d="M7 0.833324C7.3682 0.833324 7.66668 1.1318 7.66668 1.5V7.88975L9.85978 5.69657C10.1201 5.43621 10.5422 5.4362 10.8026 5.69655C11.063 5.9569 11.063 6.37902 10.8026 6.63937L7.49217 9.94993C7.43336 10.0143 7.36212 10.067 7.28224 10.1044C7.19414 10.1459 7.09715 10.1681 6.99788 10.1681C6.82107 10.1681 6.65149 10.0978 6.52647 9.9728L3.19314 6.63937C2.93279 6.37902 2.93279 5.9569 3.19315 5.69655C3.45351 5.4362 3.87562 5.43621 4.13597 5.69657L6.33333 7.89399V1.5C6.33333 1.1318 6.63181 0.833324 7 0.833324ZM1 8.83332C1.3682 8.83332 1.66668 9.1318 1.66668 9.5V12.1667C1.66668 12.3435 1.73687 12.513 1.86189 12.6381C1.98695 12.7632 2.15655 12.8334 2.33333 12.8334H11.6667C11.8433 12.8334 12.0129 12.7633 12.138 12.6383M12.138 12.6383C12.263 12.5132 12.3333 12.3435 12.3333 12.1667V9.5C12.3333 9.1318 12.6318 8.83332 13 8.83332C13.3682 8.83332 13.6667 9.1318 13.6667 9.5V12.1667C13.6667 12.6972 13.4559 13.2059 13.081 13.5809C12.706 13.9558 12.1972 14.1668 11.6667 14.1668H2.33333C1.80288 14.1668 1.2942 13.956 0.91916 13.5811C0.54416 13.206 0.333328 12.6972 0.333328 12.1667V9.5C0.333328 9.1318 0.631809 8.83332 1 8.83332" fill="#304CB2"/>
</svg>
