<svg width="12" height="13" viewBox="0 0 12 13" fill="none" xmlns="http://www.w3.org/2000/svg">
<path d="M1.27159 0.287666C0.949596 0.388949 0.739758 0.580665 0.587806 0.906219L0.500977 1.08708V6.35383V11.6206L0.609513 11.8412C0.73614 12.0872 0.906181 12.2572 1.14858 12.3693C1.31139 12.4453 1.35842 12.4453 3.38444 12.4453H5.45749L5.54794 12.3513C5.75054 12.1487 5.67095 11.8195 5.39599 11.7436C5.30916 11.7182 4.58196 11.7038 3.35911 11.7038C1.28606 11.7038 1.3548 11.711 1.26435 11.4976C1.23541 11.4216 1.22456 10.076 1.23179 6.2851L1.24265 1.17028L1.34395 1.08347L1.44525 0.996651H3.35188C4.57835 0.996651 5.30916 0.982182 5.39599 0.956861C5.6818 0.877281 5.75416 0.537257 5.52985 0.33469L5.42132 0.237024L3.42062 0.240642C1.88301 0.240642 1.38736 0.251493 1.27159 0.287666Z" fill="black"/>
<path d="M8.05876 3.27366C7.97555 3.35686 7.95385 3.41112 7.95385 3.5341V3.68965L9.10072 4.83994L10.2512 5.99023H6.82144H3.38806L3.28314 6.09513C3.19993 6.17833 3.17822 6.23259 3.17822 6.35196C3.17822 6.47133 3.19993 6.52559 3.28314 6.60878L3.38806 6.71368H6.82144H10.2512L9.10072 7.86398L7.95385 9.01427V9.16981C7.95385 9.38685 8.10218 9.53516 8.31925 9.53516H8.47482L9.95092 8.06293C10.7613 7.25266 11.4415 6.54729 11.4668 6.48941C11.5645 6.25429 11.5573 6.24706 9.96901 4.65907L8.47482 3.16876H8.31925C8.19624 3.16876 8.14198 3.19046 8.05876 3.27366Z" fill="black"/>
</svg>
