<svg width="20" height="21" viewBox="0 0 20 21" fill="none" xmlns="http://www.w3.org/2000/svg">
<path d="M3.55205 0.500782C3.2342 0.583193 2.90849 0.763712 2.57494 1.05019C2.20606 1.36806 0.883618 2.7141 0.667788 2.99273C-0.207302 4.11116 -0.222999 5.84963 0.624622 8.09434C1.65668 10.8374 3.5913 13.6159 6.03998 15.8723C9.41477 18.9843 13.9354 20.9975 16.2624 20.4324C16.6078 20.35 17.1807 20.0831 17.4436 19.883C17.7105 19.6829 19.4842 17.862 19.649 17.6226C19.9551 17.1791 20.0728 16.5866 19.9551 16.0843C19.8217 15.5231 19.7785 15.4721 18.0715 13.7611C16.3488 12.0383 16.2938 11.9951 15.7248 11.8774C15.2736 11.7832 14.8144 11.8656 14.371 12.1207C14.269 12.1835 13.7824 12.6269 13.2918 13.1135L12.4011 13.9926L12.1146 13.8435C11.4122 13.4785 10.8942 13.1292 10.1211 12.4935C9.32843 11.8421 8.22182 10.7001 7.60965 9.89953C7.16622 9.31873 6.5148 8.24739 6.51088 8.10219C6.51088 8.07472 6.81696 7.75293 7.18976 7.38796C7.97459 6.62272 8.2846 6.26561 8.46119 5.92812C8.68095 5.50037 8.72411 4.95881 8.57107 4.51144C8.41803 4.05622 8.26891 3.88354 6.76987 2.38053C5.28654 0.897139 5.05894 0.700922 4.63513 0.555721C4.34081 0.449766 3.85421 0.42622 3.55205 0.500782ZM4.46246 1.60352C4.57234 1.66631 5.20021 2.25888 6.0439 3.10653C7.57041 4.63702 7.62927 4.70765 7.62534 5.11186C7.62534 5.46897 7.53116 5.59455 6.50695 6.6188C5.98896 7.13288 5.53768 7.60773 5.50629 7.67444C5.4592 7.75685 5.44743 7.87066 5.4592 8.06295C5.47097 8.29841 5.50237 8.38867 5.74174 8.86351C6.28328 9.93877 6.99748 10.8845 8.17865 12.0932C9.35198 13.2941 10.5214 14.1888 11.7261 14.8089C12.1538 15.0286 12.2362 15.06 12.4325 15.0561C12.5659 15.0561 12.7071 15.0286 12.7896 14.9854C12.8641 14.9462 13.3507 14.491 13.8687 13.9769C14.5358 13.3137 14.8615 13.0194 14.9871 12.9644C15.2225 12.8585 15.5286 12.8585 15.7445 12.9644C15.9799 13.0822 18.7543 15.8527 18.8759 16.096C18.9427 16.2255 18.9701 16.3433 18.9701 16.512C18.9701 16.9162 18.8877 17.0261 17.7732 18.1445C16.6706 19.2512 16.5685 19.3257 15.9799 19.4592C15.4109 19.5848 14.4573 19.4827 13.492 19.1962C12.0204 18.7606 10.0426 17.7168 8.4141 16.5159C5.27869 14.2084 2.58671 10.6805 1.46832 7.41936C0.934632 5.86925 0.875769 4.75867 1.28388 3.93456C1.40946 3.67163 1.52718 3.53821 2.34341 2.71017C2.8457 2.20001 3.32838 1.73694 3.41078 1.67808C3.76396 1.43477 4.12498 1.4073 4.46246 1.60352Z" fill="#0E2071"/>
</svg>
