<svg width="20" height="15" viewBox="0 0 20 15" fill="none" xmlns="http://www.w3.org/2000/svg">
<path d="M1.46993 0.642722C0.749596 0.835421 0.189848 1.45022 0.0522045 2.19349C-0.016617 2.56054 -0.016617 12.4249 0.0476164 12.7782C0.203612 13.604 0.878063 14.2555 1.69933 14.384C1.89203 14.4115 4.92477 14.4253 10.2103 14.4161L18.423 14.4024L18.6799 14.2968C19.2397 14.072 19.648 13.6637 19.882 13.0947L19.9829 12.8424L19.9967 7.68082C20.0059 4.12507 19.9967 2.42748 19.96 2.2302C19.8912 1.81727 19.7031 1.4594 19.4094 1.16117C19.1204 0.872126 18.8955 0.739072 18.5056 0.638134C18.111 0.537196 1.85533 0.541784 1.46993 0.642722ZM18.3496 1.37223C18.3817 1.40434 17.0374 2.61559 14.2386 5.08856C11.9492 7.10732 10.0543 8.76361 10.0222 8.77279C9.9671 8.78655 1.69016 1.51446 1.64886 1.41811C1.63969 1.39517 1.69475 1.35846 1.76816 1.3447C2.00674 1.29423 18.2991 1.32176 18.3496 1.37223ZM3.80068 4.34988C5.16794 5.56114 6.28285 6.5751 6.27826 6.60263C6.26908 6.63016 5.04865 8.04328 3.55752 9.73628C1.77274 11.7734 0.841358 12.7965 0.818418 12.7598C0.800065 12.7323 0.781713 10.3511 0.781713 7.47436C0.781713 2.35866 0.786301 2.23937 0.873475 2.04208L0.965237 1.8448L1.13959 1.9962C1.23135 2.08338 2.42884 3.14322 3.80068 4.34988ZM19.18 2.17514C19.2397 2.38619 19.2442 12.7139 19.1846 12.7461C19.1387 12.7782 13.7431 6.65768 13.7431 6.57969C13.7431 6.55216 14.9314 5.48314 16.3813 4.19848C19.2488 1.66127 19.0745 1.78974 19.18 2.17514ZM8.50349 8.50209C9.20547 9.12148 9.82945 9.64911 9.89369 9.67205C9.96251 9.69958 10.0451 9.69958 10.1185 9.67205C10.1827 9.64911 10.8755 9.06183 11.6601 8.36904C12.4493 7.67624 13.1099 7.10732 13.1283 7.10732C13.1512 7.10732 14.4176 8.52962 15.9408 10.2685C18.9644 13.7141 18.7808 13.4664 18.4046 13.5903C18.1844 13.6683 1.8278 13.6683 1.60298 13.5948C1.2497 13.4756 1.10747 13.6683 4.10809 10.2547L6.88848 7.07979L7.05824 7.2266C7.15 7.30919 7.80151 7.8827 8.50349 8.50209Z" fill="#0E2071"/>
</svg>
