<svg width="18" height="20" viewBox="0 0 18 20" fill="none" xmlns="http://www.w3.org/2000/svg">
<path d="M17.0312 16.3751L15.6412 14.0641C15.0002 12.9952 14.6615 11.7724 14.6612 10.5261V8.49307C14.6612 6.99128 14.0646 5.551 13.0027 4.48907C11.9408 3.42715 10.5005 2.83057 8.99872 2.83057C7.49693 2.83057 6.05665 3.42715 4.99473 4.48907C3.9328 5.551 3.33622 6.99128 3.33622 8.49307V10.5211C3.33564 11.7695 2.99549 12.9942 2.35222 14.0641L0.962216 16.3791C0.924003 16.4402 0.90301 16.5105 0.90146 16.5825C0.899909 16.6546 0.917859 16.7257 0.953408 16.7884C0.988958 16.8511 1.04079 16.9031 1.10342 16.9387C1.16605 16.9744 1.23715 16.9925 1.30922 16.9911H16.6792C16.7513 16.9925 16.8224 16.9744 16.885 16.9387C16.9476 16.9031 16.9995 16.8511 17.035 16.7884C17.0706 16.7257 17.0885 16.6546 17.087 16.5825C17.0854 16.5105 17.0644 16.4402 17.0262 16.3791L17.0312 16.3751ZM2.03122 16.1751L3.05322 14.4751C3.77159 13.2812 4.15183 11.9144 4.15322 10.5211V8.49307C4.14399 7.84984 4.2627 7.21118 4.50247 6.61423C4.74224 6.01729 5.09827 5.47396 5.54988 5.01582C6.00148 4.55769 6.53965 4.1939 7.13309 3.94559C7.72654 3.69728 8.36342 3.5694 9.00672 3.5694C9.65002 3.5694 10.2869 3.69728 10.8803 3.94559C11.4738 4.1939 12.012 4.55769 12.4636 5.01582C12.9152 5.47396 13.2712 6.01729 13.511 6.61423C13.7507 7.21118 13.8695 7.84984 13.8602 8.49307V10.5211C13.8593 11.914 14.2367 13.281 14.9522 14.4761L15.9742 16.1761L2.03122 16.1751Z" fill="black"/>
<path d="M8.99936 0C8.57032 0.000264921 8.15892 0.170817 7.85555 0.474194C7.55217 0.77757 7.38161 1.18896 7.38135 1.618V3.236C7.38135 3.34328 7.42397 3.44617 7.49983 3.52202C7.57569 3.59788 7.67858 3.6405 7.78586 3.6405C7.89314 3.6405 7.99603 3.59788 8.07188 3.52202C8.14774 3.44617 8.19035 3.34328 8.19035 3.236V1.618C8.19035 1.40344 8.27559 1.19767 8.42731 1.04595C8.57902 0.894234 8.7848 0.809 8.99936 0.809C9.21392 0.809 9.41969 0.894234 9.57141 1.04595C9.72313 1.19767 9.80835 1.40344 9.80835 1.618V3.236C9.80835 3.34328 9.85098 3.44617 9.92683 3.52202C10.0027 3.59788 10.1056 3.6405 10.2129 3.6405C10.3201 3.6405 10.423 3.59788 10.4989 3.52202C10.5747 3.44617 10.6174 3.34328 10.6174 3.236V1.618C10.6171 1.18896 10.4465 0.77757 10.1432 0.474194C9.83978 0.170817 9.4284 0.000264921 8.99936 0Z" fill="black"/>
<path d="M10.7491 16.3781C10.6948 16.2853 10.6059 16.2178 10.502 16.1905C10.398 16.1632 10.2874 16.1784 10.1946 16.2326C10.1018 16.2868 10.0343 16.3757 10.007 16.4797C9.9797 16.5837 9.99484 16.6943 10.0491 16.7871C10.1557 16.9715 10.2119 17.1807 10.2121 17.3937C10.2122 17.6067 10.1562 17.816 10.0498 18.0006C9.94338 18.1851 9.79024 18.3383 9.60579 18.4448C9.42134 18.5514 9.21208 18.6075 8.99907 18.6075C8.78606 18.6075 8.57682 18.5514 8.39237 18.4448C8.20792 18.3383 8.05477 18.1851 7.94834 18.0006C7.84191 17.816 7.78595 17.6067 7.78607 17.3937C7.7862 17.1807 7.84243 16.9715 7.94908 16.7871C8.00332 16.6943 8.01845 16.5837 7.99117 16.4797C7.96388 16.3757 7.8964 16.2868 7.80358 16.2326C7.71075 16.1784 7.60018 16.1632 7.49619 16.1905C7.3922 16.2178 7.30331 16.2853 7.24907 16.3781C7.07075 16.6856 6.97659 17.0346 6.97608 17.3901C6.97556 17.7455 7.0687 18.0948 7.24613 18.4028C7.42355 18.7108 7.67899 18.9666 7.98673 19.1445C8.29446 19.3224 8.64363 19.416 8.99907 19.416C9.35452 19.416 9.70369 19.3224 10.0114 19.1445C10.3192 18.9666 10.5746 18.7108 10.752 18.4028C10.9295 18.0948 11.0226 17.7455 11.0221 17.3901C11.0215 17.0346 10.9274 16.6856 10.7491 16.3781Z" fill="black"/>
</svg>
