<svg width="16" height="16" viewBox="0 0 16 16" fill="none" xmlns="http://www.w3.org/2000/svg">
<g clip-path="url(#clip0_3090_8396)">
<path d="M9.43761 0.0935462C9.46808 0.0997548 9.49854 0.105963 9.52993 0.11236C11.0313 0.426427 12.4124 1.10132 13.5157 2.1747C13.5802 2.23502 13.6499 2.28848 13.7189 2.34355C13.7532 2.37963 13.7864 2.41675 13.8185 2.45487C13.8798 2.52706 13.9416 2.59771 14.0068 2.66642C15.1111 3.83152 15.7663 5.42187 15.9689 6.9998C15.9716 7.02065 15.9743 7.0415 15.9771 7.06298C15.9989 7.24162 16.0056 7.41784 16.0065 7.5977C16.0067 7.62727 16.0069 7.65684 16.0071 7.68731C16.0143 8.92219 16.0143 8.92219 15.9064 9.4373C15.8971 9.48299 15.8971 9.48299 15.8875 9.52961C15.5797 11.0014 14.9239 12.3485 13.891 13.4461C13.8355 13.5062 13.7832 13.566 13.7316 13.6292C13.6712 13.7009 13.6145 13.7603 13.5431 13.8201C13.4716 13.8808 13.4016 13.9418 13.3336 14.0064C12.1685 15.1107 10.5781 15.766 9.00011 15.9685C8.97928 15.9713 8.95844 15.974 8.93697 15.9768C8.75796 15.9986 8.58135 16.0053 8.40111 16.0061C8.37124 16.0063 8.34136 16.0065 8.31057 16.0067C8.24746 16.007 8.18435 16.0072 8.12125 16.0073C8.02717 16.0076 7.93311 16.0086 7.83904 16.0096C7.41666 16.0119 7.0103 15.976 6.59386 15.906C6.55835 15.9002 6.52284 15.8943 6.48625 15.8882C6.40511 15.8737 6.32474 15.8575 6.24425 15.8396C6.20085 15.83 6.20085 15.83 6.15657 15.8203C4.80659 15.5064 3.56201 14.8394 2.55382 13.8907C2.49376 13.8353 2.43396 13.7829 2.37084 13.7314C2.29849 13.6705 2.2383 13.6128 2.17785 13.5408C2.09794 13.4468 2.01585 13.3557 1.93175 13.2654C1.01282 12.2421 0.418508 10.9564 0.132926 9.61894C0.126712 9.59004 0.120498 9.56114 0.114096 9.53136C0.0112253 9.0249 -0.011615 8.52697 -0.00965237 8.01151C-0.00958502 7.97969 -0.00951767 7.94788 -0.00944828 7.91509C-0.0078953 7.45816 0.00165662 7.01132 0.0938633 6.5623C0.100072 6.53065 0.106281 6.49901 0.112677 6.46641C0.411938 4.96988 1.10863 3.58031 2.17502 2.48418C2.23534 2.41968 2.2888 2.35003 2.34386 2.28105C2.37995 2.24673 2.41707 2.21347 2.45519 2.18144C2.5569 2.09487 2.6547 2.00528 2.75207 1.91386C3.797 0.962742 5.18529 0.350829 6.56261 0.0935462C6.58777 0.0884756 6.61293 0.0834049 6.63885 0.0781806C7.51357 -0.0928462 8.56539 -0.089139 9.43761 0.0935462ZM3.09386 3.1873C3.07578 3.20526 3.05769 3.22322 3.03905 3.24172C2.64111 3.64163 2.30997 4.10362 2.03136 4.59355C2.0132 4.62546 2.0132 4.62546 1.99467 4.65801C1.10869 6.2312 0.890945 8.10476 1.37511 9.84355C1.63427 10.7513 2.05461 11.5834 2.65636 12.3123C2.67835 12.339 2.67835 12.339 2.70078 12.3663C3.0092 12.7392 3.33695 13.0756 3.71886 13.3748C3.75036 13.4002 3.78187 13.4256 3.81432 13.4518C4.0608 13.6488 4.31885 13.8144 4.59386 13.9685C4.61634 13.9813 4.63882 13.994 4.66198 14.0071C6.18785 14.8648 8.05506 15.1226 9.75011 14.656C10.9627 14.307 11.9597 13.705 12.8751 12.8435C12.8957 12.8243 12.9163 12.805 12.9375 12.7852C13.0984 12.6299 13.2368 12.4564 13.3751 12.281C13.4095 12.2375 13.4095 12.2375 13.4446 12.1932C14.5519 10.7557 15.0443 8.94518 14.8254 7.14598C14.6181 5.59166 13.9158 4.20168 12.8126 3.09355C12.7859 3.06666 12.7859 3.06666 12.7587 3.03924C12.2776 2.56052 11.7233 2.19124 11.1251 1.8748C11.0919 1.85705 11.0919 1.85705 11.0581 1.83895C8.4329 0.455629 5.15137 1.13891 3.09386 3.1873Z" fill="#5E5C5C"/>
<path d="M9.15607 4.21692C9.19396 4.2342 9.19396 4.2342 9.23261 4.25183C9.43281 4.35316 9.59066 4.49798 9.74982 4.65442C9.77749 4.68149 9.77749 4.68149 9.80573 4.70911C10.0977 5.0205 10.1746 5.42941 10.1636 5.84119C10.1408 6.32184 9.90567 6.73793 9.59357 7.09192C9.57387 7.11609 9.55417 7.14026 9.53388 7.16516C9.36682 7.36344 9.17527 7.52332 8.97218 7.68302C8.66576 7.92652 8.47954 8.15969 8.43146 8.55481C8.41785 8.67443 8.40709 8.79376 8.39984 8.91394C8.39203 9.04205 8.38581 9.13331 8.32599 9.24817C8.09185 9.44029 7.82115 9.42736 7.53107 9.40442C7.42065 9.38433 7.34527 9.35199 7.27289 9.26123C7.06663 8.92905 7.13048 8.41687 7.21357 8.05323C7.3789 7.51715 7.70427 7.16538 8.14325 6.83033C8.43647 6.606 8.68621 6.40395 8.76545 6.03137C8.78892 5.85433 8.77372 5.71794 8.68732 5.56067C8.52223 5.35431 8.32055 5.26382 8.06537 5.22486C7.70593 5.19539 7.40354 5.24214 7.12091 5.47083C7.00389 5.57831 6.91941 5.70034 6.83539 5.8346C6.75352 5.93983 6.67437 5.99072 6.54206 6.01062C6.3089 6.00862 6.15959 5.98622 5.97638 5.83216C5.8339 5.66197 5.79444 5.52788 5.80158 5.3086C5.84618 4.92796 6.07038 4.64363 6.35517 4.40174C7.13682 3.83263 8.29832 3.82501 9.15607 4.21692Z" fill="#5E5C5C"/>
<path d="M8.20156 10.2145C8.4075 10.3903 8.56799 10.5664 8.60158 10.8445C8.6106 11.0983 8.54412 11.3413 8.36953 11.5309C8.1565 11.7183 7.94575 11.7757 7.66335 11.7654C7.4164 11.7315 7.22932 11.6089 7.0757 11.415C6.93126 11.1869 6.91242 10.9497 6.96914 10.6891C7.03727 10.4792 7.17845 10.3002 7.36904 10.1871C7.64064 10.0627 7.93851 10.0758 8.20156 10.2145Z" fill="#5E5C5C"/>
</g>
<defs>
<clipPath id="clip0_3090_8396">
<rect width="16" height="16" fill="white"/>
</clipPath>
</defs>
</svg>
