<svg width="18" height="16" viewBox="0 0 18 16" fill="none" xmlns="http://www.w3.org/2000/svg">
<path d="M7.69066 1.82311L1.20522 12.65C1.07151 12.8816 1.00075 13.1441 1.00001 13.4115C0.999257 13.6789 1.06854 13.9419 1.20095 14.1742C1.33337 14.4065 1.52431 14.6001 1.75477 14.7357C1.98523 14.8713 2.24718 14.9442 2.51456 14.9471H15.4854C15.7528 14.9442 16.0148 14.8713 16.2452 14.7357C16.4757 14.6001 16.6666 14.4065 16.799 14.1742C16.9315 13.9419 17.0007 13.6789 17 13.4115C16.9992 13.1441 16.9285 12.8816 16.7948 12.65L10.3093 1.82311C10.1728 1.59807 9.98064 1.41202 9.7513 1.2829C9.52195 1.15377 9.2632 1.08594 9 1.08594C8.7368 1.08594 8.47805 1.15377 8.2487 1.2829C8.01936 1.41202 7.82716 1.59807 7.69066 1.82311Z" stroke="#FF4C4C" stroke-width="1.53139" stroke-linecap="round" stroke-linejoin="round"/>
<path d="M9 5.75781V8.82059" stroke="#FF4C4C" stroke-width="1.53139" stroke-linecap="round" stroke-linejoin="round"/>
<path d="M9 11.8828H9.01" stroke="#FF4C4C" stroke-width="1.53139" stroke-linecap="round" stroke-linejoin="round"/>
</svg>
