<svg width="36" height="36" viewBox="0 0 36 36" fill="none" xmlns="http://www.w3.org/2000/svg">
<g opacity="0.5" clip-path="url(#clip0_226_208)">
<path d="M17.0286 0.881173C14.4377 1.12727 12.51 1.67414 10.3293 2.78156C7.74536 4.1009 5.42798 6.17902 3.73267 8.69465C3.02173 9.76105 2.14673 11.5589 1.7229 12.8304C1.38794 13.8558 1.1145 15.0247 0.950439 16.18C0.834229 16.9866 0.834229 19.68 0.950439 20.4866C1.23755 22.5032 1.77075 24.2669 2.60474 25.9554C3.54126 27.8695 4.46411 29.1546 5.98169 30.679C7.49243 32.1829 8.7981 33.1195 10.637 34.0218C11.9221 34.6507 12.7493 34.9583 14.0549 35.2864C17.4729 36.1478 20.9045 35.9837 24.2405 34.8011C25.259 34.4388 27.0227 33.557 27.9319 32.9486C29.9758 31.5882 31.8489 29.6673 33.1887 27.5618C33.6809 26.7894 34.4739 25.1488 34.7952 24.2396C36.4016 19.7142 36.1213 14.8607 34.009 10.6155C33.1614 8.90656 32.2112 7.55988 30.8782 6.18586C29.4016 4.65461 27.9524 3.60188 26.0178 2.64485C23.9944 1.6468 22.1077 1.10676 19.8655 0.901681C19.1682 0.840158 17.5891 0.826486 17.0286 0.881173ZM19.1067 9.4466C19.2434 9.5423 19.4417 9.74055 19.5442 9.8841L19.7288 10.1507L19.7629 13.5071L19.7971 16.8636L23.1536 16.8978L26.51 16.932L26.7766 17.1165C26.9202 17.2191 27.1184 17.4173 27.2141 17.5609C27.3577 17.7728 27.385 17.889 27.385 18.3333C27.385 18.7777 27.3577 18.8939 27.2141 19.1058C27.1184 19.2493 26.9202 19.4476 26.7766 19.5501L26.51 19.7347L23.1536 19.7689L19.7971 19.803L19.7629 23.1595L19.7288 26.5159L19.5442 26.7825C19.4417 26.9261 19.2434 27.1243 19.0999 27.22C18.8879 27.3636 18.7717 27.3909 18.3274 27.3909C17.8831 27.3909 17.7668 27.3636 17.5549 27.22C17.4114 27.1243 17.2131 26.9261 17.1106 26.7825L16.926 26.5159L16.8918 23.1595L16.8577 19.803L13.5012 19.7689L10.1448 19.7347L9.87817 19.5501C9.45435 19.2493 9.27661 18.9349 9.24927 18.4085C9.22192 17.848 9.40649 17.4446 9.84399 17.137L10.1379 16.932L13.4944 16.8978L16.8577 16.8636L16.8918 13.5003L16.926 10.1439L17.1311 9.84992C17.4387 9.41242 17.842 9.22785 18.4026 9.25519C18.7444 9.2757 18.9153 9.32355 19.1067 9.4466Z" fill="#0E2071"/>
</g>
<defs>
<clipPath id="clip0_226_208">
<rect width="35" height="35" fill="white" transform="translate(0.833984 0.833252)"/>
</clipPath>
</defs>
</svg>
