<svg width="13" height="17" viewBox="0 0 13 17" fill="none" xmlns="http://www.w3.org/2000/svg">
<path d="M11.4235 6.73584H1.55306C0.965411 6.73584 0.488281 7.21298 0.488281 7.80064V15.6712C0.488281 16.2589 0.965411 16.736 1.55306 16.736H11.4235C12.0112 16.736 12.4883 16.2589 12.4883 15.6712V7.80064C12.4882 7.21298 12.0111 6.73584 11.4235 6.73584ZM7.44068 12.235V13.0217C7.44068 13.5474 7.01404 13.9741 6.48828 13.9741C5.96252 13.9741 5.53588 13.5474 5.53588 13.0217V12.235C5.13109 11.9416 4.86918 11.4644 4.86918 10.9264C4.86918 10.032 5.59398 9.30731 6.4882 9.30731C7.38242 9.30731 8.10722 10.032 8.10722 10.9264C8.1073 11.4645 7.84539 11.9416 7.44068 12.235Z" fill="#999999"/>
<path d="M10.0125 3.78749V5.02181C10.0125 5.44263 9.67135 5.78376 9.25054 5.78376C8.82972 5.78376 8.4886 5.44263 8.4886 5.02181V3.83661C8.4886 2.75352 7.64794 1.82982 6.56568 1.78896C5.42792 1.746 4.48863 2.65909 4.48863 3.78757V5.97431H2.96484V3.84494C2.96484 1.92449 4.47795 0.313122 6.39772 0.264818C7.40707 0.239411 8.32217 0.638146 8.98005 1.29604C9.61819 1.93412 10.0125 2.81412 10.0125 3.78749Z" fill="#999999"/>
</svg>
