<svg width="15" height="14" viewBox="0 0 15 14" fill="none" xmlns="http://www.w3.org/2000/svg">
<path d="M7.17442 0.0302048C6.9025 0.0989653 6.71185 0.211483 6.50557 0.424015C6.32116 0.611544 6.01486 1.12412 3.25819 5.83422C1.58294 8.69716 0.17022 11.1288 0.117087 11.2413C-0.00793232 11.5038 -0.0360616 11.8883 0.0483263 12.1977C0.185847 12.704 0.629665 13.1103 1.15475 13.2103C1.38603 13.2541 13.6192 13.2541 13.8504 13.2103C14.3786 13.1103 14.8193 12.7071 14.9569 12.1977C15.0256 11.9477 15.01 11.5101 14.9256 11.3101C14.8225 11.0569 8.69653 0.630296 8.56526 0.480273C8.29959 0.180227 7.97141 0.0239535 7.5651 0.0020752C7.43383 -0.00417576 7.26193 0.00832642 7.17442 0.0302048ZM7.94329 3.32446C8.13394 3.43073 8.31834 3.65263 8.37773 3.84329C8.43399 4.02144 8.42773 4.16521 8.28396 6.59058C8.2152 7.75639 8.15894 8.72216 8.15894 8.74091C8.15894 8.75967 7.91828 8.77217 7.50259 8.77217C6.89938 8.77217 6.84624 8.76904 6.84624 8.71591C6.84624 8.68778 6.78373 7.62824 6.70872 6.36555C6.55557 3.81828 6.55557 3.88392 6.7556 3.59638C6.93688 3.33071 7.21192 3.20256 7.5526 3.21819C7.73075 3.22757 7.81202 3.24945 7.94329 3.32446ZM7.90265 9.83483C8.11519 9.92547 8.35272 10.1849 8.42461 10.4005C8.54338 10.7568 8.43086 11.1944 8.15894 11.4413C7.95579 11.6226 7.77764 11.6914 7.50259 11.6914C7.10566 11.6914 6.79311 11.4913 6.62121 11.1319C6.45556 10.7787 6.51494 10.3724 6.77436 10.0849C7.07128 9.75357 7.49322 9.6598 7.90265 9.83483Z" fill="#FD9646"/>
</svg>
