<svg width="17" height="17" viewBox="0 0 17 17" fill="none" xmlns="http://www.w3.org/2000/svg">
<g clip-path="url(#clip0_3090_2580)">
<path d="M5.50918 0.637167C5.54949 0.6369 5.54949 0.6369 5.59061 0.636628C5.61999 0.636591 5.64937 0.636554 5.67964 0.636516C5.71096 0.636357 5.74228 0.636198 5.77455 0.636034C5.87982 0.635543 5.98508 0.635277 6.09035 0.635013C6.1657 0.634715 6.24105 0.634406 6.3164 0.634086C6.54272 0.63319 6.76903 0.632572 6.99534 0.632043C7.05928 0.631893 7.12322 0.631737 7.18715 0.63158C7.58434 0.630612 7.98154 0.629779 8.37873 0.629255C8.47068 0.629131 8.56264 0.629006 8.65459 0.628879C8.67744 0.628847 8.7003 0.628816 8.72384 0.628783C9.09408 0.628252 9.46431 0.626967 9.83455 0.625378C10.2148 0.62376 10.5951 0.62285 10.9753 0.622623C11.1888 0.622478 11.4022 0.622018 11.6156 0.620756C11.8164 0.619571 12.0172 0.619341 12.218 0.619757C12.2917 0.619755 12.3653 0.619432 12.439 0.618764C12.5396 0.617901 12.6402 0.618196 12.7409 0.618778C12.77 0.618253 12.7991 0.617728 12.829 0.617188C13.0424 0.620267 13.1569 0.685477 13.3119 0.829036C13.3507 0.863915 13.3507 0.863915 13.3903 0.899499C13.4125 0.921707 13.4347 0.943915 13.4576 0.966797C13.4836 0.992597 13.5096 1.0184 13.5364 1.04498C13.5777 1.08655 13.5777 1.08655 13.62 1.12897C13.65 1.15893 13.6801 1.18888 13.7101 1.21881C13.7911 1.2995 13.8719 1.38038 13.9526 1.46131C14.0374 1.54625 14.1223 1.63103 14.2072 1.71583C14.3496 1.85812 14.4919 2.00054 14.6341 2.14304C14.7983 2.30761 14.9628 2.47194 15.1273 2.63617C15.269 2.77751 15.4105 2.91898 15.5519 3.06055C15.6362 3.14496 15.7205 3.22933 15.805 3.31358C15.8843 3.39273 15.9635 3.47202 16.0426 3.55144C16.0853 3.59434 16.1283 3.63709 16.1712 3.67983C16.1967 3.70554 16.2223 3.73125 16.2486 3.75774C16.2818 3.79104 16.2818 3.79104 16.3158 3.82501C16.4368 3.96223 16.4799 4.0616 16.4802 4.24548C16.4806 4.30566 16.4806 4.30566 16.481 4.36705C16.4809 4.41151 16.4807 4.45597 16.4805 4.50043C16.4807 4.54771 16.4809 4.59499 16.4811 4.64227C16.4816 4.77225 16.4815 4.90223 16.4814 5.03221C16.4813 5.17238 16.4817 5.31256 16.4821 5.45273C16.4828 5.72742 16.4829 6.00212 16.4829 6.27681C16.4828 6.50017 16.4829 6.72353 16.4832 6.94688C16.4832 7.0112 16.4833 7.07552 16.4834 7.13984C16.4834 7.18786 16.4834 7.18786 16.4835 7.23686C16.4841 7.84264 16.484 8.44843 16.4838 9.05422C16.4836 9.60803 16.4843 10.1618 16.4853 10.7157C16.4864 11.2845 16.4868 11.8532 16.4867 12.422C16.4866 12.7413 16.4868 13.0606 16.4876 13.3799C16.4882 13.6518 16.4883 13.9237 16.4878 14.1957C16.4875 14.3343 16.4874 14.473 16.4881 14.6116C16.4887 14.7388 16.4885 14.8659 16.4878 14.9931C16.4877 15.0389 16.4878 15.0847 16.4882 15.1305C16.4923 15.5987 16.3651 15.948 16.0438 16.2875C15.8105 16.5078 15.5062 16.6453 15.1868 16.6456C15.1481 16.6458 15.1095 16.6459 15.0696 16.646C15.0266 16.646 14.9836 16.646 14.9406 16.6459C14.895 16.646 14.8494 16.6461 14.8038 16.6462C14.6782 16.6465 14.5527 16.6465 14.4272 16.6465C14.2918 16.6466 14.1565 16.6468 14.0212 16.647C13.725 16.6475 13.4289 16.6477 13.1328 16.6478C12.9478 16.6479 12.7628 16.648 12.5777 16.6482C12.0652 16.6485 11.5527 16.6489 11.0401 16.649C11.0073 16.649 10.9745 16.649 10.9407 16.649C10.9078 16.649 10.8749 16.649 10.841 16.649C10.7744 16.649 10.7077 16.649 10.6411 16.649C10.608 16.6491 10.575 16.6491 10.5409 16.6491C10.006 16.6492 9.47101 16.6497 8.93607 16.6505C8.38649 16.6512 7.83691 16.6516 7.28733 16.6516C6.97892 16.6517 6.67051 16.6518 6.36209 16.6524C6.09928 16.6529 5.83647 16.653 5.57366 16.6528C5.43973 16.6527 5.30581 16.6527 5.17189 16.6531C5.0489 16.6535 4.92593 16.6535 4.80295 16.6531C4.75882 16.6531 4.71469 16.6531 4.67057 16.6534C4.23487 16.656 3.80696 16.5943 3.39397 16.4521C3.3668 16.4428 3.33963 16.4336 3.31164 16.4241C2.72111 16.2142 2.23461 15.8824 1.78069 15.454C1.75765 15.433 1.7346 15.412 1.71086 15.3903C1.15979 14.8686 0.824422 14.1771 0.624438 13.454C0.618436 13.4329 0.612434 13.4118 0.60625 13.39C0.326545 12.3529 0.567581 11.1809 1.08318 10.2626C1.25772 9.96426 1.48158 9.70475 1.71819 9.45404C1.73922 9.43099 1.76024 9.40795 1.78191 9.38421C2.22116 8.92028 2.79328 8.59849 3.39397 8.39349C3.43078 8.38081 3.43078 8.38081 3.46833 8.36788C3.64153 8.3125 3.81586 8.27864 3.99472 8.24803C4.01927 8.24377 4.04382 8.23951 4.06912 8.23511C4.12921 8.22469 4.18932 8.21435 4.24944 8.20404C4.24946 8.17107 4.24947 8.13811 4.24949 8.10415C4.24994 7.30104 4.25129 6.49793 4.25357 5.69482C4.25465 5.30644 4.25544 4.91806 4.25555 4.52968C4.25564 4.19106 4.25629 3.85244 4.25758 3.51382C4.25824 3.33462 4.25864 3.15543 4.25838 2.97622C4.25814 2.80732 4.25864 2.63843 4.25969 2.46952C4.25995 2.40776 4.25994 2.346 4.25964 2.28424C4.2574 1.76386 4.33527 1.3864 4.70513 0.99554C4.91623 0.796255 5.21541 0.638305 5.50918 0.637167ZM5.31194 1.79779C5.20598 1.95672 5.21367 2.11386 5.21422 2.30008C5.21417 2.32533 5.21412 2.35058 5.21407 2.3766C5.21395 2.46112 5.21405 2.54563 5.21415 2.63015C5.2141 2.69078 5.21405 2.7514 5.21398 2.81203C5.21384 2.97659 5.21389 3.14116 5.21399 3.30573C5.21407 3.47775 5.214 3.64978 5.21395 3.82181C5.21389 4.11057 5.21397 4.39933 5.21411 4.68809C5.21428 5.0224 5.21423 5.35671 5.21406 5.69102C5.21392 5.97775 5.2139 6.26448 5.21398 6.55122C5.21403 6.72261 5.21403 6.894 5.21393 7.0654C5.21384 7.22637 5.2139 7.38735 5.21408 7.54833C5.21412 7.60757 5.21411 7.66682 5.21404 7.72607C5.21396 7.80659 5.21406 7.8871 5.21422 7.96761C5.21415 7.99137 5.21408 8.01513 5.21401 8.0396C5.20483 8.14645 5.20483 8.14645 5.24944 8.23529C5.30213 8.24398 5.35485 8.2525 5.40769 8.2602C5.88029 8.33108 6.32733 8.48012 6.75139 8.70013C6.78534 8.71766 6.78534 8.71766 6.81998 8.73554C6.92477 8.79257 7.01657 8.84701 7.10404 8.92924C7.395 9.19319 7.67269 9.18046 8.05107 9.17485C8.11583 9.17492 8.18059 9.17512 8.24536 9.17544C8.42027 9.17595 8.59513 9.17476 8.77004 9.17328C8.95335 9.17204 9.13665 9.17248 9.31997 9.17276C9.66685 9.17306 10.0137 9.17201 10.3606 9.17041C10.9824 9.16758 11.6042 9.16704 12.2261 9.167C12.4442 9.16693 12.6624 9.16627 12.8806 9.16512C13.0161 9.16447 13.1516 9.1642 13.287 9.164C13.3499 9.16383 13.4128 9.16349 13.4757 9.16298C13.5614 9.1623 13.6471 9.16219 13.7328 9.16222C13.7703 9.1617 13.7703 9.1617 13.8084 9.16118C13.9509 9.16193 14.0425 9.17812 14.1557 9.26654C14.2443 9.38104 14.2623 9.46687 14.2612 9.61029C14.2614 9.64187 14.2616 9.67345 14.2619 9.70599C14.2474 9.81293 14.2216 9.86883 14.1557 9.95404C14.0283 10.0504 13.9184 10.0613 13.7635 10.0602C13.7401 10.0605 13.7166 10.0607 13.6924 10.0609C13.6138 10.0615 13.5353 10.0614 13.4567 10.0613C13.4004 10.0616 13.344 10.0619 13.2876 10.0623C13.1347 10.0631 12.9818 10.0634 12.8288 10.0636C12.6689 10.0639 12.5091 10.0647 12.3492 10.0655C12.0465 10.0668 11.7438 10.0677 11.4412 10.0685C11.0965 10.0693 10.7519 10.0707 10.4073 10.0721C9.69843 10.075 8.98956 10.0772 8.28069 10.079C8.29756 10.1103 8.31443 10.1415 8.33181 10.1737C8.35432 10.2157 8.37683 10.2576 8.39934 10.2995C8.41041 10.32 8.42149 10.3405 8.43289 10.3616C8.66959 10.8031 8.82863 11.2571 8.90724 11.7518C8.91632 11.8623 8.91632 11.8623 8.96819 11.954C9.0327 11.9572 9.09731 11.9582 9.1619 11.9583C9.18236 11.9584 9.20282 11.9585 9.22391 11.9586C9.29297 11.9589 9.36204 11.9589 9.43111 11.959C9.48043 11.9591 9.52975 11.9593 9.57907 11.9594C9.68554 11.9598 9.79201 11.9601 9.89848 11.9603C10.0668 11.9606 10.2351 11.9612 10.4035 11.9619C10.8822 11.9639 11.361 11.9655 11.8398 11.9666C12.104 11.9672 12.3682 11.9681 12.6324 11.9693C12.7723 11.97 12.9122 11.9705 13.0521 11.9705C13.1837 11.9706 13.3154 11.9711 13.447 11.9719C13.4953 11.9722 13.5436 11.9722 13.5919 11.9721C13.6579 11.972 13.7239 11.9724 13.7899 11.973C13.8452 11.9732 13.8452 11.9732 13.9017 11.9733C14.0102 11.9866 14.0684 12.0145 14.1557 12.079C14.2443 12.1935 14.2623 12.2794 14.2612 12.4228C14.2614 12.4544 14.2616 12.4859 14.2619 12.5185C14.2474 12.6254 14.2216 12.6813 14.1557 12.7665C14.0318 12.8581 13.9422 12.8722 13.7896 12.8727C13.7586 12.8731 13.7586 12.8731 13.727 12.8734C13.6579 12.874 13.5889 12.8739 13.5198 12.8738C13.4703 12.8741 13.4207 12.8744 13.3711 12.8748C13.2366 12.8756 13.1021 12.8759 12.9676 12.8761C12.827 12.8764 12.6865 12.8772 12.5459 12.878C12.2797 12.8793 12.0135 12.8802 11.7474 12.881C11.4443 12.8818 11.1413 12.8832 10.8382 12.8846C10.2149 12.8875 9.59153 12.8897 8.96819 12.8915C8.95843 12.9302 8.94867 12.969 8.93862 13.0088C8.93038 13.0415 8.93038 13.0415 8.92198 13.0748C8.90658 13.1379 8.89241 13.2011 8.87883 13.2646C8.67084 14.2248 8.19919 14.9569 7.49944 15.6415C7.47881 15.6622 7.45819 15.6828 7.43694 15.704C8.40459 15.7055 9.37225 15.7066 10.3399 15.7072C10.4542 15.7073 10.5684 15.7074 10.6827 15.7075C10.7168 15.7075 10.7168 15.7075 10.7516 15.7075C11.1198 15.7078 11.4881 15.7083 11.8563 15.7089C12.2342 15.7094 12.6121 15.7098 12.99 15.7099C13.2231 15.71 13.4563 15.7103 13.6894 15.7108C13.8683 15.7112 14.0471 15.7112 14.2259 15.7111C14.2992 15.7111 14.3725 15.7112 14.4459 15.7115C14.546 15.7118 14.6461 15.7117 14.7462 15.7116C14.7752 15.7117 14.8042 15.7119 14.8341 15.7121C15.0377 15.7112 15.2087 15.7039 15.3686 15.5654C15.5131 15.396 15.5346 15.2693 15.5345 15.0516C15.5346 14.9961 15.5346 14.9961 15.5347 14.9395C15.5346 14.8787 15.5346 14.8787 15.5344 14.8167C15.5345 14.7731 15.5345 14.7295 15.5345 14.686C15.5346 14.5662 15.5345 14.4465 15.5343 14.3268C15.5342 14.1977 15.5342 14.0686 15.5343 13.9395C15.5343 13.7158 15.5342 13.4921 15.534 13.2684C15.5337 12.945 15.5337 12.6216 15.5336 12.2982C15.5335 11.7735 15.5333 11.2488 15.533 10.7241C15.5328 10.2143 15.5325 9.70461 15.5324 9.19489C15.5324 9.16347 15.5324 9.13206 15.5324 9.09969C15.5323 8.94209 15.5323 8.78448 15.5323 8.62688C15.5319 7.31927 15.5314 6.01165 15.5307 4.70404C15.4954 4.70385 15.4601 4.70367 15.4238 4.70348C15.0913 4.70169 14.7589 4.69942 14.4264 4.69667C14.2555 4.69527 14.0846 4.69405 13.9137 4.69321C13.7488 4.6924 13.5838 4.69114 13.4189 4.68956C13.356 4.68904 13.293 4.68868 13.2301 4.68849C13.142 4.68818 13.0539 4.68731 12.9657 4.6863C12.9397 4.68634 12.9137 4.68639 12.8868 4.68643C12.7434 4.6841 12.645 4.67488 12.5307 4.57904C12.4173 4.44378 12.4231 4.3123 12.4234 4.144C12.4229 4.10236 12.4229 4.10236 12.4225 4.05988C12.4215 3.9684 12.4212 3.87694 12.4209 3.78546C12.4204 3.72192 12.4199 3.65839 12.4192 3.59485C12.4178 3.42784 12.4168 3.26082 12.416 3.0938C12.4151 2.92329 12.4136 2.75278 12.4122 2.58227C12.4095 2.24786 12.4074 1.91345 12.4057 1.57904C11.5335 1.57758 10.6612 1.57647 9.78897 1.5758C9.38398 1.57548 8.97899 1.57504 8.574 1.57432C8.22103 1.5737 7.86806 1.57329 7.51509 1.57316C7.32817 1.57307 7.14126 1.57288 6.95435 1.57243C6.77842 1.572 6.6025 1.57187 6.42657 1.57197C6.362 1.57195 6.29744 1.57183 6.23288 1.57159C6.14469 1.57127 6.05651 1.57135 5.96831 1.57152C5.94281 1.57134 5.9173 1.57116 5.89103 1.57097C5.64899 1.57223 5.47532 1.60639 5.31194 1.79779ZM13.3432 2.29779C13.3432 2.78247 13.3432 3.26716 13.3432 3.76654C13.8279 3.76654 14.3126 3.76654 14.8119 3.76654C14.6544 3.58254 14.6544 3.58254 14.4889 3.40821C14.464 3.3832 14.4391 3.35819 14.4134 3.33242C14.3871 3.30621 14.3609 3.27999 14.3338 3.25299C14.3064 3.22555 14.279 3.19812 14.2507 3.16985C14.1932 3.11227 14.1356 3.05473 14.078 2.99723C14.0188 2.93815 13.9596 2.87903 13.9006 2.81983C13.8152 2.73431 13.7298 2.64891 13.6443 2.56353C13.6177 2.53688 13.5912 2.51022 13.5638 2.48276C13.5393 2.45844 13.5149 2.43412 13.4898 2.40906C13.4682 2.38751 13.4466 2.36597 13.4244 2.34377C13.3819 2.29426 13.3819 2.29426 13.3432 2.29779ZM2.34319 10.204C1.70542 10.8881 1.46427 11.7326 1.4876 12.6498C1.50816 13.111 1.63591 13.5128 1.84319 13.9228C1.85991 13.9559 1.87662 13.9889 1.89385 14.023C2.30953 14.7836 3.05236 15.3438 3.87834 15.5888C4.77012 15.8038 5.63721 15.6842 6.43694 15.2353C6.57074 15.1524 6.69216 15.056 6.81194 14.954C6.83873 14.9319 6.86552 14.9098 6.89312 14.887C7.48555 14.3788 7.90998 13.6413 7.99944 12.8603C8.06961 11.9384 7.89005 11.076 7.28069 10.3603C7.25857 10.3335 7.23646 10.3067 7.21367 10.2791C6.63717 9.60704 5.8307 9.22758 4.95452 9.14544C3.94381 9.10112 3.0482 9.48962 2.34319 10.204Z" fill="#4DA6FF"/>
<path d="M7.04176 6.31696C7.07137 6.31679 7.10097 6.31662 7.13148 6.31645C7.23075 6.316 7.33001 6.31622 7.42928 6.31645C7.50043 6.31627 7.57158 6.31605 7.64272 6.3158C7.83603 6.31523 8.02934 6.31527 8.22265 6.31545C8.38395 6.31555 8.54525 6.31536 8.70656 6.31517C9.10881 6.3147 9.51105 6.31482 9.9133 6.31519C10.2626 6.31551 10.6118 6.3151 10.9611 6.31435C11.3198 6.31359 11.6785 6.3133 12.0372 6.3135C12.2386 6.3136 12.4399 6.31353 12.6413 6.31299C12.8306 6.31251 13.0199 6.31263 13.2092 6.31322C13.2787 6.31333 13.3483 6.31324 13.4178 6.31291C13.5126 6.3125 13.6074 6.31286 13.7023 6.31341C13.7436 6.31296 13.7436 6.31296 13.7858 6.3125C13.9552 6.31454 14.0521 6.34123 14.1865 6.45407C14.3133 6.61728 14.3044 6.78699 14.2802 6.98532C14.2124 7.12863 14.1416 7.20007 13.999 7.26657C13.9014 7.2802 13.8047 7.27936 13.7062 7.27869C13.6766 7.27886 13.647 7.27902 13.6165 7.2792C13.5172 7.27964 13.418 7.27942 13.3187 7.2792C13.2476 7.27938 13.1764 7.27959 13.1053 7.27985C12.912 7.28041 12.7186 7.28037 12.5253 7.28019C12.364 7.2801 12.2027 7.28029 12.0414 7.28048C11.6392 7.28094 11.2369 7.28083 10.8347 7.28045C10.4854 7.28014 10.1362 7.28054 9.78691 7.28129C9.4282 7.28205 9.06948 7.28234 8.71077 7.28215C8.50941 7.28204 8.30806 7.28212 8.10671 7.28265C7.91739 7.28314 7.72808 7.28301 7.53875 7.28243C7.46924 7.28231 7.39973 7.28241 7.33021 7.28273C7.23537 7.28315 7.14057 7.28279 7.04573 7.28223C7.01817 7.28254 6.99061 7.28284 6.96222 7.28314C6.79278 7.28111 6.6959 7.25441 6.56149 7.14157C6.43473 6.97837 6.44356 6.80865 6.46774 6.61032C6.59367 6.34447 6.77295 6.31513 7.04176 6.31696Z" fill="#4DA6FF"/>
<path d="M6.46875 11.1088C6.61319 11.1772 6.67849 11.2494 6.75 11.39C6.76575 11.4785 6.76575 11.4785 6.76758 11.5717C6.76957 11.6174 6.76957 11.6174 6.77161 11.6641C6.72213 11.8953 6.51181 12.0749 6.34863 12.237C6.32812 12.2576 6.30762 12.2782 6.2865 12.2995C6.21943 12.3668 6.15215 12.4339 6.08484 12.501C6.03783 12.548 5.99083 12.5951 5.94384 12.6422C5.84567 12.7404 5.7474 12.8386 5.64904 12.9366C5.52308 13.0622 5.39741 13.1881 5.27182 13.3141C5.17496 13.4112 5.07796 13.5081 4.98091 13.605C4.9345 13.6513 4.88814 13.6978 4.84183 13.7442C4.77715 13.8091 4.71227 13.8737 4.64733 13.9383C4.62832 13.9574 4.6093 13.9766 4.58971 13.9963C4.43986 14.1447 4.319 14.247 4.09961 14.2514C4.05387 14.2534 4.05387 14.2534 4.0072 14.2554C3.78022 14.2068 3.60308 14.0026 3.44373 13.8421C3.42488 13.8233 3.40603 13.8045 3.38662 13.7851C3.34724 13.7458 3.30793 13.7064 3.2687 13.6669C3.2088 13.6066 3.14858 13.5468 3.08832 13.4869C3.04987 13.4484 3.01143 13.4099 2.97302 13.3714C2.95515 13.3536 2.93728 13.3359 2.91887 13.3176C2.77056 13.1675 2.67411 13.0489 2.67383 12.8295C2.67817 12.6688 2.6985 12.5727 2.8125 12.4525C2.92707 12.3713 3.01016 12.344 3.15039 12.3412C3.18089 12.3399 3.21138 12.3385 3.2428 12.3372C3.49036 12.3902 3.67301 12.6172 3.84375 12.7924C3.86498 12.8139 3.88621 12.8354 3.90808 12.8576C3.9597 12.9099 4.01117 12.9624 4.0625 13.015C4.18599 12.9652 4.26836 12.8797 4.35986 12.7863C4.37669 12.7694 4.39353 12.7524 4.41087 12.735C4.44733 12.6983 4.48371 12.6615 4.52003 12.6247C4.57757 12.5664 4.63529 12.5082 4.69307 12.4501C4.83655 12.3058 4.97968 12.1612 5.12282 12.0166C5.24381 11.8943 5.36493 11.7722 5.48622 11.6503C5.54301 11.5931 5.5996 11.5357 5.65619 11.4784C5.69115 11.4432 5.72612 11.408 5.7611 11.3728C5.77671 11.3569 5.79231 11.341 5.80839 11.3246C6.01666 11.1162 6.1791 11.0735 6.46875 11.1088Z" fill="#4DA6FF"/>
</g>
<defs>
<clipPath id="clip0_3090_2580">
<rect width="16" height="16" fill="white" transform="translate(0.5 0.640625)"/>
</clipPath>
</defs>
</svg>
