<svg width="31" height="36" viewBox="0 0 31 36" fill="none" xmlns="http://www.w3.org/2000/svg">
<path d="M3.71289 0.398571C3.50062 0.44981 3.13465 0.588879 2.90774 0.698673C2.35878 0.969494 1.53168 1.7966 1.26818 2.34556C0.814366 3.26782 0.843644 2.27236 0.843644 17.8483C0.843644 30.2548 0.858283 32.1433 0.953437 32.5092C1.2389 33.6072 1.99281 34.5148 3.04681 35.0271C3.89588 35.4297 3.44207 35.4224 16.1634 35.4004L27.8892 35.3785L28.4162 35.1882C29.6532 34.7344 30.5608 33.7462 30.8829 32.5092C30.9854 32.114 31 30.8111 31 20.7102V9.36496L27.2524 9.343L23.4975 9.32104L23.1315 9.12342C22.6558 8.87456 22.1946 8.39147 21.9824 7.93034C21.814 7.56436 21.814 7.54241 21.7921 3.91925L21.7701 0.28146L12.9355 0.28878C5.52813 0.28878 4.03495 0.310738 3.71289 0.398571ZM23.5853 16.7503C23.922 16.9553 24.0758 17.2261 24.0758 17.6214C24.0758 18.0386 23.8488 18.4045 23.4902 18.5509C23.2852 18.6388 21.9824 18.6534 15.7974 18.6534C7.358 18.6534 7.98748 18.6973 7.66542 18.0679C7.40192 17.5555 7.54831 17.0431 8.03872 16.7503C8.26562 16.6113 8.47057 16.604 15.812 16.604C23.1535 16.604 23.3584 16.6113 23.5853 16.7503ZM20.8259 20.8346C21.2138 21.0249 21.4334 21.3982 21.3968 21.8081C21.3749 21.9911 21.3017 22.2326 21.2211 22.3351C20.9064 22.767 21.1845 22.7523 14.4433 22.7523C8.45593 22.7523 8.26562 22.745 8.03872 22.6059C7.54831 22.3132 7.40192 21.8008 7.66542 21.2958C7.9948 20.659 7.52635 20.7029 14.4579 20.7029C20.1305 20.7029 20.5917 20.7102 20.8259 20.8346ZM22.3337 24.9921C22.685 25.2556 22.8168 25.4825 22.8168 25.8631C22.8168 26.2437 22.685 26.4706 22.3337 26.7341C22.1361 26.8879 22.0702 26.8879 15.5339 26.9098C11.9034 26.9244 8.75603 26.9098 8.54376 26.8879C7.84841 26.8 7.40924 26.2145 7.57759 25.5923C7.66542 25.2776 7.9582 24.9701 8.26562 24.8823C8.39737 24.8384 11.3837 24.8164 15.3143 24.8238C22.0775 24.8384 22.1361 24.8384 22.3337 24.9921Z" fill="#0E2071"/>
<path d="M23.8271 3.96309C23.8271 6.70059 23.8418 7.08852 23.9443 7.19099C24.0467 7.29347 24.442 7.30811 27.2161 7.30811H30.3708L30.0121 6.93481C29.8072 6.72986 28.336 5.2806 26.7403 3.70691L23.8271 0.852304V3.96309Z" fill="#0E2071"/>
</svg>
