<svg width="16" height="17" viewBox="0 0 16 17" fill="none" xmlns="http://www.w3.org/2000/svg">
<g clip-path="url(#clip0_3090_8153)">
<path d="M7.9904 0.488408C8.03575 0.488494 8.03575 0.488494 8.08201 0.488581C8.52991 0.490001 8.96572 0.505903 9.40642 0.591924C9.44847 0.599469 9.44847 0.599469 9.49136 0.607167C10.8539 0.853717 12.1397 1.46895 13.1877 2.37317C13.2113 2.39336 13.235 2.41354 13.2593 2.43433C13.639 2.76691 14.0085 3.12593 14.3127 3.52942C14.3256 3.54622 14.3385 3.56301 14.3519 3.58031C14.5921 3.89275 14.8029 4.21968 15.0002 4.56067C15.0125 4.58184 15.0248 4.603 15.0375 4.62481C15.5034 5.43477 15.8021 6.35641 15.9377 7.27942C15.9432 7.31707 15.9487 7.35471 15.9545 7.3935C16.0044 7.75779 16.0114 8.11917 16.0099 8.48645C16.0098 8.53192 16.0098 8.53192 16.0098 8.5783C16.0083 9.02678 15.9925 9.46316 15.9064 9.90442C15.9014 9.93246 15.8964 9.96049 15.8912 9.98937C15.5427 11.9153 14.4279 13.7434 12.8439 14.9044C12.8172 14.9243 12.8172 14.9243 12.79 14.9446C12.5168 15.1483 12.2338 15.3297 11.9377 15.4982C11.9179 15.5096 11.8982 15.521 11.8778 15.5327C11.1585 15.9444 10.361 16.2158 9.55095 16.3829C9.52874 16.3875 9.50653 16.3922 9.48365 16.3969C8.99482 16.4902 8.50621 16.5099 8.00993 16.5079C7.9797 16.5079 7.94947 16.5078 7.91832 16.5078C7.47042 16.5063 7.03461 16.4904 6.59392 16.4044C6.56588 16.3994 6.53785 16.3944 6.50897 16.3892C4.6399 16.051 2.84259 14.9867 1.68767 13.4669C1.67465 13.45 1.66162 13.4332 1.64821 13.4158C1.4081 13.1034 1.1974 12.7765 1.00017 12.4357C0.987845 12.4145 0.975524 12.3933 0.962829 12.3715C0.496953 11.5616 0.198244 10.6399 0.0626668 9.71692C0.0571254 9.67928 0.0515839 9.64163 0.0458746 9.60285C-0.0040933 9.23856 -0.0110333 8.87718 -0.00959877 8.50989C-0.00954181 8.47958 -0.00948485 8.44927 -0.00942616 8.41805C-0.00800762 7.96956 0.00778452 7.53319 0.0939168 7.09192C0.101462 7.04988 0.101462 7.04988 0.10916 7.00698C0.447366 5.13791 1.51167 3.3406 3.03142 2.18567C3.0483 2.17265 3.06518 2.15963 3.08258 2.14621C3.39492 1.90611 3.72179 1.69541 4.06267 1.49817C4.08383 1.48585 4.10499 1.47353 4.1268 1.46084C4.84301 1.04889 5.64222 0.779967 6.44939 0.613408C6.47159 0.608801 6.4938 0.604193 6.51668 0.599446C7.00551 0.506154 7.49413 0.486461 7.9904 0.488408ZM4.87517 2.62317C4.85093 2.6367 4.8267 2.65023 4.80173 2.66417C4.21172 2.99765 3.69887 3.39542 3.21892 3.87317C3.20189 3.89008 3.18486 3.90698 3.16731 3.9244C2.72618 4.36787 2.39194 4.88865 2.09392 5.43567C2.08338 5.45465 2.07284 5.47363 2.06198 5.49318C1.68093 6.18385 1.45307 6.99639 1.37517 7.77942C1.37003 7.82619 1.37003 7.82619 1.36479 7.87391C1.20018 9.61659 1.75272 11.3579 2.85116 12.7133C3.01632 12.9109 3.19354 13.097 3.37517 13.2794C3.39207 13.2965 3.40897 13.3135 3.42639 13.331C4.61752 14.5158 6.33315 15.1505 7.99821 15.1622C9.01468 15.1551 10.0317 14.9348 10.9377 14.4669C10.9671 14.4519 10.9671 14.4519 10.997 14.4367C11.6683 14.0934 12.2478 13.6543 12.7814 13.1232C12.7984 13.1063 12.8155 13.0894 12.833 13.0719C14.0185 11.8801 14.6526 10.1641 14.6642 8.49817C14.6571 7.48488 14.435 6.46328 13.9689 5.56067C13.9539 5.53128 13.9539 5.53128 13.9386 5.5013C13.5954 4.83005 13.1563 4.25052 12.6252 3.71692C12.6083 3.69989 12.5914 3.68286 12.5739 3.66532C12.1305 3.22419 11.6097 2.88995 11.0627 2.59192C11.0342 2.57612 11.0342 2.57612 11.0052 2.55999C9.16052 1.54228 6.70173 1.60206 4.87517 2.62317Z" fill="#F7643C"/>
<path d="M5.96133 6.17287C6.01732 6.17247 6.01732 6.17247 6.07445 6.17207C6.13597 6.17235 6.13597 6.17235 6.19872 6.17264C6.2423 6.17252 6.28588 6.17235 6.32946 6.17215C6.44788 6.17172 6.56628 6.17189 6.6847 6.17218C6.80852 6.17242 6.93235 6.1722 7.05618 6.17205C7.26413 6.17188 7.47209 6.17211 7.68005 6.17255C7.92059 6.17306 8.16114 6.1729 8.40168 6.17238C8.60808 6.17196 8.81448 6.1719 9.02088 6.17214C9.14421 6.17229 9.26753 6.17231 9.39087 6.172C9.5068 6.17173 9.62274 6.17191 9.73867 6.17246C9.80161 6.17264 9.86455 6.17236 9.92749 6.17207C9.96482 6.17233 10.0021 6.1726 10.0406 6.17287C10.0731 6.17291 10.1056 6.17294 10.1391 6.17298C10.2197 6.18478 10.2197 6.18478 10.277 6.22121C10.3284 6.30204 10.3254 6.3619 10.3256 6.45742C10.3259 6.49471 10.3262 6.53199 10.3265 6.57041C10.3264 6.61137 10.3262 6.65233 10.3261 6.69453C10.3263 6.73806 10.3265 6.78159 10.3267 6.82512C10.3273 6.94341 10.3273 7.06169 10.3271 7.17998C10.327 7.27868 10.3272 7.37739 10.3274 7.4761C10.3278 7.70894 10.3278 7.94179 10.3274 8.17464C10.327 8.41494 10.3275 8.65523 10.3283 8.89553C10.329 9.10177 10.3292 9.308 10.329 9.51424C10.3289 9.63745 10.329 9.76066 10.3296 9.88387C10.33 9.99973 10.3299 10.1156 10.3293 10.2314C10.3292 10.2943 10.3296 10.3571 10.3301 10.4199C10.3296 10.476 10.3296 10.476 10.3291 10.5332C10.3291 10.5656 10.3291 10.5981 10.3291 10.6316C10.3089 10.7406 10.2782 10.7768 10.1885 10.841C10.1051 10.8568 10.1051 10.8568 10.0082 10.8569C9.97138 10.8573 9.93458 10.8576 9.89666 10.858C9.8564 10.8577 9.81613 10.8575 9.77465 10.8572C9.73173 10.8574 9.68881 10.8576 9.6459 10.8579C9.52942 10.8584 9.41295 10.8582 9.29647 10.8578C9.17458 10.8575 9.05269 10.8578 8.93079 10.858C8.72609 10.8582 8.5214 10.8579 8.3167 10.8573C8.08004 10.8566 7.84339 10.8569 7.60673 10.8576C7.40354 10.8581 7.20035 10.8582 6.99717 10.8579C6.87581 10.8577 6.75445 10.8576 6.6331 10.8581C6.519 10.8584 6.40492 10.8582 6.29083 10.8575C6.22898 10.8572 6.16713 10.8576 6.10528 10.858C6.06847 10.8576 6.03167 10.8573 5.99375 10.8569C5.96177 10.8569 5.92978 10.8568 5.89683 10.8568C5.78854 10.8363 5.75231 10.8052 5.68847 10.716C5.67283 10.6316 5.67283 10.6316 5.67281 10.5332C5.6725 10.4958 5.67219 10.4584 5.67188 10.4199C5.67218 10.379 5.67248 10.3381 5.67279 10.296C5.67267 10.2524 5.6725 10.2088 5.67228 10.1652C5.67184 10.0469 5.67219 9.92866 5.67271 9.81038C5.67314 9.68664 5.67294 9.56289 5.67283 9.43915C5.67274 9.23138 5.67316 9.02361 5.67389 8.81584C5.67472 8.57552 5.67478 8.33521 5.67441 8.09489C5.67407 7.8638 5.67426 7.63271 5.67471 7.40161C5.67489 7.30321 5.67488 7.20482 5.67474 7.10642C5.67459 6.99061 5.6749 6.87481 5.67558 6.759C5.67584 6.69614 5.67563 6.63327 5.67542 6.57041C5.67573 6.53312 5.67604 6.49584 5.67635 6.45742C5.67643 6.42495 5.67651 6.39247 5.67658 6.35901C5.68847 6.27853 5.68847 6.27853 5.72491 6.22121C5.80581 6.16977 5.86571 6.17297 5.96133 6.17287Z" fill="#F7643C"/>
</g>
<defs>
<clipPath id="clip0_3090_8153">
<rect width="16" height="16" fill="white" transform="translate(0 0.5)"/>
</clipPath>
</defs>
</svg>
