<svg
    width="24"
    height="26"
    viewBox="0 0 22 24"
    fill="none"
    xmlns="http://www.w3.org/2000/svg"
  >
    <path
      d="M14.2285 2.60795H4.22852C2.01938 2.60795 0.228516 4.39881 0.228516 6.60795V17.6079C0.228516 19.8171 2.01938 21.6079 4.22852 21.6079H14.2285C16.4377 21.6079 18.2285 19.8171 18.2285 17.6079V6.60795C18.2285 4.39881 16.4377 2.60795 14.2285 2.60795Z"
      fill="#1886D9"
    />
    <path
      d="M14.2285 3.10795H4.22852C2.29552 3.10795 0.728516 4.67495 0.728516 6.60795V17.6079C0.728516 19.5409 2.29552 21.1079 4.22852 21.1079H14.2285C16.1615 21.1079 17.7285 19.5409 17.7285 17.6079V6.60795C17.7285 4.67495 16.1615 3.10795 14.2285 3.10795Z"
      stroke="#1D2F7E"
    />
    <path
      d="M7.38133 0.27289C5.78246 0.27289 4.48633 1.5688 4.48633 3.16739C4.48633 4.76598 5.78246 6.06189 7.38133 6.06189L16.0643 6.06189C17.6632 6.06189 18.9593 4.76598 18.9593 3.16739C18.9593 1.5688 17.6632 0.27289 16.0643 0.27289L7.38133 0.27289Z"
      fill="#1886D9"
    />
    <path
      d="M7.38133 0.77289C6.05861 0.77289 4.98633 1.84494 4.98633 3.16739C4.98633 4.48984 6.05861 5.56189 7.38133 5.56189L16.0643 5.56189C17.3871 5.56189 18.4593 4.48984 18.4593 3.16739C18.4593 1.84494 17.3871 0.77289 16.0643 0.77289L7.38133 0.77289Z"
      stroke="#1D2F7E"
    />
    <path
      d="M6.70555 17.8329C5.10668 17.8329 3.81055 19.1289 3.81055 20.7274C3.81055 22.326 5.10668 23.6219 6.70555 23.6219H15.3885C16.9874 23.6219 18.2835 22.326 18.2835 20.7274C18.2835 19.1289 16.9874 17.8329 15.3885 17.8329H6.70555Z"
      fill="#1886D9"
    />
    <path
      d="M6.70555 18.3329C5.38282 18.3329 4.31055 19.405 4.31055 20.7274C4.31055 22.0499 5.38282 23.1219 6.70555 23.1219H15.3885C16.7113 23.1219 17.7835 22.0499 17.7835 20.7274C17.7835 19.405 16.7113 18.3329 15.3885 18.3329H6.70555Z"
      stroke="#1D2F7E"
    />
    <path
      d="M21.2285 8.10795C21.2285 6.17495 19.6615 4.60795 17.7285 4.60795C15.7955 4.60795 14.2285 6.17495 14.2285 8.10795V17.1079C14.2285 19.0409 15.7955 20.6079 17.7285 20.6079C19.6615 20.6079 21.2285 19.0409 21.2285 17.1079V8.10795Z"
      fill="#1886D9"
    />
    <path
      d="M20.7285 8.10795C20.7285 6.45109 19.3854 5.10795 17.7285 5.10795C16.0717 5.10795 14.7285 6.45109 14.7285 8.10795V17.1079C14.7285 18.7648 16.0717 20.1079 17.7285 20.1079C19.3854 20.1079 20.7285 18.7648 20.7285 17.1079V8.10795Z"
      stroke="#1D2F7E"
    />
  </svg>