<svg
    width="24"
    height="26"
    viewBox="0 0 22 24"
    fill="none"
    xmlns="http://www.w3.org/2000/svg"
  >
    <path
      d="M14.2285 2.49906H4.22852C2.01938 2.49906 0.228516 4.28992 0.228516 6.49906V17.4991C0.228516 19.7082 2.01938 21.4991 4.22852 21.4991H14.2285C16.4377 21.4991 18.2285 19.7082 18.2285 17.4991V6.49906C18.2285 4.28992 16.4377 2.49906 14.2285 2.49906Z"
      fill="#C1DFF5"
    />
    <path
      d="M14.2285 2.99906H4.22852C2.29552 2.99906 0.728516 4.56607 0.728516 6.49906V17.4991C0.728516 19.4321 2.29552 20.9991 4.22852 20.9991H14.2285C16.1615 20.9991 17.7285 19.4321 17.7285 17.4991V6.49906C17.7285 4.56607 16.1615 2.99906 14.2285 2.99906Z"
      stroke="#1D2F7E"
    />
    <path
      d="M8.1157 0.164003C6.51684 0.164003 5.2207 1.45991 5.2207 3.0585C5.2207 4.65709 6.51684 5.953 8.1157 5.953L16.7987 5.953C18.3976 5.953 19.6937 4.65709 19.6937 3.0585C19.6937 1.45991 18.3976 0.164003 16.7987 0.164003L8.1157 0.164003Z"
      fill="#C1DFF5"
    />
    <path
      d="M8.1157 0.664003C6.79298 0.664003 5.7207 1.73606 5.7207 3.0585C5.7207 4.38095 6.79298 5.453 8.1157 5.453L16.7987 5.453C18.1214 5.453 19.1937 4.38095 19.1937 3.0585C19.1937 1.73606 18.1214 0.664003 16.7987 0.664003L8.1157 0.664003Z"
      stroke="#1D2F7E"
    />
    <path
      d="M7.44187 17.7241C5.84301 17.7241 4.54688 19.02 4.54688 20.6186C4.54688 22.2171 5.84301 23.5131 7.44187 23.5131H16.1249C17.7237 23.5131 19.0199 22.2171 19.0199 20.6186C19.0199 19.02 17.7237 17.7241 16.1249 17.7241H7.44187Z"
      fill="#C1DFF5"
    />
    <path
      d="M7.44187 18.2241C6.11915 18.2241 5.04688 19.2961 5.04688 20.6186C5.04688 21.941 6.11915 23.0131 7.44187 23.0131H16.1249C17.4476 23.0131 18.5199 21.941 18.5199 20.6186C18.5199 19.2961 17.4476 18.2241 16.1249 18.2241H7.44187Z"
      stroke="#1D2F7E"
    />
    <path
      d="M21.2285 6.99906C21.2285 5.61835 20.1092 4.49906 18.7285 4.49906C17.3478 4.49906 16.2285 5.61835 16.2285 6.99906V17.9991C16.2285 19.3798 17.3478 20.4991 18.7285 20.4991C20.1092 20.4991 21.2285 19.3798 21.2285 17.9991V6.99906Z"
      fill="#C1DFF5"
    />
    <path
      d="M20.7285 6.99906C20.7285 5.89449 19.8331 4.99906 18.7285 4.99906C17.6239 4.99906 16.7285 5.89449 16.7285 6.99906V17.9991C16.7285 19.1036 17.6239 19.9991 18.7285 19.9991C19.8331 19.9991 20.7285 19.1036 20.7285 17.9991V6.99906Z"
      stroke="#1D2F7E"
    />
  </svg>